<svg width="16" height="16" viewBox="0 0 16 16" fill="none" xmlns="http://www.w3.org/2000/svg">
<path d="M4.6269 1.33325C4.90413 1.33325 5.12888 1.54939 5.12888 1.81601V2.78983C5.57415 2.78153 6.07326 2.78153 6.63484 2.78153H9.31209C9.87367 2.78153 10.3728 2.78153 10.818 2.78983V1.81601C10.818 1.54939 11.0428 1.33325 11.32 1.33325C11.5973 1.33325 11.822 1.54939 11.822 1.81601V2.83254C12.7854 2.90673 13.4178 3.0888 13.8825 3.53564C14.3471 3.98248 14.5364 4.59069 14.6136 5.51716L14.6667 5.99992H1.94974H1.33337V5.51716C1.41052 4.59069 1.59984 3.98248 2.06448 3.53564C2.52911 3.0888 3.16155 2.90673 4.12491 2.83254V1.81601C4.12491 1.54939 4.34966 1.33325 4.6269 1.33325Z" fill="#5090E9"/>
<path opacity="0.5" d="M14.6667 9.33339V8.00005C14.6667 7.4407 14.6645 6.44351 14.6559 6H1.33977C1.33117 6.44351 1.33334 7.4407 1.33334 8.00005V9.33339C1.33334 11.8475 1.33334 13.1046 2.11439 13.8857C2.89544 14.6667 4.15252 14.6667 6.66668 14.6667H9.33334C11.8475 14.6667 13.1046 14.6667 13.8856 13.8857C14.6667 13.1046 14.6667 11.8475 14.6667 9.33339Z" fill="#5090E9"/>
<path d="M12 11.3333C12 11.7015 11.7015 12 11.3333 12C10.9651 12 10.6666 11.7015 10.6666 11.3333C10.6666 10.9651 10.9651 10.6667 11.3333 10.6667C11.7015 10.6667 12 10.9651 12 11.3333Z" fill="#5090E9"/>
<path d="M12 8.66667C12 9.03486 11.7015 9.33333 11.3333 9.33333C10.9651 9.33333 10.6666 9.03486 10.6666 8.66667C10.6666 8.29848 10.9651 8 11.3333 8C11.7015 8 12 8.29848 12 8.66667Z" fill="#5090E9"/>
<path d="M8.66671 11.3333C8.66671 11.7015 8.36823 12 8.00004 12C7.63185 12 7.33337 11.7015 7.33337 11.3333C7.33337 10.9651 7.63185 10.6667 8.00004 10.6667C8.36823 10.6667 8.66671 10.9651 8.66671 11.3333Z" fill="#5090E9"/>
<path d="M8.66671 8.66667C8.66671 9.03486 8.36823 9.33333 8.00004 9.33333C7.63185 9.33333 7.33337 9.03486 7.33337 8.66667C7.33337 8.29848 7.63185 8 8.00004 8C8.36823 8 8.66671 8.29848 8.66671 8.66667Z" fill="#5090E9"/>
<path d="M5.33333 11.3333C5.33333 11.7015 5.03486 12 4.66667 12C4.29848 12 4 11.7015 4 11.3333C4 10.9651 4.29848 10.6667 4.66667 10.6667C5.03486 10.6667 5.33333 10.9651 5.33333 11.3333Z" fill="#5090E9"/>
<path d="M5.33333 8.66667C5.33333 9.03486 5.03486 9.33333 4.66667 9.33333C4.29848 9.33333 4 9.03486 4 8.66667C4 8.29848 4.29848 8 4.66667 8C5.03486 8 5.33333 8.29848 5.33333 8.66667Z" fill="#5090E9"/>
</svg>
