<svg width="16" height="16" viewBox="0 0 16 16" fill="none" xmlns="http://www.w3.org/2000/svg">
<path opacity="0.5" d="M13.1444 13.575C14.0954 13.0565 14.6667 12.3916 14.6667 11.6667C14.6667 10.8984 14.0248 10.1975 12.9692 9.66675C11.7485 9.053 9.97448 8.66675 8.00004 8.66675C6.0256 8.66675 4.25163 9.053 3.03092 9.66675C1.97527 10.1975 1.33337 10.8984 1.33337 11.6667C1.33337 12.4351 1.97527 13.136 3.03092 13.6667C4.25163 14.2805 6.0256 14.6667 8.00004 14.6667C10.0711 14.6667 11.9216 14.2418 13.1444 13.575Z" fill="#5090E9"/>
<path fill-rule="evenodd" clip-rule="evenodd" d="M3.33337 5.67634C3.33337 3.27772 5.42271 1.33325 8.00004 1.33325C10.5774 1.33325 12.6667 3.27772 12.6667 5.67634C12.6667 8.05617 11.1773 10.8332 8.85342 11.8263C8.31169 12.0578 7.68839 12.0578 7.14666 11.8263C4.82281 10.8332 3.33337 8.05617 3.33337 5.67634ZM8.00004 7.33325C8.73642 7.33325 9.33337 6.7363 9.33337 5.99992C9.33337 5.26354 8.73642 4.66659 8.00004 4.66659C7.26366 4.66659 6.66671 5.26354 6.66671 5.99992C6.66671 6.7363 7.26366 7.33325 8.00004 7.33325Z" fill="#5090E9"/>
</svg>
