<svg width="308" height="188" viewBox="0 0 308 188" fill="none" xmlns="http://www.w3.org/2000/svg">
<g filter="url(#filter0_d_15326_26946)">
<path d="M119.568 122.097C117.647 122.097 115.913 120.979 115.13 119.208C114.346 117.419 114.701 115.332 116.043 113.915C116.398 113.542 116.752 113.17 117.107 112.797C117.871 111.995 118.617 111.213 119.326 110.43C119.96 109.74 120.594 109.051 121.247 108.361C123.131 106.329 125.07 104.223 126.898 102.136C129.043 99.6757 131.523 96.8054 133.761 93.8606C135.925 91.0089 137.883 88.0641 140.065 84.8024C142.005 81.8949 143.702 78.5773 145.138 74.9428C145.959 72.8554 146.742 70.5256 147.544 67.8417C147.861 66.7793 148.085 65.6051 148.328 64.3564C148.44 63.7972 148.551 63.2008 148.682 62.6044C148.757 62.213 148.831 61.8216 148.906 61.4861C148.924 61.3556 148.962 61.2251 148.98 61.1133C149.409 58.8581 151.368 57.2179 153.662 57.1807C153.68 57.1807 153.718 57.1807 153.736 57.1807C155.993 57.1807 157.951 58.7463 158.455 60.9456C158.641 61.7656 158.828 62.6044 159.014 63.4617C159.425 65.3442 159.854 67.3012 160.357 69.1836C161.402 73.1536 163.173 76.8998 164.591 79.7328C166.885 84.2619 169.757 88.7537 173.394 93.4319C175.707 96.414 178.336 99.5452 181.899 103.59C183.913 105.864 186.058 108.156 188.147 110.355C189.079 111.343 190.049 112.368 190.981 113.393C191.858 114.344 192.362 115.462 192.455 116.711C192.604 118.612 191.634 120.42 189.956 121.333C189.228 121.743 188.426 121.93 187.624 121.93C186.599 121.93 185.573 121.613 184.715 120.96C184.472 120.774 184.23 120.606 183.988 120.42C183.428 120.01 182.868 119.581 182.29 119.153C180.742 117.96 179.194 116.767 177.646 115.574C176.322 114.549 174.979 113.524 173.655 112.499C173.077 112.051 172.48 111.604 171.902 111.138C170.335 109.927 168.731 108.678 167.127 107.485C163.975 105.137 161.103 103.086 157.951 101.651C156.534 101.018 155.266 100.701 154.072 100.701H153.997C152.71 100.719 151.442 101.018 150.099 101.614C147.153 102.937 144.392 104.82 142.098 106.479C139.599 108.305 137.063 110.188 134.918 111.79C133.743 112.666 132.568 113.58 131.412 114.474C130.479 115.201 129.546 115.91 128.595 116.618C127.159 117.699 125.704 118.798 124.306 119.842L122.832 120.942C121.657 121.818 120.464 122.023 119.68 122.041C119.643 122.097 119.606 122.097 119.568 122.097Z" fill="white"/>
<path d="M184.883 43.351C180.65 43.351 176.696 41.7481 173.786 38.8219C170.914 35.9516 169.347 32.0935 169.366 27.9745C169.385 23.6691 171.007 19.7364 173.936 16.8661C176.77 14.089 180.594 12.5607 184.697 12.5234H184.79C188.893 12.5234 192.717 14.0704 195.589 16.8661C198.48 19.6991 200.102 23.5945 200.177 27.8254C200.177 27.844 200.177 27.844 200.177 27.8626C200.214 31.963 198.648 35.8398 195.757 38.766C192.903 41.6549 188.968 43.3323 184.977 43.351H184.883Z" fill="white"/>
<path d="M116.734 123.122C115.484 123.122 114.272 122.638 113.358 121.743C112.015 120.438 111.549 118.481 112.146 116.711L112.78 114.828C113.246 113.449 113.713 112.07 114.197 110.691C114.664 109.311 115.13 107.932 115.596 106.572C116.118 105.025 116.641 103.478 117.163 101.931C117.611 100.607 118.058 99.3026 118.506 97.9793C119.028 96.451 119.55 94.9413 120.054 93.413C120.334 92.5743 120.632 91.7355 120.912 90.8782C121.676 88.6789 122.385 86.61 123.019 84.5039C123.579 82.6028 123.728 81.0931 123.448 79.7139C123.243 78.7075 122.702 77.7383 121.714 76.6759C120.054 74.8866 117.965 73.3956 115.727 71.7927C115.466 71.6063 115.205 71.4199 114.962 71.2522C111.848 69.0156 108.789 66.835 105.898 64.7848C104.201 63.5733 102.504 62.3804 100.806 61.169C99.4635 60.2184 98.1393 59.2865 96.8151 58.336C95.0806 57.1058 93.3275 55.8571 91.8354 54.7761C91.5557 54.571 91.3319 54.3847 91.1081 54.2169C91.0335 54.1424 90.9402 54.0678 90.8283 53.9933C89.243 52.7445 88.6089 50.6384 89.243 48.7187C89.8585 46.7989 91.6116 45.457 93.6259 45.3638C93.7191 45.3638 93.8124 45.3452 93.887 45.3452C94.0921 45.3265 94.2973 45.3265 94.5398 45.3265C97.785 45.3265 101.03 45.3265 104.294 45.3265C112.276 45.3265 120.539 45.3079 128.652 45.2892C130.256 45.2892 132.121 45.2147 133.818 44.7115C134.545 44.4878 135.422 44.0591 136.373 42.5681C137.679 40.5179 138.555 38.1322 139.506 35.4669L139.973 34.1623C140.719 32.0375 141.502 29.8382 142.248 27.6762C142.752 26.2038 143.274 24.6941 143.759 23.2403C144.262 21.7679 144.784 20.2396 145.288 18.7485C146.053 16.5492 146.836 14.3313 147.582 12.1879C147.918 11.2187 148.253 10.2495 148.589 9.29895C149.261 7.28603 151.107 6 153.159 6C153.364 6 153.569 6.01864 153.774 6.03728L153.886 6.05591C156.311 6.37276 158.12 8.42296 158.12 10.8646V11.2932C158.12 11.6101 158.12 11.9269 158.12 12.2624C158.101 15.5614 158.082 18.8417 158.064 22.1406C158.008 30.7888 157.952 39.7351 157.858 48.5323C157.821 51.2907 157.616 54.0305 157.411 56.6585C157.355 57.4972 157.28 58.336 157.224 59.156C157.001 62.4177 156.422 65.8844 155.434 69.7611C153.923 75.7254 151.499 81.4659 148.011 87.281C145.475 91.4932 142.658 95.5564 139.637 99.3585C137.175 102.452 134.508 105.77 131.766 108.92C129.23 111.865 126.581 114.81 124.045 117.643C123.019 118.798 121.975 119.954 120.949 121.109C120.259 121.892 119.401 122.47 118.431 122.843C117.872 123.029 117.293 123.122 116.734 123.122Z" fill="white"/>
<path d="M190.497 123.122C189.919 123.122 189.36 123.029 188.8 122.805C187.83 122.433 186.972 121.855 186.282 121.072C185.257 119.916 184.231 118.761 183.205 117.624C180.687 114.791 178.058 111.846 175.54 108.901C172.835 105.733 170.187 102.434 167.744 99.3398C164.741 95.5376 161.962 91.4745 159.444 87.2623C155.994 81.4472 153.588 75.7253 152.096 69.7611C151.126 65.8843 150.548 62.4176 150.324 59.1559C150.268 58.3172 150.212 57.4785 150.138 56.6398C149.932 54.0118 149.727 51.272 149.709 48.5136C149.597 39.6977 149.541 30.7514 149.503 22.1033C149.485 18.823 149.466 15.5427 149.448 12.2623C149.448 11.9455 149.448 11.61 149.448 11.2932V10.8831C149.448 8.44152 151.257 6.39132 153.663 6.07447L153.774 6.05583C153.98 6.03719 154.185 6.01855 154.39 6.01855C156.423 6.01855 158.288 7.30459 158.959 9.28023C159.295 10.2308 159.631 11.2 159.966 12.1505C160.712 14.3125 161.496 16.5305 162.242 18.7298C162.764 20.2208 163.268 21.7492 163.753 23.2216C164.237 24.6754 164.76 26.2037 165.263 27.6761C166.009 29.8381 166.774 32.0561 167.52 34.1808L167.968 35.4482C168.9 38.1321 169.777 40.5178 171.064 42.5493C171.996 44.0404 172.854 44.4691 173.563 44.6741C175.223 45.1773 177.069 45.2519 178.654 45.2519C186.693 45.2705 194.88 45.2705 202.807 45.2892C206.033 45.2892 209.241 45.2892 212.468 45.2892C212.71 45.2892 212.934 45.3078 213.121 45.3078C213.195 45.3078 213.27 45.3078 213.382 45.3264C215.396 45.4196 217.13 46.7429 217.765 48.6627C218.38 50.5824 217.765 52.6699 216.198 53.9373C216.086 54.0118 216.011 54.0864 215.918 54.1609C215.694 54.3473 215.471 54.5337 215.191 54.7201C213.363 56.0434 211.815 57.1617 210.248 58.28C208.924 59.2305 207.6 60.1624 206.294 61.113C204.616 62.3244 202.919 63.5173 201.24 64.7288C198.368 66.7976 195.347 68.9596 192.251 71.1962C191.989 71.3826 191.747 71.569 191.486 71.7553C189.285 73.3396 187.196 74.8493 185.555 76.6199C184.585 77.6823 184.026 78.6515 183.839 79.6579C183.578 81.0371 183.709 82.5655 184.268 84.4852C184.884 86.5913 185.592 88.6788 186.357 90.8781C186.637 91.7168 186.935 92.5555 187.215 93.3942C187.719 94.9226 188.241 96.4509 188.763 97.9792C189.211 99.2839 189.64 100.589 190.087 101.893C190.609 103.459 191.132 105.024 191.654 106.59C192.101 107.951 192.568 109.311 193.015 110.672C193.482 112.07 193.966 113.486 194.433 114.884L195.048 116.692C195.645 118.463 195.179 120.42 193.817 121.724C192.941 122.656 191.728 123.122 190.497 123.122Z" fill="white"/>
<path d="M123.056 43.4444C118.879 43.4258 114.962 41.8042 112.015 38.8408C109.106 35.9146 107.52 32.0565 107.539 27.9561C107.558 23.7625 109.143 19.8671 111.996 16.9782C114.906 14.0707 118.823 12.4678 123.075 12.4678H123.094C127.271 12.4678 131.169 14.0893 134.079 17.0155C136.97 19.9417 138.555 23.8184 138.536 27.9561C138.592 32.0006 137.026 35.84 134.135 38.7849C131.207 41.767 127.197 43.463 123.094 43.463H123.056V43.4444Z" fill="white"/>
<path d="M153.7 62.0635C154.315 64.7287 154.893 67.599 155.639 70.4507C156.684 74.4579 158.362 78.2414 160.227 81.9504C162.82 87.0945 166.009 91.9032 169.534 96.4323C172.294 99.9921 175.241 103.44 178.244 106.814C181.228 110.187 184.342 113.412 187.42 116.711C187.513 116.804 187.606 116.916 187.625 117.102C186.842 116.506 186.04 115.928 185.256 115.331C182.384 113.113 179.512 110.895 176.621 108.678C174.439 106.981 172.257 105.285 170.037 103.627C166.848 101.26 163.622 98.9298 159.966 97.271C158.064 96.395 156.05 95.8545 153.961 95.8917C151.928 95.9104 149.988 96.395 148.142 97.2337C144.971 98.6502 142.08 100.57 139.283 102.601C136.858 104.372 134.452 106.161 132.046 107.969C129.92 109.572 127.831 111.194 125.705 112.815C123.784 114.269 121.863 115.704 119.942 117.139C119.849 117.214 119.737 117.27 119.588 117.27C120.707 116.096 121.826 114.94 122.907 113.747C125.463 110.97 128.074 108.212 130.554 105.36C132.979 102.583 135.385 99.7685 137.623 96.8237C139.898 93.8043 142.006 90.6544 144.095 87.5046C146.333 84.1311 148.142 80.5153 149.634 76.769C150.604 74.3088 151.443 71.7926 152.17 69.2578C152.711 67.4313 152.991 65.5302 153.401 63.6664C153.513 63.0327 153.625 62.4176 153.7 62.0635Z" fill="#888888"/>
<path d="M195.327 27.9188C195.383 33.9016 190.478 38.4866 184.939 38.5239C178.877 38.5612 174.177 33.9203 174.215 28.012C174.252 21.7123 178.97 17.4255 184.734 17.3882C190.534 17.3323 195.234 21.7309 195.327 27.9188Z" fill="#F57F20"/>
<path d="M153.158 10.8457C152.058 13.9956 150.939 17.1454 149.857 20.2953C148.831 23.2774 147.824 26.2595 146.798 29.2416C145.903 31.8509 144.97 34.4416 144.056 37.051C143.068 39.8467 142.042 42.6238 140.457 45.1399C139.189 47.1342 137.547 48.6253 135.216 49.3335C133.071 49.9858 130.871 50.1163 128.67 50.1163C117.293 50.1349 105.916 50.1349 94.5392 50.1536C94.3527 50.1536 94.1662 50.1722 93.8491 50.1909C94.2035 50.4704 94.4273 50.6568 94.6697 50.8432C96.3296 52.036 97.9709 53.2102 99.6308 54.3844C102.671 56.5278 105.692 58.6899 108.732 60.8333C111.754 62.9953 114.794 65.1573 117.815 67.3193C120.426 69.2018 123.112 71.0097 125.313 73.3954C126.749 74.9423 127.83 76.6943 128.241 78.8004C128.707 81.2234 128.39 83.6091 127.7 85.9016C126.786 88.9582 125.704 91.959 124.679 94.9784C123.727 97.8114 122.739 100.644 121.788 103.496C120.799 106.422 119.811 109.348 118.822 112.275C118.132 114.287 117.461 116.3 116.771 118.313C117.032 118.22 117.218 118.071 117.368 117.903C120.967 113.877 124.623 109.87 128.148 105.788C130.796 102.713 133.351 99.5447 135.888 96.3762C138.816 92.7045 141.483 88.8464 143.889 84.8206C146.929 79.7323 149.316 74.3646 150.771 68.6054C151.573 65.3996 152.188 62.1566 152.431 58.8576C152.673 55.4095 153.009 51.9615 153.046 48.4948C153.195 36.4173 153.233 24.3397 153.326 12.2436C153.326 11.7962 153.326 11.3489 153.326 10.9016C153.233 10.8457 153.195 10.8457 153.158 10.8457Z" fill="#2D5DAB"/>
<path d="M154.296 10.8645C154.296 11.3118 154.296 11.7591 154.296 12.2065C154.371 24.284 154.426 36.3615 154.576 48.4577C154.613 51.9057 154.949 55.3724 155.191 58.8205C155.415 62.1195 156.03 65.3625 156.832 68.5683C158.268 74.3275 160.618 79.6952 163.64 84.7835C166.027 88.8093 168.675 92.6674 171.566 96.3391C174.066 99.5262 176.602 102.676 179.232 105.751C182.738 109.833 186.356 113.84 189.919 117.866C190.068 118.034 190.254 118.183 190.515 118.276C189.844 116.263 189.154 114.25 188.482 112.237C187.494 109.311 186.524 106.385 185.554 103.459C184.603 100.626 183.633 97.7929 182.682 94.9413C181.675 91.9219 180.593 88.9211 179.698 85.8645C179.027 83.5533 178.691 81.1676 179.157 78.7633C179.567 76.6572 180.631 74.9239 182.048 73.3583C184.23 70.9726 186.878 69.1647 189.471 67.2822C192.474 65.1202 195.458 62.9582 198.46 60.7961C201.463 58.6341 204.466 56.4907 207.469 54.3473C209.11 53.1731 210.751 51.9803 212.392 50.8061C212.635 50.6383 212.859 50.4333 213.194 50.1537C212.859 50.1351 212.691 50.1165 212.504 50.1165C201.239 50.0978 189.956 50.0978 178.691 50.0792C176.509 50.0792 174.327 49.9301 172.2 49.2964C169.888 48.5881 168.247 47.0971 166.997 45.1028C165.412 42.5867 164.405 39.8096 163.416 37.0138C162.502 34.4045 161.588 31.8138 160.693 29.2045C159.667 26.2224 158.679 23.2402 157.672 20.2581C156.59 17.1083 155.49 13.9584 154.389 10.8086C154.352 10.8459 154.315 10.8459 154.296 10.8645Z" fill="#F57F20"/>
<path d="M133.688 27.9559C133.799 33.771 128.857 38.5983 123.075 38.5983C117.2 38.5797 112.37 33.8456 112.407 27.9932C112.426 22.0103 116.977 17.3322 123.094 17.3135C129.137 17.2949 133.743 22.1408 133.688 27.9559Z" fill="#2D5DAB"/>
<mask id="path-11-outside-1_15326_26946" maskUnits="userSpaceOnUse" x="8" y="128.122" width="292" height="50" fill="black">
<rect fill="white" x="8" y="128.122" width="292" height="50"/>
<path d="M14.8672 135.45H38.2812V145.06H30.6172C30.5078 143.997 30.2188 143.278 29.75 142.903C29.2812 142.513 28.3203 142.317 26.8672 142.317H23.0234V148.763C24.1484 148.341 25.1953 148.036 26.1641 147.849C27.1328 147.646 28.1172 147.544 29.1172 147.544C32.6328 147.544 35.1953 148.505 36.8047 150.427C38.4297 152.349 39.2422 155.442 39.2422 159.708C39.2422 163.942 38.2812 167.036 36.3594 168.989C34.4531 170.927 31.4297 171.896 27.2891 171.896C24.8828 171.896 22.6172 171.614 20.4922 171.052C18.3672 170.474 16.4922 169.646 14.8672 168.567V159.403H22.9766V159.591C22.9766 161.388 23.3047 162.7 23.9609 163.528C24.6328 164.341 25.6953 164.747 27.1484 164.747C28.5234 164.747 29.5078 164.325 30.1016 163.481C30.6953 162.622 30.9922 161.185 30.9922 159.169C30.9922 157.263 30.6953 155.896 30.1016 155.067C29.5078 154.224 28.5547 153.802 27.2422 153.802C26.4766 153.802 25.8125 153.935 25.25 154.2C24.6875 154.45 24.1719 154.856 23.7031 155.419H14.8672V135.45ZM149.609 152.396H152.703C154.469 152.396 155.641 152.075 156.219 151.435C156.812 150.794 157.109 149.599 157.109 147.849C157.109 146.005 156.805 144.747 156.195 144.075C155.586 143.388 154.438 143.044 152.75 143.044H149.609V152.396ZM149.609 161.419C149.609 162.903 149.734 163.856 149.984 164.278C150.234 164.685 150.703 164.966 151.391 165.122V171.122H139.531V165.122C140.234 164.966 140.711 164.677 140.961 164.255C141.227 163.817 141.359 162.872 141.359 161.419V144.919C141.359 143.466 141.227 142.528 140.961 142.106C140.711 141.669 140.234 141.372 139.531 141.216V135.45H153.664C157.82 135.45 160.789 136.333 162.57 138.099C164.367 139.864 165.266 142.81 165.266 146.935C165.266 151.997 164.422 155.458 162.734 157.317C161.047 159.161 158.023 160.083 153.664 160.083H149.609V161.419ZM180.688 158.794C178.062 159.841 176.352 160.7 175.555 161.372C174.758 162.028 174.359 162.817 174.359 163.739C174.359 164.38 174.547 164.896 174.922 165.286C175.297 165.661 175.812 165.849 176.469 165.849C177.109 165.849 177.797 165.63 178.531 165.192C179.266 164.739 179.984 164.106 180.688 163.294V158.794ZM180.969 168.38C179.859 169.411 178.641 170.2 177.312 170.747C176 171.278 174.656 171.544 173.281 171.544C171.203 171.544 169.555 170.896 168.336 169.599C167.133 168.302 166.531 166.536 166.531 164.302C166.531 162.005 167.398 160.146 169.133 158.724C170.867 157.302 174.719 155.661 180.688 153.802V152.302C180.688 151.286 180.477 150.544 180.055 150.075C179.633 149.606 178.961 149.372 178.039 149.372C177.133 149.372 176.461 149.622 176.023 150.122C175.586 150.622 175.367 151.38 175.367 152.396V153.216H168.008V147.169C169.758 146.278 171.516 145.599 173.281 145.13C175.047 144.661 176.766 144.427 178.438 144.427C181.844 144.427 184.289 145.114 185.773 146.489C187.273 147.864 188.023 150.122 188.023 153.263V162.005C188.023 163.489 188.141 164.466 188.375 164.935C188.625 165.388 189.086 165.677 189.758 165.802V171.122H180.969V168.38ZM202.508 162.239C202.508 163.567 202.625 164.45 202.859 164.888C203.094 165.325 203.523 165.63 204.148 165.802V171.122H193.578V165.802C194.188 165.708 194.609 165.396 194.844 164.864C195.094 164.317 195.219 163.302 195.219 161.817V153.497C195.219 152.294 195.102 151.497 194.867 151.106C194.648 150.7 194.219 150.38 193.578 150.146V144.919H202.18V147.075C202.711 146.325 203.328 145.763 204.031 145.388C204.75 145.013 205.539 144.825 206.398 144.825C206.633 144.825 206.961 144.849 207.383 144.896C207.43 144.911 207.469 144.919 207.5 144.919V152.583C207.438 152.583 207.344 152.575 207.219 152.56C206.781 152.513 206.477 152.489 206.305 152.489C204.977 152.489 204.008 152.903 203.398 153.731C202.805 154.544 202.508 155.849 202.508 157.646V162.239ZM219.008 137.817V144.919H222.125V150.685H219.008V160.95C219.008 162.81 219.203 164.067 219.594 164.724C220 165.38 220.727 165.708 221.773 165.708H222.125V171.028C221.484 171.216 220.867 171.356 220.273 171.45C219.695 171.544 219.156 171.591 218.656 171.591C216.141 171.591 214.344 170.88 213.266 169.458C212.188 168.021 211.648 165.372 211.648 161.513V150.685H210.312V144.919H211.648V140.067L219.008 137.817ZM235.367 162.239C235.367 163.567 235.484 164.45 235.719 164.888C235.953 165.325 236.383 165.63 237.008 165.802V171.122H226.438V165.802C227.047 165.708 227.469 165.396 227.703 164.864C227.953 164.317 228.078 163.302 228.078 161.817V153.497C228.078 152.294 227.961 151.497 227.727 151.106C227.508 150.7 227.078 150.38 226.438 150.146V144.919H235.367V146.536C236.367 145.958 237.367 145.521 238.367 145.224C239.367 144.927 240.336 144.778 241.273 144.778C244.102 144.778 246.117 145.474 247.32 146.864C248.539 148.239 249.148 150.614 249.148 153.989V162.146C249.148 163.614 249.273 164.583 249.523 165.052C249.773 165.505 250.219 165.755 250.859 165.802L250.883 171.122H242.562C242.297 170.372 242.102 169.45 241.977 168.356C241.867 167.263 241.812 165.544 241.812 163.2V154.997C241.812 153.231 241.555 151.981 241.039 151.247C240.523 150.513 239.672 150.146 238.484 150.146C237.984 150.146 237.469 150.255 236.938 150.474C236.422 150.677 235.898 150.981 235.367 151.388V162.239ZM262.25 154.177V154.903H268.578V153.849C268.578 152.442 268.32 151.411 267.805 150.755C267.289 150.099 266.492 149.771 265.414 149.771C264.305 149.771 263.5 150.122 263 150.825C262.5 151.513 262.25 152.63 262.25 154.177ZM262.25 161.817C262.25 163.38 262.492 164.497 262.977 165.169C263.477 165.841 264.289 166.177 265.414 166.177C266.461 166.177 267.25 165.864 267.781 165.239C268.312 164.614 268.578 163.677 268.578 162.427V162.286H275.82V168.521C274.32 169.505 272.68 170.255 270.898 170.771C269.117 171.286 267.289 171.544 265.414 171.544C261.711 171.544 259.023 170.817 257.352 169.364C255.68 167.896 254.844 165.521 254.844 162.239V153.802C254.844 150.505 255.68 148.122 257.352 146.653C259.039 145.169 261.727 144.427 265.414 144.427C269.039 144.427 271.68 145.177 273.336 146.677C274.992 148.161 275.82 150.536 275.82 153.802V159.544H262.25V161.817ZM288.945 162.239C288.945 163.567 289.062 164.45 289.297 164.888C289.531 165.325 289.961 165.63 290.586 165.802V171.122H280.016V165.802C280.625 165.708 281.047 165.396 281.281 164.864C281.531 164.317 281.656 163.302 281.656 161.817V153.497C281.656 152.294 281.539 151.497 281.305 151.106C281.086 150.7 280.656 150.38 280.016 150.146V144.919H288.617V147.075C289.148 146.325 289.766 145.763 290.469 145.388C291.188 145.013 291.977 144.825 292.836 144.825C293.07 144.825 293.398 144.849 293.82 144.896C293.867 144.911 293.906 144.919 293.938 144.919V152.583C293.875 152.583 293.781 152.575 293.656 152.56C293.219 152.513 292.914 152.489 292.742 152.489C291.414 152.489 290.445 152.903 289.836 153.731C289.242 154.544 288.945 155.849 288.945 157.646V162.239Z"/>
<path d="M43.8359 167.724V158.794H51.8516V159.497C51.8516 161.231 52.1875 162.505 52.8594 163.317C53.5469 164.13 54.6016 164.536 56.0234 164.536C57.1328 164.536 58.0312 164.192 58.7188 163.505C59.4062 162.817 59.75 161.919 59.75 160.81C59.75 159.731 59.3828 158.825 58.6484 158.091C57.9297 157.356 56.6562 156.646 54.8281 155.958C54.4219 155.802 53.8359 155.583 53.0703 155.302C50.2891 154.302 48.3125 153.349 47.1406 152.442C45.9375 151.505 45.0547 150.458 44.4922 149.302C43.9453 148.13 43.6719 146.731 43.6719 145.106C43.6719 141.903 44.75 139.38 46.9062 137.536C49.0781 135.677 52.0156 134.747 55.7188 134.747C57.8906 134.747 59.9375 135.067 61.8594 135.708C63.7969 136.349 65.6406 137.325 67.3906 138.638V147.028H59.5156V146.396C59.5156 144.864 59.1875 143.7 58.5312 142.903C57.875 142.106 56.9219 141.708 55.6719 141.708C54.5 141.708 53.5625 142.013 52.8594 142.622C52.1562 143.216 51.8047 144.013 51.8047 145.013C51.8047 145.95 52.1953 146.739 52.9766 147.38C53.7734 148.005 55.5859 148.802 58.4141 149.771C62.1328 151.036 64.6641 152.458 66.0078 154.036C67.3516 155.614 68.0234 157.825 68.0234 160.669C68.0234 164.06 66.9375 166.771 64.7656 168.802C62.6094 170.833 59.6953 171.849 56.0234 171.849C53.6953 171.849 51.4922 171.497 49.4141 170.794C47.3516 170.091 45.4922 169.067 43.8359 167.724ZM86.0469 158.794C83.4219 159.841 81.7109 160.7 80.9141 161.372C80.1172 162.028 79.7188 162.817 79.7188 163.739C79.7188 164.38 79.9062 164.896 80.2812 165.286C80.6562 165.661 81.1719 165.849 81.8281 165.849C82.4688 165.849 83.1562 165.63 83.8906 165.192C84.625 164.739 85.3438 164.106 86.0469 163.294V158.794ZM86.3281 168.38C85.2188 169.411 84 170.2 82.6719 170.747C81.3594 171.278 80.0156 171.544 78.6406 171.544C76.5625 171.544 74.9141 170.896 73.6953 169.599C72.4922 168.302 71.8906 166.536 71.8906 164.302C71.8906 162.005 72.7578 160.146 74.4922 158.724C76.2266 157.302 80.0781 155.661 86.0469 153.802V152.302C86.0469 151.286 85.8359 150.544 85.4141 150.075C84.9922 149.606 84.3203 149.372 83.3984 149.372C82.4922 149.372 81.8203 149.622 81.3828 150.122C80.9453 150.622 80.7266 151.38 80.7266 152.396V153.216H73.3672V147.169C75.1172 146.278 76.875 145.599 78.6406 145.13C80.4062 144.661 82.125 144.427 83.7969 144.427C87.2031 144.427 89.6484 145.114 91.1328 146.489C92.6328 147.864 93.3828 150.122 93.3828 153.263V162.005C93.3828 163.489 93.5 164.466 93.7344 164.935C93.9844 165.388 94.4453 165.677 95.1172 165.802V171.122H86.3281V168.38ZM112.672 154.177C112.672 152.599 112.438 151.474 111.969 150.802C111.5 150.114 110.742 149.771 109.695 149.771C108.633 149.771 107.859 150.114 107.375 150.802C106.906 151.489 106.672 152.614 106.672 154.177V161.817C106.672 163.38 106.906 164.497 107.375 165.169C107.844 165.841 108.617 166.177 109.695 166.177C110.742 166.177 111.5 165.841 111.969 165.169C112.438 164.497 112.672 163.38 112.672 161.817V154.177ZM120.195 153.802V162.239C120.195 165.521 119.367 167.896 117.711 169.364C116.055 170.817 113.383 171.544 109.695 171.544C105.992 171.544 103.305 170.817 101.633 169.364C99.9609 167.896 99.125 165.521 99.125 162.239V153.802C99.125 150.505 99.9609 148.122 101.633 146.653C103.32 145.169 106.008 144.427 109.695 144.427C113.383 144.427 116.055 145.169 117.711 146.653C119.367 148.122 120.195 150.505 120.195 153.802Z"/>
</mask>
<path d="M14.8672 135.45H38.2812V145.06H30.6172C30.5078 143.997 30.2188 143.278 29.75 142.903C29.2812 142.513 28.3203 142.317 26.8672 142.317H23.0234V148.763C24.1484 148.341 25.1953 148.036 26.1641 147.849C27.1328 147.646 28.1172 147.544 29.1172 147.544C32.6328 147.544 35.1953 148.505 36.8047 150.427C38.4297 152.349 39.2422 155.442 39.2422 159.708C39.2422 163.942 38.2812 167.036 36.3594 168.989C34.4531 170.927 31.4297 171.896 27.2891 171.896C24.8828 171.896 22.6172 171.614 20.4922 171.052C18.3672 170.474 16.4922 169.646 14.8672 168.567V159.403H22.9766V159.591C22.9766 161.388 23.3047 162.7 23.9609 163.528C24.6328 164.341 25.6953 164.747 27.1484 164.747C28.5234 164.747 29.5078 164.325 30.1016 163.481C30.6953 162.622 30.9922 161.185 30.9922 159.169C30.9922 157.263 30.6953 155.896 30.1016 155.067C29.5078 154.224 28.5547 153.802 27.2422 153.802C26.4766 153.802 25.8125 153.935 25.25 154.2C24.6875 154.45 24.1719 154.856 23.7031 155.419H14.8672V135.45ZM149.609 152.396H152.703C154.469 152.396 155.641 152.075 156.219 151.435C156.812 150.794 157.109 149.599 157.109 147.849C157.109 146.005 156.805 144.747 156.195 144.075C155.586 143.388 154.438 143.044 152.75 143.044H149.609V152.396ZM149.609 161.419C149.609 162.903 149.734 163.856 149.984 164.278C150.234 164.685 150.703 164.966 151.391 165.122V171.122H139.531V165.122C140.234 164.966 140.711 164.677 140.961 164.255C141.227 163.817 141.359 162.872 141.359 161.419V144.919C141.359 143.466 141.227 142.528 140.961 142.106C140.711 141.669 140.234 141.372 139.531 141.216V135.45H153.664C157.82 135.45 160.789 136.333 162.57 138.099C164.367 139.864 165.266 142.81 165.266 146.935C165.266 151.997 164.422 155.458 162.734 157.317C161.047 159.161 158.023 160.083 153.664 160.083H149.609V161.419ZM180.688 158.794C178.062 159.841 176.352 160.7 175.555 161.372C174.758 162.028 174.359 162.817 174.359 163.739C174.359 164.38 174.547 164.896 174.922 165.286C175.297 165.661 175.812 165.849 176.469 165.849C177.109 165.849 177.797 165.63 178.531 165.192C179.266 164.739 179.984 164.106 180.688 163.294V158.794ZM180.969 168.38C179.859 169.411 178.641 170.2 177.312 170.747C176 171.278 174.656 171.544 173.281 171.544C171.203 171.544 169.555 170.896 168.336 169.599C167.133 168.302 166.531 166.536 166.531 164.302C166.531 162.005 167.398 160.146 169.133 158.724C170.867 157.302 174.719 155.661 180.688 153.802V152.302C180.688 151.286 180.477 150.544 180.055 150.075C179.633 149.606 178.961 149.372 178.039 149.372C177.133 149.372 176.461 149.622 176.023 150.122C175.586 150.622 175.367 151.38 175.367 152.396V153.216H168.008V147.169C169.758 146.278 171.516 145.599 173.281 145.13C175.047 144.661 176.766 144.427 178.438 144.427C181.844 144.427 184.289 145.114 185.773 146.489C187.273 147.864 188.023 150.122 188.023 153.263V162.005C188.023 163.489 188.141 164.466 188.375 164.935C188.625 165.388 189.086 165.677 189.758 165.802V171.122H180.969V168.38ZM202.508 162.239C202.508 163.567 202.625 164.45 202.859 164.888C203.094 165.325 203.523 165.63 204.148 165.802V171.122H193.578V165.802C194.188 165.708 194.609 165.396 194.844 164.864C195.094 164.317 195.219 163.302 195.219 161.817V153.497C195.219 152.294 195.102 151.497 194.867 151.106C194.648 150.7 194.219 150.38 193.578 150.146V144.919H202.18V147.075C202.711 146.325 203.328 145.763 204.031 145.388C204.75 145.013 205.539 144.825 206.398 144.825C206.633 144.825 206.961 144.849 207.383 144.896C207.43 144.911 207.469 144.919 207.5 144.919V152.583C207.438 152.583 207.344 152.575 207.219 152.56C206.781 152.513 206.477 152.489 206.305 152.489C204.977 152.489 204.008 152.903 203.398 153.731C202.805 154.544 202.508 155.849 202.508 157.646V162.239ZM219.008 137.817V144.919H222.125V150.685H219.008V160.95C219.008 162.81 219.203 164.067 219.594 164.724C220 165.38 220.727 165.708 221.773 165.708H222.125V171.028C221.484 171.216 220.867 171.356 220.273 171.45C219.695 171.544 219.156 171.591 218.656 171.591C216.141 171.591 214.344 170.88 213.266 169.458C212.188 168.021 211.648 165.372 211.648 161.513V150.685H210.312V144.919H211.648V140.067L219.008 137.817ZM235.367 162.239C235.367 163.567 235.484 164.45 235.719 164.888C235.953 165.325 236.383 165.63 237.008 165.802V171.122H226.438V165.802C227.047 165.708 227.469 165.396 227.703 164.864C227.953 164.317 228.078 163.302 228.078 161.817V153.497C228.078 152.294 227.961 151.497 227.727 151.106C227.508 150.7 227.078 150.38 226.438 150.146V144.919H235.367V146.536C236.367 145.958 237.367 145.521 238.367 145.224C239.367 144.927 240.336 144.778 241.273 144.778C244.102 144.778 246.117 145.474 247.32 146.864C248.539 148.239 249.148 150.614 249.148 153.989V162.146C249.148 163.614 249.273 164.583 249.523 165.052C249.773 165.505 250.219 165.755 250.859 165.802L250.883 171.122H242.562C242.297 170.372 242.102 169.45 241.977 168.356C241.867 167.263 241.812 165.544 241.812 163.2V154.997C241.812 153.231 241.555 151.981 241.039 151.247C240.523 150.513 239.672 150.146 238.484 150.146C237.984 150.146 237.469 150.255 236.938 150.474C236.422 150.677 235.898 150.981 235.367 151.388V162.239ZM262.25 154.177V154.903H268.578V153.849C268.578 152.442 268.32 151.411 267.805 150.755C267.289 150.099 266.492 149.771 265.414 149.771C264.305 149.771 263.5 150.122 263 150.825C262.5 151.513 262.25 152.63 262.25 154.177ZM262.25 161.817C262.25 163.38 262.492 164.497 262.977 165.169C263.477 165.841 264.289 166.177 265.414 166.177C266.461 166.177 267.25 165.864 267.781 165.239C268.312 164.614 268.578 163.677 268.578 162.427V162.286H275.82V168.521C274.32 169.505 272.68 170.255 270.898 170.771C269.117 171.286 267.289 171.544 265.414 171.544C261.711 171.544 259.023 170.817 257.352 169.364C255.68 167.896 254.844 165.521 254.844 162.239V153.802C254.844 150.505 255.68 148.122 257.352 146.653C259.039 145.169 261.727 144.427 265.414 144.427C269.039 144.427 271.68 145.177 273.336 146.677C274.992 148.161 275.82 150.536 275.82 153.802V159.544H262.25V161.817ZM288.945 162.239C288.945 163.567 289.062 164.45 289.297 164.888C289.531 165.325 289.961 165.63 290.586 165.802V171.122H280.016V165.802C280.625 165.708 281.047 165.396 281.281 164.864C281.531 164.317 281.656 163.302 281.656 161.817V153.497C281.656 152.294 281.539 151.497 281.305 151.106C281.086 150.7 280.656 150.38 280.016 150.146V144.919H288.617V147.075C289.148 146.325 289.766 145.763 290.469 145.388C291.188 145.013 291.977 144.825 292.836 144.825C293.07 144.825 293.398 144.849 293.82 144.896C293.867 144.911 293.906 144.919 293.938 144.919V152.583C293.875 152.583 293.781 152.575 293.656 152.56C293.219 152.513 292.914 152.489 292.742 152.489C291.414 152.489 290.445 152.903 289.836 153.731C289.242 154.544 288.945 155.849 288.945 157.646V162.239Z" fill="#2D5DAB"/>
<path d="M43.8359 167.724V158.794H51.8516V159.497C51.8516 161.231 52.1875 162.505 52.8594 163.317C53.5469 164.13 54.6016 164.536 56.0234 164.536C57.1328 164.536 58.0312 164.192 58.7188 163.505C59.4062 162.817 59.75 161.919 59.75 160.81C59.75 159.731 59.3828 158.825 58.6484 158.091C57.9297 157.356 56.6562 156.646 54.8281 155.958C54.4219 155.802 53.8359 155.583 53.0703 155.302C50.2891 154.302 48.3125 153.349 47.1406 152.442C45.9375 151.505 45.0547 150.458 44.4922 149.302C43.9453 148.13 43.6719 146.731 43.6719 145.106C43.6719 141.903 44.75 139.38 46.9062 137.536C49.0781 135.677 52.0156 134.747 55.7188 134.747C57.8906 134.747 59.9375 135.067 61.8594 135.708C63.7969 136.349 65.6406 137.325 67.3906 138.638V147.028H59.5156V146.396C59.5156 144.864 59.1875 143.7 58.5312 142.903C57.875 142.106 56.9219 141.708 55.6719 141.708C54.5 141.708 53.5625 142.013 52.8594 142.622C52.1562 143.216 51.8047 144.013 51.8047 145.013C51.8047 145.95 52.1953 146.739 52.9766 147.38C53.7734 148.005 55.5859 148.802 58.4141 149.771C62.1328 151.036 64.6641 152.458 66.0078 154.036C67.3516 155.614 68.0234 157.825 68.0234 160.669C68.0234 164.06 66.9375 166.771 64.7656 168.802C62.6094 170.833 59.6953 171.849 56.0234 171.849C53.6953 171.849 51.4922 171.497 49.4141 170.794C47.3516 170.091 45.4922 169.067 43.8359 167.724ZM86.0469 158.794C83.4219 159.841 81.7109 160.7 80.9141 161.372C80.1172 162.028 79.7188 162.817 79.7188 163.739C79.7188 164.38 79.9062 164.896 80.2812 165.286C80.6562 165.661 81.1719 165.849 81.8281 165.849C82.4688 165.849 83.1562 165.63 83.8906 165.192C84.625 164.739 85.3438 164.106 86.0469 163.294V158.794ZM86.3281 168.38C85.2188 169.411 84 170.2 82.6719 170.747C81.3594 171.278 80.0156 171.544 78.6406 171.544C76.5625 171.544 74.9141 170.896 73.6953 169.599C72.4922 168.302 71.8906 166.536 71.8906 164.302C71.8906 162.005 72.7578 160.146 74.4922 158.724C76.2266 157.302 80.0781 155.661 86.0469 153.802V152.302C86.0469 151.286 85.8359 150.544 85.4141 150.075C84.9922 149.606 84.3203 149.372 83.3984 149.372C82.4922 149.372 81.8203 149.622 81.3828 150.122C80.9453 150.622 80.7266 151.38 80.7266 152.396V153.216H73.3672V147.169C75.1172 146.278 76.875 145.599 78.6406 145.13C80.4062 144.661 82.125 144.427 83.7969 144.427C87.2031 144.427 89.6484 145.114 91.1328 146.489C92.6328 147.864 93.3828 150.122 93.3828 153.263V162.005C93.3828 163.489 93.5 164.466 93.7344 164.935C93.9844 165.388 94.4453 165.677 95.1172 165.802V171.122H86.3281V168.38ZM112.672 154.177C112.672 152.599 112.438 151.474 111.969 150.802C111.5 150.114 110.742 149.771 109.695 149.771C108.633 149.771 107.859 150.114 107.375 150.802C106.906 151.489 106.672 152.614 106.672 154.177V161.817C106.672 163.38 106.906 164.497 107.375 165.169C107.844 165.841 108.617 166.177 109.695 166.177C110.742 166.177 111.5 165.841 111.969 165.169C112.438 164.497 112.672 163.38 112.672 161.817V154.177ZM120.195 153.802V162.239C120.195 165.521 119.367 167.896 117.711 169.364C116.055 170.817 113.383 171.544 109.695 171.544C105.992 171.544 103.305 170.817 101.633 169.364C99.9609 167.896 99.125 165.521 99.125 162.239V153.802C99.125 150.505 99.9609 148.122 101.633 146.653C103.32 145.169 106.008 144.427 109.695 144.427C113.383 144.427 116.055 145.169 117.711 146.653C119.367 148.122 120.195 150.505 120.195 153.802Z" fill="#F57F20"/>
<path d="M14.8672 135.45V129.45H8.86719V135.45H14.8672ZM38.2812 135.45H44.2812V129.45H38.2812V135.45ZM38.2812 145.06V151.06H44.2812V145.06H38.2812ZM30.6172 145.06L24.6487 145.674L25.2031 151.06H30.6172V145.06ZM29.75 142.903L25.9089 147.513L25.955 147.551L26.0018 147.589L29.75 142.903ZM23.0234 142.317V136.317H17.0234V142.317H23.0234ZM23.0234 148.763H17.0234V157.421L25.1302 154.381L23.0234 148.763ZM26.1641 147.849L27.3042 153.739L27.3498 153.73L27.3954 153.721L26.1641 147.849ZM36.8047 150.427L32.2046 154.279L32.2137 154.29L32.223 154.301L36.8047 150.427ZM36.3594 168.989L32.0827 164.781L32.0824 164.781L36.3594 168.989ZM20.4922 171.052L18.9171 176.841L18.9369 176.847L18.9568 176.852L20.4922 171.052ZM14.8672 168.567H8.86719V171.787L11.5501 173.567L14.8672 168.567ZM14.8672 159.403V153.403H8.86719V159.403H14.8672ZM22.9766 159.403H28.9766V153.403H22.9766V159.403ZM23.9609 163.528L19.2585 167.255L19.2973 167.304L19.3371 167.352L23.9609 163.528ZM30.1016 163.481L35.0084 166.934L35.0233 166.913L35.0379 166.892L30.1016 163.481ZM30.1016 155.067L25.1947 158.52L25.21 158.542L25.2254 158.564L30.1016 155.067ZM25.25 154.2L27.6868 159.683L27.7498 159.655L27.812 159.626L25.25 154.2ZM23.7031 155.419V161.419H26.5134L28.3125 159.26L23.7031 155.419ZM14.8672 155.419H8.86719V161.419H14.8672V155.419ZM14.8672 135.45V141.45H38.2812V135.45V129.45H14.8672V135.45ZM38.2812 135.45H32.2812V145.06H38.2812H44.2812V135.45H38.2812ZM38.2812 145.06V139.06H30.6172V145.06V151.06H38.2812V145.06ZM30.6172 145.06L36.5856 144.445C36.4297 142.93 35.9025 140.142 33.4982 138.218L29.75 142.903L26.0018 147.589C25.2281 146.97 24.8833 146.29 24.7517 145.962C24.6249 145.647 24.6314 145.506 24.6487 145.674L30.6172 145.06ZM29.75 142.903L33.5911 138.294C32.2651 137.189 30.7976 136.772 29.8728 136.584C28.8601 136.378 27.8229 136.317 26.8672 136.317V142.317V148.317C27.3646 148.317 27.5345 148.354 27.4827 148.344C27.4468 148.336 27.2795 148.301 27.0308 148.199C26.786 148.098 26.3683 147.896 25.9089 147.513L29.75 142.903ZM26.8672 142.317V136.317H23.0234V142.317V148.317H26.8672V142.317ZM23.0234 142.317H17.0234V148.763H23.0234H29.0234V142.317H23.0234ZM23.0234 148.763L25.1302 154.381C26.0062 154.052 26.7265 153.851 27.3042 153.739L26.1641 147.849L25.0239 141.958C23.6641 142.221 22.2907 142.629 20.9167 143.145L23.0234 148.763ZM26.1641 147.849L27.3954 153.721C27.955 153.604 28.5266 153.544 29.1172 153.544V147.544V141.544C27.7077 141.544 26.3106 141.687 24.9328 141.976L26.1641 147.849ZM29.1172 147.544V153.544C31.6033 153.544 32.1403 154.202 32.2046 154.279L36.8047 150.427L41.4048 146.575C38.2504 142.808 33.6624 141.544 29.1172 141.544V147.544ZM36.8047 150.427L32.223 154.301C32.4817 154.607 33.2422 155.957 33.2422 159.708H39.2422H45.2422C45.2422 154.928 44.3777 150.09 41.3864 146.553L36.8047 150.427ZM39.2422 159.708H33.2422C33.2422 163.204 32.4269 164.431 32.0827 164.781L36.3594 168.989L40.6361 173.198C44.1356 169.641 45.2422 164.681 45.2422 159.708H39.2422ZM36.3594 168.989L32.0824 164.781C31.7762 165.092 30.6502 165.896 27.2891 165.896V171.896V177.896C32.2092 177.896 37.1301 176.761 40.6364 173.197L36.3594 168.989ZM27.2891 171.896V165.896C25.3526 165.896 23.6067 165.67 22.0275 165.252L20.4922 171.052L18.9568 176.852C21.6277 177.559 24.4131 177.896 27.2891 177.896V171.896ZM20.4922 171.052L22.0673 165.262C20.4825 164.831 19.2104 164.248 18.1843 163.568L14.8672 168.567L11.5501 173.567C13.774 175.043 16.2519 176.116 18.9171 176.841L20.4922 171.052ZM14.8672 168.567H20.8672V159.403H14.8672H8.86719V168.567H14.8672ZM14.8672 159.403V165.403H22.9766V159.403V153.403H14.8672V159.403ZM22.9766 159.403H16.9766V159.591H22.9766H28.9766V159.403H22.9766ZM22.9766 159.591H16.9766C16.9766 161.88 17.3499 164.846 19.2585 167.255L23.9609 163.528L28.6634 159.802C28.9919 160.216 29.0565 160.519 29.0435 160.468C29.0388 160.449 29.021 160.37 29.005 160.218C28.989 160.067 28.9766 159.86 28.9766 159.591H22.9766ZM23.9609 163.528L19.3371 167.352C21.536 170.011 24.6192 170.747 27.1484 170.747V164.747V158.747C26.9602 158.747 27.0912 158.718 27.4045 158.838C27.7614 158.975 28.2095 159.251 28.5848 159.705L23.9609 163.528ZM27.1484 164.747V170.747C29.7631 170.747 32.9352 169.881 35.0084 166.934L30.1016 163.481L25.1947 160.028C25.5632 159.505 26.0649 159.126 26.5545 158.916C26.9887 158.73 27.2446 158.747 27.1484 158.747V164.747ZM30.1016 163.481L35.0379 166.892C36.7192 164.459 36.9922 161.447 36.9922 159.169H30.9922H24.9922C24.9922 159.908 24.9354 160.342 24.8935 160.545C24.8743 160.639 24.8679 160.635 24.897 160.559C24.9262 160.484 25.0039 160.304 25.1652 160.071L30.1016 163.481ZM30.9922 159.169H36.9922C36.9922 156.947 36.7055 153.981 34.9777 151.571L30.1016 155.067L25.2254 158.564C25.0574 158.329 24.9701 158.141 24.9313 158.045C24.8929 157.95 24.8921 157.922 24.9062 157.987C24.9199 158.05 24.9425 158.178 24.961 158.382C24.9795 158.586 24.9922 158.845 24.9922 159.169H30.9922ZM30.1016 155.067L35.0084 151.614C32.9883 148.744 29.9145 147.802 27.2422 147.802V153.802V159.802C27.2717 159.802 26.9721 159.808 26.5129 159.605C26.005 159.38 25.531 158.998 25.1947 158.52L30.1016 155.067ZM27.2422 153.802V147.802C25.7906 147.802 24.2146 148.054 22.688 148.775L25.25 154.2L27.812 159.626C27.4104 159.815 27.1625 159.802 27.2422 159.802V153.802ZM25.25 154.2L22.8132 148.717C21.2654 149.405 20.0407 150.442 19.0938 151.578L23.7031 155.419L28.3125 159.26C28.3031 159.271 28.1096 159.495 27.6868 159.683L25.25 154.2ZM23.7031 155.419V149.419H14.8672V155.419V161.419H23.7031V155.419ZM14.8672 155.419H20.8672V135.45H14.8672H8.86719V155.419H14.8672ZM43.8359 167.724H37.8359V170.582L40.0557 172.383L43.8359 167.724ZM43.8359 158.794V152.794H37.8359V158.794H43.8359ZM51.8516 158.794H57.8516V152.794H51.8516V158.794ZM52.8594 163.317L48.2355 167.141L48.2571 167.167L48.2791 167.193L52.8594 163.317ZM58.6484 158.091L54.3604 162.288L54.383 162.311L54.4058 162.333L58.6484 158.091ZM54.8281 155.958L52.6743 161.558L52.6952 161.566L52.7161 161.574L54.8281 155.958ZM53.0703 155.302L55.1392 149.67L55.1198 149.663L55.1004 149.656L53.0703 155.302ZM47.1406 152.442L43.4527 157.175L43.4614 157.182L43.4701 157.189L47.1406 152.442ZM44.4922 149.302L39.0551 151.839L39.0756 151.883L39.0968 151.927L44.4922 149.302ZM46.9062 137.536L50.8056 142.096L50.8083 142.094L46.9062 137.536ZM61.8594 135.708L59.962 141.4L59.9689 141.402L59.9758 141.405L61.8594 135.708ZM67.3906 138.638H73.3906V135.638L70.9906 133.838L67.3906 138.638ZM67.3906 147.028V153.028H73.3906V147.028H67.3906ZM59.5156 147.028H53.5156V153.028H59.5156V147.028ZM52.8594 142.622L56.7305 147.206L56.7599 147.181L56.789 147.156L52.8594 142.622ZM52.9766 147.38L49.1721 152.019L49.2225 152.061L49.2737 152.101L52.9766 147.38ZM58.4141 149.771L56.4697 155.447L56.4809 155.451L58.4141 149.771ZM64.7656 168.802L60.6672 164.42L60.6593 164.427L60.6515 164.434L64.7656 168.802ZM49.4141 170.794L47.478 176.473L47.4911 176.477L49.4141 170.794ZM43.8359 167.724H49.8359V158.794H43.8359H37.8359V167.724H43.8359ZM43.8359 158.794V164.794H51.8516V158.794V152.794H43.8359V158.794ZM51.8516 158.794H45.8516V159.497H51.8516H57.8516V158.794H51.8516ZM51.8516 159.497H45.8516C45.8516 161.793 46.2581 164.75 48.2355 167.141L52.8594 163.317L57.4832 159.494C57.8215 159.903 57.905 160.222 57.905 160.222C57.906 160.226 57.8916 160.172 57.8775 160.045C57.8634 159.92 57.8516 159.74 57.8516 159.497H51.8516ZM52.8594 163.317L48.2791 167.193C50.4584 169.769 53.4657 170.536 56.0234 170.536V164.536V158.536C55.8672 158.536 56.0098 158.512 56.3227 158.632C56.675 158.768 57.0926 159.032 57.4397 159.442L52.8594 163.317ZM56.0234 164.536V170.536C58.4802 170.536 60.9872 169.722 62.9614 167.748L58.7188 163.505L54.4761 159.262C54.7219 159.016 55.0384 158.807 55.3852 158.674C55.7169 158.548 55.956 158.536 56.0234 158.536V164.536ZM58.7188 163.505L62.9614 167.748C64.9356 165.773 65.75 163.266 65.75 160.81H59.75H53.75C53.75 160.742 53.7615 160.503 53.8884 160.171C54.0211 159.825 54.2303 159.508 54.4761 159.262L58.7188 163.505ZM59.75 160.81H65.75C65.75 158.208 64.7976 155.755 62.8911 153.848L58.6484 158.091L54.4058 162.333C54.2406 162.168 54.0503 161.912 53.9137 161.574C53.7789 161.242 53.75 160.963 53.75 160.81H59.75ZM58.6484 158.091L62.9365 153.894C61.272 152.193 58.9799 151.109 56.9401 150.342L54.8281 155.958L52.7161 161.574C53.4377 161.845 53.9245 162.075 54.2295 162.246C54.5562 162.428 54.5325 162.463 54.3604 162.288L58.6484 158.091ZM54.8281 155.958L56.982 150.358C56.5329 150.185 55.9133 149.954 55.1392 149.67L53.0703 155.302L51.0014 160.934C51.7585 161.212 52.3108 161.418 52.6743 161.558L54.8281 155.958ZM53.0703 155.302L55.1004 149.656C52.4442 148.701 51.2068 148.002 50.8111 147.696L47.1406 152.442L43.4701 157.189C45.4182 158.695 48.1339 159.903 51.0402 160.948L53.0703 155.302ZM47.1406 152.442L50.8285 147.71C50.2146 147.231 49.9813 146.87 49.8876 146.677L44.4922 149.302L39.0968 151.927C40.128 154.046 41.6604 155.779 43.4527 157.175L47.1406 152.442ZM44.4922 149.302L49.9293 146.764C49.8356 146.564 49.6719 146.073 49.6719 145.106H43.6719H37.6719C37.6719 147.39 38.055 149.696 39.0551 151.839L44.4922 149.302ZM43.6719 145.106H49.6719C49.6719 143.404 50.1636 142.645 50.8056 142.096L46.9062 137.536L43.0069 132.976C39.3364 136.115 37.6719 140.403 37.6719 145.106H43.6719ZM46.9062 137.536L50.8083 142.094C51.6052 141.412 53.0157 140.747 55.7188 140.747V134.747V128.747C51.0156 128.747 46.551 129.942 43.0042 132.978L46.9062 137.536ZM55.7188 134.747V140.747C57.2923 140.747 58.6946 140.978 59.962 141.4L61.8594 135.708L63.7567 130.016C61.1804 129.157 58.489 128.747 55.7188 128.747V134.747ZM61.8594 135.708L59.9758 141.405C61.2534 141.827 62.523 142.487 63.7906 143.438L67.3906 138.638L70.9906 133.838C68.7583 132.163 66.3403 130.87 63.743 130.011L61.8594 135.708ZM67.3906 138.638H61.3906V147.028H67.3906H73.3906V138.638H67.3906ZM67.3906 147.028V141.028H59.5156V147.028V153.028H67.3906V147.028ZM59.5156 147.028H65.5156V146.396H59.5156H53.5156V147.028H59.5156ZM59.5156 146.396H65.5156C65.5156 144.122 65.0435 141.373 63.1628 139.089L58.5312 142.903L53.8997 146.718C53.6165 146.374 53.5178 146.084 53.4946 146.002C53.4758 145.935 53.5156 146.041 53.5156 146.396H59.5156ZM58.5312 142.903L63.1628 139.089C61.126 136.616 58.298 135.708 55.6719 135.708V141.708V147.708C55.6653 147.708 55.4032 147.707 55.0101 147.543C54.5862 147.365 54.1929 147.074 53.8997 146.718L58.5312 142.903ZM55.6719 141.708V135.708C53.4429 135.708 50.9841 136.308 48.9298 138.088L52.8594 142.622L56.789 147.156C56.4986 147.408 56.1926 147.562 55.9444 147.643C55.7135 147.718 55.6003 147.708 55.6719 147.708V141.708ZM52.8594 142.622L48.9883 138.038C46.8079 139.879 45.8047 142.419 45.8047 145.013H51.8047H57.8047C57.8047 145.224 57.765 145.617 57.5579 146.087C57.3447 146.57 57.0353 146.949 56.7305 147.206L52.8594 142.622ZM51.8047 145.013H45.8047C45.8047 147.901 47.1244 150.34 49.1721 152.019L52.9766 147.38L56.781 142.74C56.9523 142.881 57.2404 143.172 57.4748 143.646C57.7155 144.132 57.8047 144.619 57.8047 145.013H51.8047ZM52.9766 147.38L49.2737 152.101C50.2841 152.893 51.5017 153.492 52.5187 153.939C53.6355 154.43 54.9677 154.932 56.4697 155.447L58.4141 149.771L60.3584 144.094C59.0323 143.64 58.0441 143.26 57.3484 142.954C57.003 142.802 56.7735 142.687 56.6356 142.612C56.4797 142.527 56.5268 142.539 56.6794 142.659L52.9766 147.38ZM58.4141 149.771L56.4809 155.451C59.9453 156.63 61.1827 157.624 61.4395 157.926L66.0078 154.036L70.5761 150.146C68.1454 147.292 64.3204 145.443 60.3472 144.09L58.4141 149.771ZM66.0078 154.036L61.4395 157.926C61.5656 158.074 62.0234 158.721 62.0234 160.669H68.0234H74.0234C74.0234 156.929 73.1375 153.155 70.5761 150.146L66.0078 154.036ZM68.0234 160.669H62.0234C62.0234 162.655 61.451 163.687 60.6672 164.42L64.7656 168.802L68.864 173.184C72.424 169.854 74.0234 165.465 74.0234 160.669H68.0234ZM64.7656 168.802L60.6515 164.434C59.8599 165.18 58.5505 165.849 56.0234 165.849V171.849V177.849C60.8402 177.849 65.3589 176.486 68.8798 173.169L64.7656 168.802ZM56.0234 171.849V165.849C54.3091 165.849 52.7587 165.591 51.337 165.11L49.4141 170.794L47.4911 176.477C50.2256 177.403 53.0816 177.849 56.0234 177.849V171.849ZM49.4141 170.794L51.3501 165.115C49.9429 164.635 48.7107 163.952 47.6162 163.064L43.8359 167.724L40.0557 172.383C42.2737 174.183 44.7602 175.546 47.478 176.473L49.4141 170.794ZM86.0469 158.794H92.0469V149.942L83.8243 153.221L86.0469 158.794ZM80.9141 161.372L84.7283 166.004L84.7551 165.982L84.7816 165.959L80.9141 161.372ZM80.2812 165.286L75.9529 169.441L75.9953 169.485L76.0386 169.529L80.2812 165.286ZM83.8906 165.192L86.9615 170.347L87.0016 170.323L87.0413 170.299L83.8906 165.192ZM86.0469 163.294L90.5839 167.22L92.0469 165.53V163.294H86.0469ZM86.3281 168.38H92.3281V154.61L82.243 163.985L86.3281 168.38ZM82.6719 170.747L84.923 176.309L84.9397 176.302L84.9564 176.295L82.6719 170.747ZM73.6953 169.599L69.2967 173.679L69.3098 173.693L69.323 173.708L73.6953 169.599ZM86.0469 153.802L87.8314 159.53L92.0469 158.217V153.802H86.0469ZM80.7266 153.216V159.216H86.7266V153.216H80.7266ZM73.3672 153.216H67.3672V159.216H73.3672V153.216ZM73.3672 147.169L70.6458 141.822L67.3672 143.49V147.169H73.3672ZM91.1328 146.489L87.0554 150.891L87.0669 150.902L87.0785 150.912L91.1328 146.489ZM93.7344 164.935L88.3678 167.618L88.4222 167.727L88.4809 167.833L93.7344 164.935ZM95.1172 165.802H101.117V160.815L96.2146 159.903L95.1172 165.802ZM95.1172 171.122V177.122H101.117V171.122H95.1172ZM86.3281 171.122H80.3281V177.122H86.3281V171.122ZM86.0469 158.794L83.8243 153.221C81.291 154.231 78.6903 155.399 77.0465 156.785L80.9141 161.372L84.7816 165.959C84.6376 166.081 84.7655 165.948 85.488 165.585C86.1363 165.26 87.0493 164.854 88.2695 164.367L86.0469 158.794ZM80.9141 161.372L77.0998 156.74C75.1062 158.382 73.7188 160.795 73.7188 163.739H79.7188H85.7188C85.7188 164.176 85.6161 164.68 85.3735 165.161C85.1403 165.622 84.8651 165.891 84.7283 166.004L80.9141 161.372ZM79.7188 163.739H73.7188C73.7188 165.626 74.3123 167.732 75.9529 169.441L80.2812 165.286L84.6096 161.131C85.0085 161.546 85.3103 162.039 85.4981 162.556C85.6797 163.055 85.7188 163.475 85.7188 163.739H79.7188ZM80.2812 165.286L76.0386 169.529C77.7934 171.284 79.981 171.849 81.8281 171.849V165.849V159.849C82.0658 159.849 82.4856 159.882 82.9997 160.069C83.5366 160.264 84.0698 160.589 84.5239 161.043L80.2812 165.286ZM81.8281 165.849V171.849C83.8534 171.849 85.5993 171.158 86.9615 170.347L83.8906 165.192L80.8198 160.038C80.7132 160.101 81.0841 159.849 81.8281 159.849V165.849ZM83.8906 165.192L87.0413 170.299C88.4042 169.458 89.575 168.386 90.5839 167.22L86.0469 163.294L81.5099 159.368C81.1125 159.827 80.8458 160.021 80.74 160.086L83.8906 165.192ZM86.0469 163.294H92.0469V158.794H86.0469H80.0469V163.294H86.0469ZM86.3281 168.38L82.243 163.985C81.6309 164.554 81.0154 164.94 80.3874 165.199L82.6719 170.747L84.9564 176.295C86.9846 175.46 88.8066 174.268 90.4132 172.774L86.3281 168.38ZM82.6719 170.747L80.4207 165.185C79.8017 165.436 79.2209 165.544 78.6406 165.544V171.544V177.544C80.8103 177.544 82.917 177.121 84.923 176.309L82.6719 170.747ZM78.6406 171.544V165.544C78.2254 165.544 78.0568 165.48 78.0421 165.474C78.0331 165.471 78.0421 165.473 78.0586 165.485C78.0751 165.496 78.0785 165.501 78.0676 165.49L73.6953 169.599L69.323 173.708C71.8677 176.415 75.2093 177.544 78.6406 177.544V171.544ZM73.6953 169.599L78.094 165.518C78.0879 165.511 78.0827 165.505 78.075 165.492C78.0668 165.478 78.0463 165.44 78.0212 165.367C77.97 165.216 77.8906 164.887 77.8906 164.302H71.8906H65.8906C65.8906 167.635 66.8133 171.002 69.2967 173.679L73.6953 169.599ZM71.8906 164.302H77.8906C77.8906 163.924 77.9576 163.766 77.9787 163.721C77.9979 163.679 78.0586 163.558 78.2962 163.364L74.4922 158.724L70.6882 154.084C67.5253 156.677 65.8906 160.258 65.8906 164.302H71.8906ZM74.4922 158.724L78.2962 163.364C78.4942 163.201 79.2611 162.702 81.033 161.947C82.7072 161.234 84.9556 160.426 87.8314 159.53L86.0469 153.802L84.2623 148.073C81.1694 149.037 78.5076 149.979 76.3303 150.907C74.2506 151.793 72.2245 152.824 70.6882 154.084L74.4922 158.724ZM86.0469 153.802H92.0469V152.302H86.0469H80.0469V153.802H86.0469ZM86.0469 152.302H92.0469C92.0469 150.659 91.7398 148.135 89.8738 146.061L85.4141 150.075L80.9543 154.089C80.431 153.508 80.2072 152.94 80.1172 152.624C80.0319 152.324 80.0469 152.184 80.0469 152.302H86.0469ZM85.4141 150.075L89.8738 146.061C87.872 143.837 85.2239 143.372 83.3984 143.372V149.372V155.372C83.3748 155.372 83.0732 155.372 82.6175 155.213C82.1241 155.041 81.5019 154.697 80.9543 154.089L85.4141 150.075ZM83.3984 149.372V143.372C81.4215 143.372 78.8164 143.944 76.8674 146.171L81.3828 150.122L85.8983 154.073C85.4095 154.632 84.8295 154.989 84.3072 155.183C83.8231 155.363 83.479 155.372 83.3984 155.372V149.372ZM81.3828 150.122L76.8674 146.171C75.0781 148.216 74.7266 150.666 74.7266 152.396H80.7266H86.7266C86.7266 152.298 86.7394 152.438 86.6553 152.729C86.5659 153.039 86.3568 153.549 85.8983 154.073L81.3828 150.122ZM80.7266 152.396H74.7266V153.216H80.7266H86.7266V152.396H80.7266ZM80.7266 153.216V147.216H73.3672V153.216V159.216H80.7266V153.216ZM73.3672 153.216H79.3672V147.169H73.3672H67.3672V153.216H73.3672ZM73.3672 147.169L76.0886 152.516C77.4896 151.803 78.8526 151.281 80.1802 150.929L78.6406 145.13L77.101 139.331C74.8974 139.916 72.7448 140.753 70.6458 141.822L73.3672 147.169ZM78.6406 145.13L80.1802 150.929C81.4896 150.581 82.6903 150.427 83.7969 150.427V144.427V138.427C81.5597 138.427 79.3229 138.741 77.101 139.331L78.6406 145.13ZM83.7969 144.427V150.427C85.125 150.427 86.0122 150.564 86.5616 150.718C87.0975 150.869 87.166 150.993 87.0554 150.891L91.1328 146.489L95.2102 142.088C92.0699 139.179 87.753 138.427 83.7969 138.427V144.427ZM91.1328 146.489L87.0785 150.912C86.9567 150.801 87.0185 150.781 87.1262 151.105C87.2455 151.464 87.3828 152.142 87.3828 153.263H93.3828H99.3828C99.3828 149.345 98.4655 145.072 95.1872 142.066L91.1328 146.489ZM93.3828 153.263H87.3828V162.005H93.3828H99.3828V153.263H93.3828ZM93.3828 162.005H87.3828C87.3828 162.879 87.416 163.753 87.5134 164.565C87.5953 165.247 87.7791 166.44 88.3678 167.618L93.7344 164.935L99.1009 162.251C99.2106 162.471 99.2814 162.655 99.3252 162.782C99.3697 162.911 99.3962 163.011 99.4106 163.07C99.4376 163.181 99.4373 163.214 99.428 163.136C99.4194 163.064 99.4074 162.936 99.398 162.738C99.3887 162.542 99.3828 162.299 99.3828 162.005H93.3828ZM93.7344 164.935L88.4809 167.833C89.857 170.327 92.1891 171.36 94.0197 171.701L95.1172 165.802L96.2146 159.903C96.4378 159.944 96.9059 160.064 97.4553 160.408C98.0418 160.776 98.5953 161.325 98.9878 162.036L93.7344 164.935ZM95.1172 165.802H89.1172V171.122H95.1172H101.117V165.802H95.1172ZM95.1172 171.122V165.122H86.3281V171.122V177.122H95.1172V171.122ZM86.3281 171.122H92.3281V168.38H86.3281H80.3281V171.122H86.3281ZM111.969 150.802L107.011 154.182L107.03 154.208L107.048 154.235L111.969 150.802ZM107.375 150.802L102.47 147.346L102.444 147.384L102.418 147.422L107.375 150.802ZM117.711 169.364L121.668 173.874L121.68 173.864L121.692 173.853L117.711 169.364ZM101.633 169.364L97.6728 173.872L97.6848 173.882L97.6968 173.893L101.633 169.364ZM101.633 146.653L105.593 151.161L105.596 151.158L101.633 146.653ZM117.711 146.653L113.706 151.121L113.718 151.132L113.73 151.142L117.711 146.653ZM112.672 154.177H118.672C118.672 152.332 118.461 149.621 116.89 147.369L111.969 150.802L107.048 154.235C106.852 153.954 106.744 153.717 106.689 153.577C106.634 153.437 106.62 153.36 106.622 153.373C106.625 153.384 106.638 153.455 106.65 153.596C106.663 153.737 106.672 153.928 106.672 154.177H112.672ZM111.969 150.802L116.926 147.422C115.05 144.67 112.149 143.771 109.695 143.771V149.771V155.771C109.578 155.771 109.144 155.752 108.57 155.492C107.948 155.21 107.397 154.747 107.011 154.182L111.969 150.802ZM109.695 149.771V143.771C107.256 143.771 104.373 144.645 102.47 147.346L107.375 150.802L112.28 154.257C111.893 154.806 111.352 155.246 110.755 155.511C110.205 155.756 109.796 155.771 109.695 155.771V149.771ZM107.375 150.802L102.418 147.422C100.895 149.655 100.672 152.312 100.672 154.177H106.672H112.672C112.672 153.934 112.681 153.746 112.693 153.608C112.705 153.469 112.719 153.399 112.722 153.385C112.725 153.37 112.712 153.439 112.661 153.569C112.611 153.7 112.512 153.919 112.332 154.182L107.375 150.802ZM106.672 154.177H100.672V161.817H106.672H112.672V154.177H106.672ZM106.672 161.817H100.672C100.672 163.662 100.887 166.356 102.454 168.602L107.375 165.169L112.296 161.736C112.489 162.013 112.596 162.246 112.652 162.387C112.707 162.527 112.722 162.605 112.72 162.595C112.718 162.587 112.705 162.52 112.693 162.383C112.681 162.247 112.672 162.061 112.672 161.817H106.672ZM107.375 165.169L102.454 168.602C104.387 171.372 107.34 172.177 109.695 172.177V166.177V160.177C109.758 160.177 110.151 160.184 110.697 160.422C111.298 160.682 111.875 161.133 112.296 161.736L107.375 165.169ZM109.695 166.177V172.177C112.095 172.177 114.991 171.324 116.89 168.602L111.969 165.169L107.048 161.736C107.448 161.162 108.007 160.71 108.617 160.44C109.177 160.191 109.594 160.177 109.695 160.177V166.177ZM111.969 165.169L116.89 168.602C118.456 166.356 118.672 163.662 118.672 161.817H112.672H106.672C106.672 162.061 106.663 162.247 106.651 162.383C106.639 162.52 106.626 162.587 106.624 162.595C106.622 162.605 106.637 162.527 106.692 162.387C106.747 162.246 106.855 162.013 107.048 161.736L111.969 165.169ZM112.672 161.817H118.672V154.177H112.672H106.672V161.817H112.672ZM120.195 153.802H114.195V162.239H120.195H126.195V153.802H120.195ZM120.195 162.239H114.195C114.195 164.642 113.586 165.003 113.73 164.875L117.711 169.364L121.692 173.853C125.148 170.788 126.195 166.399 126.195 162.239H120.195ZM117.711 169.364L113.754 164.854C113.765 164.844 113.565 165.026 112.89 165.209C112.205 165.396 111.171 165.544 109.695 165.544V171.544V177.544C113.93 177.544 118.387 176.753 121.668 173.874L117.711 169.364ZM109.695 171.544V165.544C106.539 165.544 105.621 164.881 105.569 164.836L101.633 169.364L97.6968 173.893C100.988 176.753 105.445 177.544 109.695 177.544V171.544ZM101.633 169.364L105.593 164.857C105.593 164.856 105.591 164.855 105.588 164.851C105.584 164.847 105.575 164.836 105.561 164.814C105.533 164.772 105.477 164.674 105.412 164.489C105.276 164.103 105.125 163.396 105.125 162.239H99.125H93.125C93.125 166.415 94.1885 170.811 97.6728 173.872L101.633 169.364ZM99.125 162.239H105.125V153.802H99.125H93.125V162.239H99.125ZM99.125 153.802H105.125C105.125 151.388 105.739 151.033 105.593 151.161L101.633 146.653L97.6728 142.146C94.1831 145.211 93.125 149.621 93.125 153.802H99.125ZM101.633 146.653L105.596 151.158C105.674 151.09 106.593 150.427 109.695 150.427V144.427V138.427C105.423 138.427 100.967 139.248 97.67 142.148L101.633 146.653ZM109.695 144.427V150.427C112.812 150.427 113.678 151.096 113.706 151.121L117.711 146.653L121.715 142.185C118.431 139.242 113.954 138.427 109.695 138.427V144.427ZM117.711 146.653L113.73 151.142C113.581 151.01 114.195 151.373 114.195 153.802H120.195H126.195C126.195 149.637 125.153 145.234 121.692 142.164L117.711 146.653ZM149.609 152.396H143.609V158.396H149.609V152.396ZM156.219 151.435L151.818 147.356L151.791 147.385L151.764 147.415L156.219 151.435ZM156.195 144.075L151.705 148.055L151.728 148.081L151.751 148.106L156.195 144.075ZM149.609 143.044V137.044H143.609V143.044H149.609ZM149.984 164.278L144.823 167.337L144.848 167.38L144.874 167.423L149.984 164.278ZM151.391 165.122H157.391V160.333L152.72 159.271L151.391 165.122ZM151.391 171.122V177.122H157.391V171.122H151.391ZM139.531 171.122H133.531V177.122H139.531V171.122ZM139.531 165.122L138.23 159.265L133.531 160.309V165.122H139.531ZM140.961 164.255L135.832 161.141L135.816 161.168L135.799 161.196L140.961 164.255ZM140.961 142.106L135.751 145.083L135.815 145.195L135.884 145.303L140.961 142.106ZM139.531 141.216H133.531V146.029L138.23 147.073L139.531 141.216ZM139.531 135.45V129.45H133.531V135.45H139.531ZM162.57 138.099L158.346 142.36L158.356 142.369L158.365 142.378L162.57 138.099ZM162.734 157.317L167.16 161.368L167.169 161.359L167.177 161.35L162.734 157.317ZM149.609 160.083V154.083H143.609V160.083H149.609ZM149.609 152.396V158.396H152.703V152.396V146.396H149.609V152.396ZM152.703 152.396V158.396C153.902 158.396 155.212 158.292 156.488 157.943C157.749 157.598 159.362 156.907 160.673 155.454L156.219 151.435L151.764 147.415C152.497 146.603 153.236 146.392 153.324 146.368C153.429 146.339 153.27 146.396 152.703 146.396V152.396ZM156.219 151.435L160.619 155.513C162.874 153.081 163.109 149.809 163.109 147.849H157.109H151.109C151.109 148.12 151.098 148.319 151.084 148.455C151.07 148.594 151.057 148.639 151.064 148.611C151.07 148.586 151.107 148.444 151.21 148.231C151.315 148.015 151.503 147.696 151.818 147.356L156.219 151.435ZM157.109 147.849H163.109C163.109 145.821 162.874 142.507 160.64 140.044L156.195 144.075L151.751 148.106C151.444 147.768 151.268 147.457 151.173 147.257C151.079 147.06 151.05 146.938 151.05 146.935C151.048 146.93 151.065 146.999 151.081 147.162C151.097 147.324 151.109 147.549 151.109 147.849H157.109ZM156.195 144.075L160.685 140.095C158.284 137.386 154.831 137.044 152.75 137.044V143.044V149.044C153.228 149.044 153.316 149.098 153.156 149.05C152.981 148.997 152.335 148.766 151.705 148.055L156.195 144.075ZM152.75 143.044V137.044H149.609V143.044V149.044H152.75V143.044ZM149.609 143.044H143.609V152.396H149.609H155.609V143.044H149.609ZM149.609 161.419H143.609C143.609 162.298 143.645 163.193 143.754 164.027C143.84 164.684 144.052 166.037 144.823 167.337L149.984 164.278L155.146 161.22C155.308 161.492 155.413 161.728 155.478 161.894C155.545 162.063 155.585 162.198 155.609 162.284C155.653 162.446 155.659 162.522 155.652 162.467C155.646 162.421 155.634 162.312 155.625 162.125C155.616 161.942 155.609 161.709 155.609 161.419H149.609ZM149.984 164.278L144.874 167.423C146.302 169.742 148.55 170.63 150.061 170.973L151.391 165.122L152.72 159.271C152.856 159.302 154.167 159.627 155.094 161.134L149.984 164.278ZM151.391 165.122H145.391V171.122H151.391H157.391V165.122H151.391ZM151.391 171.122V165.122H139.531V171.122V177.122H151.391V171.122ZM139.531 171.122H145.531V165.122H139.531H133.531V171.122H139.531ZM139.531 165.122L140.833 170.979C142.391 170.633 144.698 169.718 146.123 167.314L140.961 164.255L135.799 161.196C136.724 159.636 138.078 159.299 138.23 159.265L139.531 165.122ZM140.961 164.255L146.09 167.369C146.869 166.086 147.103 164.755 147.201 164.053C147.321 163.2 147.359 162.297 147.359 161.419H141.359H135.359C135.359 161.694 135.353 161.913 135.344 162.082C135.334 162.254 135.323 162.35 135.318 162.383C135.312 162.424 135.321 162.339 135.37 162.17C135.395 162.081 135.438 161.948 135.506 161.783C135.574 161.619 135.677 161.396 135.832 161.141L140.961 164.255ZM141.359 161.419H147.359V144.919H141.359H135.359V161.419H141.359ZM141.359 144.919H147.359C147.359 144.043 147.321 143.138 147.2 142.284C147.103 141.597 146.865 140.223 146.038 138.91L140.961 142.106L135.884 145.303C135.713 145.033 135.6 144.795 135.526 144.622C135.452 144.446 135.405 144.303 135.377 144.207C135.324 144.025 135.314 143.93 135.319 143.968C135.323 143.996 135.334 144.088 135.344 144.259C135.353 144.426 135.359 144.644 135.359 144.919H141.359ZM140.961 142.106L146.17 139.13C144.773 136.685 142.462 135.721 140.833 135.359L139.531 141.216L138.23 147.073C138.007 147.023 136.649 146.653 135.751 145.083L140.961 142.106ZM139.531 141.216H145.531V135.45H139.531H133.531V141.216H139.531ZM139.531 135.45V141.45H153.664V135.45V129.45H139.531V135.45ZM153.664 135.45V141.45C157.222 141.45 158.234 142.249 158.346 142.36L162.57 138.099L166.794 133.837C163.344 130.417 158.418 129.45 153.664 129.45V135.45ZM162.57 138.099L158.365 142.378C158.465 142.477 159.266 143.439 159.266 146.935H165.266H171.266C171.266 142.18 170.269 137.252 166.776 133.819L162.57 138.099ZM165.266 146.935H159.266C159.266 149.17 159.076 150.79 158.804 151.906C158.525 153.047 158.24 153.342 158.291 153.285L162.734 157.317L167.177 161.35C170.486 157.705 171.266 152.196 171.266 146.935H165.266ZM162.734 157.317L158.308 153.266C158.358 153.212 158.204 153.423 157.451 153.652C156.676 153.889 155.458 154.083 153.664 154.083V160.083V166.083C158.53 166.083 163.731 165.115 167.16 161.368L162.734 157.317ZM153.664 160.083V154.083H149.609V160.083V166.083H153.664V160.083ZM149.609 160.083H143.609V161.419H149.609H155.609V160.083H149.609ZM180.688 158.794H186.688V149.942L178.465 153.221L180.688 158.794ZM175.555 161.372L179.369 166.004L179.396 165.982L179.422 165.959L175.555 161.372ZM174.922 165.286L170.594 169.441L170.636 169.485L170.679 169.529L174.922 165.286ZM178.531 165.192L181.602 170.347L181.642 170.323L181.682 170.299L178.531 165.192ZM180.688 163.294L185.225 167.22L186.688 165.53V163.294H180.688ZM180.969 168.38H186.969V154.61L176.884 163.985L180.969 168.38ZM177.312 170.747L179.564 176.309L179.58 176.302L179.597 176.295L177.312 170.747ZM168.336 169.599L163.937 173.679L163.95 173.693L163.964 173.708L168.336 169.599ZM180.688 153.802L182.472 159.53L186.688 158.217V153.802H180.688ZM175.367 153.216V159.216H181.367V153.216H175.367ZM168.008 153.216H162.008V159.216H168.008V153.216ZM168.008 147.169L165.286 141.822L162.008 143.49V147.169H168.008ZM185.773 146.489L181.696 150.891L181.708 150.902L181.719 150.912L185.773 146.489ZM188.375 164.935L183.008 167.618L183.063 167.727L183.122 167.833L188.375 164.935ZM189.758 165.802H195.758V160.815L190.855 159.903L189.758 165.802ZM189.758 171.122V177.122H195.758V171.122H189.758ZM180.969 171.122H174.969V177.122H180.969V171.122ZM180.688 158.794L178.465 153.221C175.932 154.231 173.331 155.399 171.687 156.785L175.555 161.372L179.422 165.959C179.278 166.081 179.406 165.948 180.129 165.585C180.777 165.26 181.69 164.854 182.91 164.367L180.688 158.794ZM175.555 161.372L171.74 156.74C169.747 158.382 168.359 160.795 168.359 163.739H174.359H180.359C180.359 164.176 180.257 164.68 180.014 165.161C179.781 165.622 179.506 165.891 179.369 166.004L175.555 161.372ZM174.359 163.739H168.359C168.359 165.626 168.953 167.732 170.594 169.441L174.922 165.286L179.25 161.131C179.649 161.546 179.951 162.039 180.139 162.556C180.32 163.055 180.359 163.475 180.359 163.739H174.359ZM174.922 165.286L170.679 169.529C172.434 171.284 174.622 171.849 176.469 171.849V165.849V159.849C176.706 159.849 177.126 159.882 177.64 160.069C178.177 160.264 178.71 160.589 179.165 161.043L174.922 165.286ZM176.469 165.849V171.849C178.494 171.849 180.24 171.158 181.602 170.347L178.531 165.192L175.46 160.038C175.354 160.101 175.725 159.849 176.469 159.849V165.849ZM178.531 165.192L181.682 170.299C183.045 169.458 184.216 168.386 185.225 167.22L180.688 163.294L176.15 159.368C175.753 159.827 175.486 160.021 175.381 160.086L178.531 165.192ZM180.688 163.294H186.688V158.794H180.688H174.688V163.294H180.688ZM180.969 168.38L176.884 163.985C176.272 164.554 175.656 164.94 175.028 165.199L177.312 170.747L179.597 176.295C181.625 175.46 183.447 174.268 185.054 172.774L180.969 168.38ZM177.312 170.747L175.061 165.185C174.442 165.436 173.862 165.544 173.281 165.544V171.544V177.544C175.451 177.544 177.558 177.121 179.564 176.309L177.312 170.747ZM173.281 171.544V165.544C172.866 165.544 172.697 165.48 172.683 165.474C172.674 165.471 172.683 165.473 172.699 165.485C172.716 165.496 172.719 165.501 172.708 165.49L168.336 169.599L163.964 173.708C166.508 176.415 169.85 177.544 173.281 177.544V171.544ZM168.336 169.599L172.735 165.518C172.728 165.511 172.723 165.505 172.716 165.492C172.707 165.478 172.687 165.44 172.662 165.367C172.611 165.216 172.531 164.887 172.531 164.302H166.531H160.531C160.531 167.635 161.454 171.002 163.937 173.679L168.336 169.599ZM166.531 164.302H172.531C172.531 163.924 172.598 163.766 172.619 163.721C172.639 163.679 172.699 163.558 172.937 163.364L169.133 158.724L165.329 154.084C162.166 156.677 160.531 160.258 160.531 164.302H166.531ZM169.133 158.724L172.937 163.364C173.135 163.201 173.902 162.702 175.674 161.947C177.348 161.234 179.596 160.426 182.472 159.53L180.688 153.802L178.903 148.073C175.81 149.037 173.148 149.979 170.971 150.907C168.891 151.793 166.865 152.824 165.329 154.084L169.133 158.724ZM180.688 153.802H186.688V152.302H180.688H174.688V153.802H180.688ZM180.688 152.302H186.688C186.688 150.659 186.38 148.135 184.514 146.061L180.055 150.075L175.595 154.089C175.072 153.508 174.848 152.94 174.758 152.624C174.673 152.324 174.688 152.184 174.688 152.302H180.688ZM180.055 150.075L184.514 146.061C182.513 143.837 179.864 143.372 178.039 143.372V149.372V155.372C178.015 155.372 177.714 155.372 177.258 155.213C176.765 155.041 176.143 154.697 175.595 154.089L180.055 150.075ZM178.039 149.372V143.372C176.062 143.372 173.457 143.944 171.508 146.171L176.023 150.122L180.539 154.073C180.05 154.632 179.47 154.989 178.948 155.183C178.464 155.363 178.12 155.372 178.039 155.372V149.372ZM176.023 150.122L171.508 146.171C169.719 148.216 169.367 150.666 169.367 152.396H175.367H181.367C181.367 152.298 181.38 152.438 181.296 152.729C181.207 153.039 180.997 153.549 180.539 154.073L176.023 150.122ZM175.367 152.396H169.367V153.216H175.367H181.367V152.396H175.367ZM175.367 153.216V147.216H168.008V153.216V159.216H175.367V153.216ZM168.008 153.216H174.008V147.169H168.008H162.008V153.216H168.008ZM168.008 147.169L170.729 152.516C172.13 151.803 173.493 151.281 174.821 150.929L173.281 145.13L171.742 139.331C169.538 139.916 167.385 140.753 165.286 141.822L168.008 147.169ZM173.281 145.13L174.821 150.929C176.13 150.581 177.331 150.427 178.438 150.427V144.427V138.427C176.2 138.427 173.964 138.741 171.742 139.331L173.281 145.13ZM178.438 144.427V150.427C179.766 150.427 180.653 150.564 181.202 150.718C181.738 150.869 181.807 150.993 181.696 150.891L185.773 146.489L189.851 142.088C186.711 139.179 182.394 138.427 178.438 138.427V144.427ZM185.773 146.489L181.719 150.912C181.597 150.801 181.659 150.781 181.767 151.105C181.886 151.464 182.023 152.142 182.023 153.263H188.023H194.023C194.023 149.345 193.106 145.072 189.828 142.066L185.773 146.489ZM188.023 153.263H182.023V162.005H188.023H194.023V153.263H188.023ZM188.023 162.005H182.023C182.023 162.879 182.057 163.753 182.154 164.565C182.236 165.247 182.42 166.44 183.008 167.618L188.375 164.935L193.742 162.251C193.851 162.471 193.922 162.655 193.966 162.782C194.01 162.911 194.037 163.011 194.051 163.07C194.078 163.181 194.078 163.214 194.069 163.136C194.06 163.064 194.048 162.936 194.039 162.738C194.029 162.542 194.023 162.299 194.023 162.005H188.023ZM188.375 164.935L183.122 167.833C184.498 170.327 186.83 171.36 188.66 171.701L189.758 165.802L190.855 159.903C191.078 159.944 191.547 160.064 192.096 160.408C192.682 160.776 193.236 161.325 193.628 162.036L188.375 164.935ZM189.758 165.802H183.758V171.122H189.758H195.758V165.802H189.758ZM189.758 171.122V165.122H180.969V171.122V177.122H189.758V171.122ZM180.969 171.122H186.969V168.38H180.969H174.969V171.122H180.969ZM204.148 165.802H210.148V161.229L205.739 160.017L204.148 165.802ZM204.148 171.122V177.122H210.148V171.122H204.148ZM193.578 171.122H187.578V177.122H193.578V171.122ZM193.578 165.802L192.666 159.872L187.578 160.654V165.802H193.578ZM194.844 164.864L189.387 162.37L189.37 162.406L189.354 162.442L194.844 164.864ZM194.867 151.106L189.584 153.951L189.65 154.074L189.722 154.193L194.867 151.106ZM193.578 150.146H187.578V154.339L191.517 155.78L193.578 150.146ZM193.578 144.919V138.919H187.578V144.919H193.578ZM202.18 144.919H208.18V138.919H202.18V144.919ZM202.18 147.075H196.18V165.926L207.076 150.543L202.18 147.075ZM204.031 145.388L201.256 140.068L201.232 140.081L201.208 140.094L204.031 145.388ZM207.383 144.896L209.28 139.203L208.677 139.002L208.045 138.932L207.383 144.896ZM207.5 144.919H213.5V138.919H207.5V144.919ZM207.5 152.583V158.583H213.5V152.583H207.5ZM207.219 152.56L207.963 146.606L207.911 146.599L207.858 146.594L207.219 152.56ZM203.398 153.731L198.566 150.175L198.56 150.183L198.554 150.191L203.398 153.731ZM202.508 162.239H196.508C196.508 163.053 196.542 163.89 196.648 164.687C196.738 165.368 196.942 166.549 197.57 167.721L202.859 164.888L208.148 162.054C208.266 162.274 208.345 162.463 208.397 162.603C208.45 162.743 208.483 162.857 208.504 162.932C208.542 163.076 208.549 163.146 208.544 163.108C208.539 163.076 208.53 162.989 208.521 162.834C208.513 162.682 208.508 162.485 208.508 162.239H202.508ZM202.859 164.888L197.57 167.721C198.799 170.015 200.856 171.119 202.557 171.587L204.148 165.802L205.739 160.017C206.191 160.141 207.388 160.636 208.148 162.054L202.859 164.888ZM204.148 165.802H198.148V171.122H204.148H210.148V165.802H204.148ZM204.148 171.122V165.122H193.578V171.122V177.122H204.148V171.122ZM193.578 171.122H199.578V165.802H193.578H187.578V171.122H193.578ZM193.578 165.802L194.49 171.732C196.974 171.35 199.212 169.827 200.333 167.286L194.844 164.864L189.354 162.442C189.612 161.859 190.068 161.203 190.78 160.676C191.478 160.159 192.175 159.947 192.666 159.872L193.578 165.802ZM194.844 164.864L200.301 167.359C201.155 165.49 201.219 163.252 201.219 161.817H195.219H189.219C189.219 162.106 189.213 162.347 189.203 162.543C189.193 162.741 189.18 162.877 189.17 162.959C189.159 163.046 189.156 163.041 189.173 162.966C189.189 162.902 189.245 162.679 189.387 162.37L194.844 164.864ZM195.219 161.817H201.219V153.497H195.219H189.219V161.817H195.219ZM195.219 153.497H201.219C201.219 152.731 201.183 151.915 201.067 151.124C200.968 150.451 200.737 149.227 200.012 148.019L194.867 151.106L189.722 154.193C189.446 153.734 189.32 153.355 189.268 153.179C189.211 152.988 189.195 152.873 189.195 152.87C189.193 152.861 189.2 152.906 189.207 153.022C189.214 153.135 189.219 153.291 189.219 153.497H195.219ZM194.867 151.106L200.15 148.262C198.967 146.065 197.015 145.014 195.64 144.511L193.578 150.146L191.517 155.78C191.423 155.746 190.33 155.336 189.584 153.951L194.867 151.106ZM193.578 150.146H199.578V144.919H193.578H187.578V150.146H193.578ZM193.578 144.919V150.919H202.18V144.919V138.919H193.578V144.919ZM202.18 144.919H196.18V147.075H202.18H208.18V144.919H202.18ZM202.18 147.075L207.076 150.543C207.117 150.485 207.123 150.489 207.083 150.525C207.04 150.564 206.964 150.624 206.855 150.682L204.031 145.388L201.208 140.094C199.563 140.971 198.271 142.213 197.284 143.607L202.18 147.075ZM204.031 145.388L206.807 150.707C206.726 150.749 206.637 150.782 206.549 150.803C206.463 150.824 206.408 150.825 206.398 150.825V144.825V138.825C204.632 138.825 202.883 139.219 201.256 140.068L204.031 145.388ZM206.398 144.825V150.825C206.329 150.825 206.319 150.822 206.393 150.828C206.46 150.832 206.566 150.842 206.72 150.859L207.383 144.896L208.045 138.932C207.549 138.877 206.964 138.825 206.398 138.825V144.825ZM207.383 144.896L205.485 150.588C205.832 150.703 206.561 150.919 207.5 150.919V144.919V138.919C207.97 138.919 208.356 138.976 208.624 139.03C208.898 139.084 209.121 139.15 209.28 139.203L207.383 144.896ZM207.5 144.919H201.5V152.583H207.5H213.5V144.919H207.5ZM207.5 152.583V146.583C207.605 146.583 207.69 146.586 207.747 146.589C207.805 146.592 207.851 146.595 207.881 146.598C207.938 146.603 207.969 146.607 207.963 146.606L207.219 152.56L206.475 158.513C206.652 158.535 207.049 158.583 207.5 158.583V152.583ZM207.219 152.56L207.858 146.594C207.435 146.548 206.836 146.489 206.305 146.489V152.489V158.489C206.22 158.489 206.168 158.487 206.164 158.486C206.155 158.486 206.166 158.486 206.202 158.489C206.275 158.495 206.397 158.506 206.58 158.525L207.219 152.56ZM206.305 152.489V146.489C203.681 146.489 200.626 147.376 198.566 150.175L203.398 153.731L208.231 157.288C207.885 157.758 207.415 158.114 206.94 158.317C206.512 158.5 206.247 158.489 206.305 158.489V152.489ZM203.398 153.731L198.554 150.191C196.818 152.567 196.508 155.456 196.508 157.646H202.508H208.508C208.508 157.359 208.52 157.133 208.536 156.962C208.553 156.789 208.572 156.69 208.581 156.651C208.59 156.611 208.583 156.655 208.539 156.76C208.495 156.866 208.405 157.05 208.243 157.272L203.398 153.731ZM202.508 157.646H196.508V162.239H202.508H208.508V157.646H202.508ZM219.008 137.817H225.008V129.709L217.254 132.08L219.008 137.817ZM219.008 144.919H213.008V150.919H219.008V144.919ZM222.125 144.919H228.125V138.919H222.125V144.919ZM222.125 150.685V156.685H228.125V150.685H222.125ZM219.008 150.685V144.685H213.008V150.685H219.008ZM219.594 164.724L214.438 167.793L214.465 167.837L214.492 167.882L219.594 164.724ZM222.125 165.708H228.125V159.708H222.125V165.708ZM222.125 171.028L223.81 176.787L228.125 175.524V171.028H222.125ZM220.273 171.45L219.338 165.524L219.325 165.526L219.313 165.528L220.273 171.45ZM213.266 169.458L208.466 173.058L208.475 173.071L208.485 173.083L213.266 169.458ZM211.648 150.685H217.648V144.685H211.648V150.685ZM210.312 150.685H204.312V156.685H210.312V150.685ZM210.312 144.919V138.919H204.312V144.919H210.312ZM211.648 144.919V150.919H217.648V144.919H211.648ZM211.648 140.067L209.894 134.33L205.648 135.628V140.067H211.648ZM219.008 137.817H213.008V144.919H219.008H225.008V137.817H219.008ZM219.008 144.919V150.919H222.125V144.919V138.919H219.008V144.919ZM222.125 144.919H216.125V150.685H222.125H228.125V144.919H222.125ZM222.125 150.685V144.685H219.008V150.685V156.685H222.125V150.685ZM219.008 150.685H213.008V160.95H219.008H225.008V150.685H219.008ZM219.008 160.95H213.008C213.008 162.061 213.064 163.171 213.225 164.209C213.373 165.158 213.673 166.508 214.438 167.793L219.594 164.724L224.75 161.655C224.96 162.008 225.048 162.276 225.075 162.362C225.104 162.459 225.099 162.471 225.083 162.367C225.068 162.269 225.048 162.103 225.033 161.857C225.017 161.613 225.008 161.313 225.008 160.95H219.008ZM219.594 164.724L214.492 167.882C216.366 170.909 219.475 171.708 221.773 171.708V165.708V159.708C221.847 159.708 222.297 159.716 222.913 159.994C223.599 160.304 224.249 160.844 224.695 161.566L219.594 164.724ZM221.773 165.708V171.708H222.125V165.708V159.708H221.773V165.708ZM222.125 165.708H216.125V171.028H222.125H228.125V165.708H222.125ZM222.125 171.028L220.44 165.27C220.018 165.393 219.652 165.474 219.338 165.524L220.273 171.45L221.209 177.377C222.082 177.239 222.95 177.038 223.81 176.787L222.125 171.028ZM220.273 171.45L219.313 165.528C219 165.578 218.786 165.591 218.656 165.591V171.591V177.591C219.527 177.591 220.391 177.51 221.234 177.373L220.273 171.45ZM218.656 171.591V165.591C217.937 165.591 217.648 165.486 217.629 165.478C217.629 165.478 217.691 165.503 217.784 165.572C217.88 165.643 217.972 165.734 218.047 165.833L213.266 169.458L208.485 173.083C211.113 176.549 215.079 177.591 218.656 177.591V171.591ZM213.266 169.458L218.066 165.858C218.26 166.118 218.106 166.05 217.932 165.197C217.769 164.394 217.648 163.196 217.648 161.513H211.648H205.648C205.648 163.689 205.798 165.745 206.173 167.59C206.539 169.385 207.193 171.361 208.466 173.058L213.266 169.458ZM211.648 161.513H217.648V150.685H211.648H205.648V161.513H211.648ZM211.648 150.685V144.685H210.312V150.685V156.685H211.648V150.685ZM210.312 150.685H216.312V144.919H210.312H204.312V150.685H210.312ZM210.312 144.919V150.919H211.648V144.919V138.919H210.312V144.919ZM211.648 144.919H217.648V140.067H211.648H205.648V144.919H211.648ZM211.648 140.067L213.403 145.805L220.762 143.555L219.008 137.817L217.254 132.08L209.894 134.33L211.648 140.067ZM237.008 165.802H243.008V161.229L238.599 160.017L237.008 165.802ZM237.008 171.122V177.122H243.008V171.122H237.008ZM226.438 171.122H220.438V177.122H226.438V171.122ZM226.438 165.802L225.525 159.872L220.438 160.654V165.802H226.438ZM227.703 164.864L222.246 162.37L222.23 162.406L222.214 162.442L227.703 164.864ZM227.727 151.106L222.444 153.951L222.51 154.074L222.582 154.193L227.727 151.106ZM226.438 150.146H220.438V154.339L224.376 155.78L226.438 150.146ZM226.438 144.919V138.919H220.438V144.919H226.438ZM235.367 144.919H241.367V138.919H235.367V144.919ZM235.367 146.536H229.367V156.935L238.37 151.731L235.367 146.536ZM247.32 146.864L242.783 150.79L242.806 150.817L242.83 150.844L247.32 146.864ZM249.523 165.052L244.229 167.875L244.249 167.913L244.27 167.95L249.523 165.052ZM250.859 165.802L256.859 165.775L256.835 160.223L251.297 159.818L250.859 165.802ZM250.883 171.122V177.122H256.909L256.883 171.096L250.883 171.122ZM242.562 171.122L236.907 173.125L238.322 177.122H242.562V171.122ZM241.977 168.356L236.006 168.953L236.011 168.996L236.015 169.038L241.977 168.356ZM236.938 150.474L239.137 156.056L239.179 156.039L239.222 156.022L236.938 150.474ZM235.367 151.388L231.722 146.622L229.367 148.423V151.388H235.367ZM235.367 162.239H229.367C229.367 163.053 229.402 163.89 229.507 164.687C229.598 165.368 229.802 166.549 230.43 167.721L235.719 164.888L241.008 162.054C241.125 162.274 241.205 162.463 241.257 162.603C241.309 162.743 241.343 162.857 241.363 162.932C241.401 163.076 241.408 163.146 241.403 163.108C241.399 163.076 241.389 162.989 241.381 162.834C241.373 162.682 241.367 162.485 241.367 162.239H235.367ZM235.719 164.888L230.43 167.721C231.659 170.015 233.716 171.119 235.417 171.587L237.008 165.802L238.599 160.017C239.05 160.141 240.248 160.636 241.008 162.054L235.719 164.888ZM237.008 165.802H231.008V171.122H237.008H243.008V165.802H237.008ZM237.008 171.122V165.122H226.438V171.122V177.122H237.008V171.122ZM226.438 171.122H232.438V165.802H226.438H220.438V171.122H226.438ZM226.438 165.802L227.35 171.732C229.833 171.35 232.072 169.827 233.193 167.286L227.703 164.864L222.214 162.442C222.471 161.859 222.927 161.203 223.64 160.676C224.338 160.159 225.035 159.947 225.525 159.872L226.438 165.802ZM227.703 164.864L233.16 167.359C234.014 165.49 234.078 163.252 234.078 161.817H228.078H222.078C222.078 162.106 222.072 162.347 222.062 162.543C222.052 162.741 222.039 162.877 222.029 162.959C222.019 163.046 222.015 163.041 222.033 162.966C222.048 162.902 222.105 162.679 222.246 162.37L227.703 164.864ZM228.078 161.817H234.078V153.497H228.078H222.078V161.817H228.078ZM228.078 153.497H234.078C234.078 152.731 234.043 151.915 233.926 151.124C233.827 150.451 233.596 149.227 232.872 148.019L227.727 151.106L222.582 154.193C222.306 153.734 222.179 153.355 222.127 153.179C222.071 152.988 222.055 152.873 222.054 152.87C222.053 152.861 222.06 152.906 222.066 153.022C222.073 153.135 222.078 153.291 222.078 153.497H228.078ZM227.727 151.106L233.009 148.262C231.826 146.065 229.874 145.014 228.499 144.511L226.438 150.146L224.376 155.78C224.282 155.746 223.189 155.336 222.444 153.951L227.727 151.106ZM226.438 150.146H232.438V144.919H226.438H220.438V150.146H226.438ZM226.438 144.919V150.919H235.367V144.919V138.919H226.438V144.919ZM235.367 144.919H229.367V146.536H235.367H241.367V144.919H235.367ZM235.367 146.536L238.37 151.731C239.005 151.364 239.572 151.125 240.075 150.976L238.367 145.224L236.66 139.472C235.162 139.916 233.729 140.552 232.364 141.342L235.367 146.536ZM238.367 145.224L240.075 150.976C240.582 150.825 240.975 150.778 241.273 150.778V144.778V138.778C239.697 138.778 238.152 139.029 236.66 139.472L238.367 145.224ZM241.273 144.778V150.778C242.226 150.778 242.739 150.899 242.95 150.972C243.12 151.03 242.976 151.014 242.783 150.79L247.32 146.864L251.858 142.939C249.019 139.657 244.905 138.778 241.273 138.778V144.778ZM247.32 146.864L242.83 150.844C242.632 150.621 242.736 150.608 242.88 151.168C243.022 151.724 243.148 152.631 243.148 153.989H249.148H255.148C255.148 150.239 254.54 145.964 251.81 142.884L247.32 146.864ZM249.148 153.989H243.148V162.146H249.148H255.148V153.989H249.148ZM249.148 162.146H243.148C243.148 163.023 243.184 163.91 243.292 164.741C243.382 165.446 243.587 166.671 244.229 167.875L249.523 165.052L254.818 162.228C254.937 162.452 255.016 162.642 255.066 162.778C255.116 162.916 255.147 163.024 255.165 163.092C255.183 163.161 255.192 163.206 255.195 163.221C255.198 163.237 255.196 163.233 255.193 163.206C255.185 163.149 255.174 163.033 255.164 162.846C255.155 162.662 255.148 162.43 255.148 162.146H249.148ZM249.523 165.052L244.27 167.95C245.742 170.619 248.314 171.632 250.422 171.786L250.859 165.802L251.297 159.818C251.635 159.842 252.266 159.945 252.982 160.347C253.747 160.777 254.37 161.415 254.777 162.153L249.523 165.052ZM250.859 165.802L244.859 165.828L244.883 171.149L250.883 171.122L256.883 171.096L256.859 165.775L250.859 165.802ZM250.883 171.122V165.122H242.562V171.122V177.122H250.883V171.122ZM242.562 171.122L248.218 169.119C248.149 168.924 248.029 168.476 247.938 167.675L241.977 168.356L236.015 169.038C236.174 170.424 236.444 171.82 236.907 173.125L242.562 171.122ZM241.977 168.356L247.947 167.759C247.869 166.982 247.812 165.515 247.812 163.2H241.812H235.812C235.812 165.573 235.865 167.544 236.006 168.953L241.977 168.356ZM241.812 163.2H247.812V154.997H241.812H235.812V163.2H241.812ZM241.812 154.997H247.812C247.812 152.997 247.588 150.133 245.95 147.799L241.039 151.247L236.129 154.695C235.935 154.419 235.834 154.193 235.787 154.073C235.74 153.953 235.733 153.902 235.743 153.947C235.752 153.991 235.77 154.097 235.786 154.281C235.802 154.462 235.812 154.699 235.812 154.997H241.812ZM241.039 151.247L245.95 147.799C243.963 144.97 240.931 144.146 238.484 144.146V150.146V156.146C238.481 156.146 238.141 156.147 237.638 155.931C237.08 155.69 236.531 155.268 236.129 154.695L241.039 151.247ZM238.484 150.146V144.146C237.093 144.146 235.802 144.452 234.653 144.926L236.938 150.474L239.222 156.022C239.136 156.057 238.876 156.146 238.484 156.146V150.146ZM236.938 150.474L234.738 144.891C233.612 145.335 232.608 145.945 231.722 146.622L235.367 151.388L239.012 156.154C239.098 156.088 239.153 156.054 239.177 156.04C239.2 156.027 239.186 156.037 239.137 156.056L236.938 150.474ZM235.367 151.388H229.367V162.239H235.367H241.367V151.388H235.367ZM262.25 154.903H256.25V160.903H262.25V154.903ZM268.578 154.903V160.903H274.578V154.903H268.578ZM263 150.825L267.852 154.354L267.871 154.328L267.89 154.302L263 150.825ZM262.977 165.169L258.11 168.678L258.136 168.715L258.163 168.751L262.977 165.169ZM268.578 162.286V156.286H262.578V162.286H268.578ZM275.82 162.286H281.82V156.286H275.82V162.286ZM275.82 168.521L279.112 173.537L281.82 171.76V168.521H275.82ZM257.352 169.364L253.392 173.872L253.404 173.882L253.416 173.893L257.352 169.364ZM257.352 146.653L261.312 151.161L261.314 151.158L257.352 146.653ZM273.336 146.677L269.308 151.124L269.32 151.134L269.331 151.145L273.336 146.677ZM275.82 159.544V165.544H281.82V159.544H275.82ZM262.25 159.544V153.544H256.25V159.544H262.25ZM262.25 154.177H256.25V154.903H262.25H268.25V154.177H262.25ZM262.25 154.903V160.903H268.578V154.903V148.903H262.25V154.903ZM268.578 154.903H274.578V153.849H268.578H262.578V154.903H268.578ZM268.578 153.849H274.578C274.578 151.937 274.27 149.272 272.523 147.048L267.805 150.755L263.087 154.462C262.7 153.97 262.586 153.564 262.564 153.476C262.543 153.391 262.578 153.489 262.578 153.849H268.578ZM267.805 150.755L272.523 147.048C270.552 144.539 267.749 143.771 265.414 143.771V149.771V155.771C265.359 155.771 265.019 155.764 264.536 155.565C264.011 155.348 263.489 154.974 263.087 154.462L267.805 150.755ZM265.414 149.771V143.771C262.978 143.771 260.051 144.619 258.11 147.348L263 150.825L267.89 154.302C267.497 154.854 266.957 155.281 266.381 155.532C265.854 155.762 265.476 155.771 265.414 155.771V149.771ZM263 150.825L258.148 147.296C256.504 149.557 256.25 152.268 256.25 154.177H262.25H268.25C268.25 153.949 268.259 153.778 268.271 153.658C268.282 153.536 268.294 153.484 268.293 153.489C268.292 153.493 268.272 153.58 268.212 153.724C268.152 153.87 268.042 154.094 267.852 154.354L263 150.825ZM262.25 161.817H256.25C256.25 163.683 256.478 166.414 258.11 168.678L262.977 165.169L267.844 161.66C268.044 161.938 268.157 162.176 268.218 162.324C268.248 162.4 268.268 162.458 268.279 162.496C268.291 162.534 268.295 162.555 268.295 162.556C268.296 162.557 268.292 162.543 268.288 162.51C268.283 162.477 268.277 162.43 268.271 162.366C268.259 162.236 268.25 162.056 268.25 161.817H262.25ZM262.977 165.169L258.163 168.751C260.159 171.433 263.098 172.177 265.414 172.177V166.177V160.177C265.427 160.177 265.761 160.176 266.253 160.38C266.797 160.605 267.36 161.009 267.79 161.587L262.977 165.169ZM265.414 166.177V172.177C267.697 172.177 270.381 171.445 272.353 169.125L267.781 165.239L263.21 161.353C263.603 160.89 264.095 160.557 264.582 160.364C265.034 160.185 265.352 160.177 265.414 160.177V166.177ZM267.781 165.239L272.353 169.125C274.183 166.972 274.578 164.385 274.578 162.427H268.578H262.578C262.578 162.646 262.553 162.621 262.606 162.432C262.664 162.226 262.823 161.808 263.21 161.353L267.781 165.239ZM268.578 162.427H274.578V162.286H268.578H262.578V162.427H268.578ZM268.578 162.286V168.286H275.82V162.286V156.286H268.578V162.286ZM275.82 162.286H269.82V168.521H275.82H281.82V162.286H275.82ZM275.82 168.521L272.528 163.504C271.546 164.149 270.455 164.652 269.23 165.007L270.898 170.771L272.567 176.534C274.904 175.857 277.095 174.861 279.112 173.537L275.82 168.521ZM270.898 170.771L269.23 165.007C267.997 165.364 266.731 165.544 265.414 165.544V171.544V177.544C267.847 177.544 270.237 177.208 272.567 176.534L270.898 170.771ZM265.414 171.544V165.544C262.258 165.544 261.34 164.881 261.288 164.836L257.352 169.364L253.416 173.893C256.707 176.753 261.164 177.544 265.414 177.544V171.544ZM257.352 169.364L261.312 164.857C261.311 164.856 261.31 164.855 261.306 164.851C261.303 164.847 261.293 164.836 261.279 164.814C261.252 164.772 261.195 164.674 261.13 164.489C260.994 164.103 260.844 163.396 260.844 162.239H254.844H248.844C248.844 166.415 249.907 170.811 253.392 173.872L257.352 169.364ZM254.844 162.239H260.844V153.802H254.844H248.844V162.239H254.844ZM254.844 153.802H260.844C260.844 151.388 261.458 151.033 261.312 151.161L257.352 146.653L253.392 142.146C249.902 145.211 248.844 149.621 248.844 153.802H254.844ZM257.352 146.653L261.314 151.158C261.392 151.09 262.312 150.427 265.414 150.427V144.427V138.427C261.142 138.427 256.686 139.248 253.389 142.148L257.352 146.653ZM265.414 144.427V150.427C268.424 150.427 269.266 151.086 269.308 151.124L273.336 146.677L277.364 142.23C274.094 139.268 269.654 138.427 265.414 138.427V144.427ZM273.336 146.677L269.331 151.145C269.333 151.146 269.349 151.159 269.378 151.205C269.409 151.253 269.468 151.358 269.534 151.547C269.671 151.942 269.82 152.652 269.82 153.802H275.82H281.82C281.82 149.641 280.765 145.278 277.34 142.209L273.336 146.677ZM275.82 153.802H269.82V159.544H275.82H281.82V153.802H275.82ZM275.82 159.544V153.544H262.25V159.544V165.544H275.82V159.544ZM262.25 159.544H256.25V161.817H262.25H268.25V159.544H262.25ZM290.586 165.802H296.586V161.229L292.177 160.017L290.586 165.802ZM290.586 171.122V177.122H296.586V171.122H290.586ZM280.016 171.122H274.016V177.122H280.016V171.122ZM280.016 165.802L279.103 159.872L274.016 160.654V165.802H280.016ZM281.281 164.864L275.824 162.37L275.808 162.406L275.792 162.442L281.281 164.864ZM281.305 151.106L276.022 153.951L276.088 154.074L276.16 154.193L281.305 151.106ZM280.016 150.146H274.016V154.339L277.954 155.78L280.016 150.146ZM280.016 144.919V138.919H274.016V144.919H280.016ZM288.617 144.919H294.617V138.919H288.617V144.919ZM288.617 147.075H282.617V165.926L293.513 150.543L288.617 147.075ZM290.469 145.388L287.693 140.068L287.669 140.081L287.645 140.094L290.469 145.388ZM293.82 144.896L295.718 139.203L295.115 139.002L294.483 138.932L293.82 144.896ZM293.938 144.919H299.938V138.919H293.938V144.919ZM293.938 152.583V158.583H299.938V152.583H293.938ZM293.656 152.56L294.4 146.606L294.348 146.599L294.295 146.594L293.656 152.56ZM289.836 153.731L285.003 150.175L284.997 150.183L284.992 150.191L289.836 153.731ZM288.945 162.239H282.945C282.945 163.053 282.98 163.89 283.085 164.687C283.176 165.368 283.38 166.549 284.008 167.721L289.297 164.888L294.586 162.054C294.703 162.274 294.783 162.463 294.835 162.603C294.888 162.743 294.921 162.857 294.941 162.932C294.979 163.076 294.986 163.146 294.981 163.108C294.977 163.076 294.967 162.989 294.959 162.834C294.951 162.682 294.945 162.485 294.945 162.239H288.945ZM289.297 164.888L284.008 167.721C285.237 170.015 287.294 171.119 288.995 171.587L290.586 165.802L292.177 160.017C292.628 160.141 293.826 160.636 294.586 162.054L289.297 164.888ZM290.586 165.802H284.586V171.122H290.586H296.586V165.802H290.586ZM290.586 171.122V165.122H280.016V171.122V177.122H290.586V171.122ZM280.016 171.122H286.016V165.802H280.016H274.016V171.122H280.016ZM280.016 165.802L280.928 171.732C283.412 171.35 285.65 169.827 286.771 167.286L281.281 164.864L275.792 162.442C276.049 161.859 276.505 161.203 277.218 160.676C277.916 160.159 278.613 159.947 279.103 159.872L280.016 165.802ZM281.281 164.864L286.738 167.359C287.592 165.49 287.656 163.252 287.656 161.817H281.656H275.656C275.656 162.106 275.65 162.347 275.64 162.543C275.63 162.741 275.618 162.877 275.607 162.959C275.597 163.046 275.593 163.041 275.611 162.966C275.626 162.902 275.683 162.679 275.824 162.37L281.281 164.864ZM281.656 161.817H287.656V153.497H281.656H275.656V161.817H281.656ZM281.656 153.497H287.656C287.656 152.731 287.621 151.915 287.505 151.124C287.406 150.451 287.174 149.227 286.45 148.019L281.305 151.106L276.16 154.193C275.884 153.734 275.757 153.355 275.705 153.179C275.649 152.988 275.633 152.873 275.632 152.87C275.631 152.861 275.638 152.906 275.645 153.022C275.651 153.135 275.656 153.291 275.656 153.497H281.656ZM281.305 151.106L286.588 148.262C285.404 146.065 283.452 145.014 282.077 144.511L280.016 150.146L277.954 155.78C277.86 155.746 276.767 155.336 276.022 153.951L281.305 151.106ZM280.016 150.146H286.016V144.919H280.016H274.016V150.146H280.016ZM280.016 144.919V150.919H288.617V144.919V138.919H280.016V144.919ZM288.617 144.919H282.617V147.075H288.617H294.617V144.919H288.617ZM288.617 147.075L293.513 150.543C293.554 150.485 293.56 150.489 293.52 150.525C293.478 150.564 293.402 150.624 293.292 150.682L290.469 145.388L287.645 140.094C286.001 140.971 284.709 142.213 283.721 143.607L288.617 147.075ZM290.469 145.388L293.244 150.707C293.164 150.749 293.074 150.782 292.987 150.803C292.901 150.824 292.846 150.825 292.836 150.825V144.825V138.825C291.07 138.825 289.32 139.219 287.693 140.068L290.469 145.388ZM292.836 144.825V150.825C292.767 150.825 292.757 150.822 292.83 150.828C292.897 150.832 293.004 150.842 293.158 150.859L293.82 144.896L294.483 138.932C293.987 138.877 293.401 138.825 292.836 138.825V144.825ZM293.82 144.896L291.923 150.588C292.269 150.703 292.999 150.919 293.938 150.919V144.919V138.919C294.407 138.919 294.794 138.976 295.061 139.03C295.336 139.084 295.559 139.15 295.718 139.203L293.82 144.896ZM293.938 144.919H287.938V152.583H293.938H299.938V144.919H293.938ZM293.938 152.583V146.583C294.043 146.583 294.128 146.586 294.184 146.589C294.243 146.592 294.289 146.595 294.319 146.598C294.376 146.603 294.407 146.607 294.4 146.606L293.656 152.56L292.912 158.513C293.089 158.535 293.486 158.583 293.938 158.583V152.583ZM293.656 152.56L294.295 146.594C293.873 146.548 293.274 146.489 292.742 146.489V152.489V158.489C292.658 158.489 292.605 158.487 292.601 158.486C292.593 158.486 292.604 158.486 292.639 158.489C292.712 158.495 292.834 158.506 293.017 158.525L293.656 152.56ZM292.742 152.489V146.489C290.119 146.489 287.063 147.376 285.003 150.175L289.836 153.731L294.669 157.288C294.322 157.758 293.853 158.114 293.378 158.317C292.95 158.5 292.685 158.489 292.742 158.489V152.489ZM289.836 153.731L284.992 150.191C283.256 152.567 282.945 155.456 282.945 157.646H288.945H294.945C294.945 157.359 294.957 157.133 294.974 156.962C294.99 156.789 295.01 156.69 295.018 156.651C295.028 156.611 295.021 156.655 294.977 156.76C294.932 156.866 294.842 157.05 294.68 157.272L289.836 153.731ZM288.945 157.646H282.945V162.239H288.945H294.945V157.646H288.945Z" fill="white" mask="url(#path-11-outside-1_15326_26946)"/>
</g>
<defs>
<filter id="filter0_d_15326_26946" x="0.867188" y="0" width="307.07" height="196" filterUnits="userSpaceOnUse" color-interpolation-filters="sRGB">
<feFlood flood-opacity="0" result="BackgroundImageFix"/>
<feColorMatrix in="SourceAlpha" type="matrix" values="0 0 0 0 0 0 0 0 0 0 0 0 0 0 0 0 0 0 127 0" result="hardAlpha"/>
<feOffset dy="2"/>
<feGaussianBlur stdDeviation="4"/>
<feComposite in2="hardAlpha" operator="out"/>
<feColorMatrix type="matrix" values="0 0 0 0 0 0 0 0 0 0 0 0 0 0 0 0 0 0 0.4 0"/>
<feBlend mode="normal" in2="BackgroundImageFix" result="effect1_dropShadow_15326_26946"/>
<feBlend mode="normal" in="SourceGraphic" in2="effect1_dropShadow_15326_26946" result="shape"/>
</filter>
</defs>
</svg>
