<svg width="632" height="142" viewBox="0 0 632 142" fill="none" xmlns="http://www.w3.org/2000/svg">
<g filter="url(#filter0_d_15988_26695)">
<path d="M234.713 37.6084C238.572 37.6084 242.263 38.1796 245.761 39.3457L245.76 39.3467C249.283 40.5128 252.602 42.2779 255.709 44.6084L257.309 45.8076V65.1758H248.266C250.685 66.5167 252.684 68.0254 254.151 69.748C256.787 72.8433 258.035 76.8132 258.272 81.2764C259.194 79.5735 260.467 78.0434 262.086 76.7158C262.787 76.1412 263.609 75.5821 264.533 75.0342H258.83V58.9473L261.017 57.835C264.037 56.2978 267.1 55.1095 270.206 54.2852C273.323 53.4576 276.406 53.0313 279.447 53.0312C285.231 53.0312 290.367 54.1665 293.836 57.3682C297.411 60.6455 298.72 65.5871 298.72 71.1084V85.0371C298.72 85.9863 298.755 86.7201 298.808 87.2646L299.934 87.4756C299.889 86.7987 299.868 86.1096 299.868 85.4111V71.9678C299.868 66.127 301.347 60.9783 305.224 57.5732C308.985 54.266 314.445 53.0312 320.709 53.0312C326.964 53.0313 332.425 54.2624 336.149 57.5996C339.981 61.0072 341.438 66.1447 341.438 71.9678V85.4111C341.437 91.2232 339.973 96.3507 336.134 99.7549L336.118 99.7686C332.396 103.035 326.948 104.234 320.709 104.234C314.446 104.234 308.983 103.035 305.239 99.7803L305.224 99.7666C303.558 98.3037 302.336 96.5201 301.482 94.5V103.562H279.479V102.535C279.379 102.578 279.28 102.622 279.179 102.664L279.167 102.669L279.154 102.674C276.601 103.707 273.952 104.234 271.232 104.234C267.02 104.234 263.264 102.882 260.438 99.875L260.43 99.8652L260.421 99.8564C258.33 97.603 257.149 94.8391 256.695 91.7734C255.631 94.3985 254.032 96.7503 251.868 98.7764L251.869 98.7773C247.524 102.87 241.811 104.721 235.197 104.721C231.079 104.721 227.133 104.097 223.386 102.829L223.377 102.826C219.654 101.557 216.273 99.6988 213.261 97.2559L211.78 96.0547V92.541C210.817 95.2589 209.401 97.671 207.434 99.6709C203.063 104.113 196.664 105.795 189.418 105.795C185.192 105.795 181.15 105.3 177.31 104.284L177.293 104.28L177.276 104.275C173.442 103.232 169.951 101.709 166.862 99.6592L164.627 98.1758V37.7295H211.931V53.6514C212.74 49.4633 214.755 45.8493 218.073 43.0127C222.45 39.2667 228.147 37.6084 234.713 37.6084ZM390.761 37.7295C397.881 37.7295 404.242 39.206 408.471 43.3975C411.638 46.5174 413.283 50.8146 413.922 55.7217C416.167 54.732 418.438 53.9279 420.733 53.3184C423.926 52.4707 427.097 52.0312 430.231 52.0312C436.106 52.0313 441.553 53.1769 445.297 56.6318L445.298 56.6309C447.234 58.4054 448.535 60.6121 449.353 63.0811V52.8154H472.748C473.416 52.7159 474.094 52.666 474.779 52.666C475.266 52.666 475.802 52.7004 476.35 52.752L476.899 52.8086L476.961 52.8154H478.143V46.3857L499.868 39.7441V52.8154H525.932V53.084C527.396 52.7623 528.868 52.5908 530.342 52.5908C535.496 52.5908 540.436 53.8423 543.716 57.5986L543.718 57.5977C545.787 59.9314 546.922 62.9988 547.468 66.4121C548.208 62.6517 549.818 59.3175 552.657 56.8223C556.687 53.2789 562.442 52.0313 568.804 52.0312C575.081 52.0312 580.778 53.2987 584.761 56.8926C584.764 56.8952 584.768 56.8978 584.771 56.9004C584.774 56.9035 584.778 56.907 584.781 56.9102C585.659 57.6995 586.417 58.5685 587.067 59.5059V52.8154H610.462C611.13 52.7158 611.808 52.666 612.493 52.666C613.142 52.666 613.879 52.727 614.613 52.8086L614.675 52.8154H619.248V75.0264H614.248C613.871 75.0264 613.512 74.9882 613.268 74.959C612.949 74.9249 612.706 74.9032 612.529 74.8896C612.333 74.8745 612.29 74.8769 612.343 74.877C612.019 74.877 611.811 74.9077 611.692 74.9336C611.648 75.0424 611.586 75.2223 611.524 75.4951C611.393 76.0708 611.294 76.9154 611.294 78.0918V85.4111C611.294 85.861 611.304 86.2434 611.32 86.5645L613.908 87.2764V104.562H587.067V100.265C584.542 101.789 581.825 102.968 578.933 103.806C575.638 104.759 572.256 105.234 568.804 105.234C562.449 105.234 556.692 104.024 552.678 100.535L552.668 100.526L552.657 100.518C551.902 99.8539 551.235 99.1304 550.646 98.3564L550.674 104.562H528.861L528.546 103.671V104.562H501.706V104.076L501.236 104.214C500.035 104.565 498.844 104.838 497.668 105.024L497.667 105.023C496.533 105.206 495.409 105.31 494.308 105.31C489.414 105.31 484.746 103.901 481.736 99.9336L481.721 99.9121C480.25 97.9517 479.397 95.5287 478.888 93.0264C478.37 90.4821 478.143 87.5327 478.143 84.2529V75.0264H476.534C476.158 75.0264 475.798 74.9882 475.554 74.959C475.235 74.9249 474.992 74.9033 474.815 74.8896C474.618 74.8745 474.576 74.877 474.63 74.877C474.306 74.877 474.098 74.9077 473.979 74.9336C473.934 75.0424 473.873 75.2223 473.811 75.4951C473.68 76.0708 473.58 76.9154 473.58 78.0918V85.4111C473.58 85.861 473.59 86.2434 473.606 86.5645L476.194 87.2764V104.562H429.264V103.996C426.919 104.815 424.497 105.234 422.016 105.234C417.577 105.234 413.541 103.802 410.494 100.561L410.482 100.549L410.472 100.536C407.487 97.3197 406.262 93.1715 406.262 88.6963C406.262 86.4109 406.666 84.2692 407.465 82.3096C403.603 85.5308 398.162 86.7945 392.139 86.9561V104.562H363.245V85.9932L366.127 85.3525C366.145 85.0053 366.157 84.5912 366.157 84.1035V57.8154C366.157 57.3259 366.145 56.9119 366.127 56.5664L363.245 55.9268V37.7295H390.761ZM320.709 69.5449C320.49 69.5449 320.343 69.5636 320.254 69.5811C320.21 69.6942 320.148 69.8828 320.088 70.1699C319.973 70.7214 319.892 71.5048 319.892 72.5654V84.7393C319.892 85.8002 319.973 86.5769 320.087 87.1182C320.14 87.3713 320.194 87.542 320.234 87.6484C320.333 87.6658 320.487 87.6836 320.709 87.6836C320.891 87.6836 321.02 87.6691 321.106 87.6553C321.147 87.549 321.203 87.3768 321.257 87.1191C321.37 86.5775 321.451 85.8002 321.451 84.7393V72.5654C321.451 71.4895 321.37 70.701 321.256 70.1514C321.195 69.8584 321.132 69.6746 321.091 69.5723C321.009 69.559 320.885 69.5449 320.709 69.5449ZM525.932 85.4111C525.932 85.8612 525.942 86.2435 525.958 86.5645L526.201 86.6318V73.8721C526.201 72.6857 526.112 71.8427 525.996 71.2783C525.986 71.2302 525.973 71.186 525.963 71.1445C525.953 71.1444 525.942 71.1436 525.932 71.1436V85.4111ZM450.486 70.0518C450.497 70.4023 450.503 70.7546 450.503 71.1084V85.0371C450.503 85.5742 450.514 86.0339 450.532 86.4229L451.102 86.5293L451.917 86.4033C451.946 85.9513 451.967 85.3997 451.967 84.7383V71.4824C451.967 71.1327 451.957 70.8351 451.945 70.585L450.486 70.0518ZM499.868 83.3564C499.868 84.4526 499.919 85.3015 499.994 85.9365H504.295C504.309 85.5857 504.319 85.1872 504.319 84.7383V72.001H499.868V83.3564ZM232.552 81.042C232.552 83.385 233.022 84.3018 233.229 84.5635C233.354 84.7036 233.768 85.0693 235.197 85.0693C236.066 85.0693 236.426 84.8356 236.665 84.5967C236.902 84.3594 237.136 83.9994 237.136 83.1328C237.136 82.4308 236.94 82.0176 236.552 81.6289L236.537 81.6152L236.522 81.5996C236.049 81.1166 234.875 80.335 232.552 79.4062V81.042ZM189.343 76.9678C188.697 76.9678 188.398 77.0791 188.303 77.124L188.251 77.1484L188.2 77.1709C188.126 77.2038 187.896 77.3253 187.547 77.7432V81.1904C187.547 82.3378 187.654 83.1498 187.79 83.6934C187.86 83.9743 187.93 84.1506 187.978 84.251C188.122 84.3057 188.491 84.4053 189.194 84.4053C189.517 84.4053 189.734 84.3766 189.868 84.3506C189.922 84.206 189.996 83.9759 190.066 83.6338C190.214 82.9183 190.318 81.9004 190.318 80.5186C190.318 79.238 190.216 78.3089 190.077 77.668C190.005 77.3341 189.931 77.1249 189.883 77.0078C189.774 76.988 189.6 76.9678 189.343 76.9678ZM211.931 63.0391H208.117C208.211 63.1453 208.305 63.2529 208.396 63.3623C211.152 66.622 212.6 70.9607 213.169 75.9209H223.693C221.649 74.9739 219.928 73.994 218.599 72.9658L218.593 72.9619L218.587 72.957C216.277 71.1572 214.438 69.032 213.229 66.5479L213.202 66.4912C212.622 65.2484 212.205 63.9271 211.931 62.5439V63.0391ZM389.301 64.7266C390.119 64.7233 390.699 64.6642 391.087 64.5947C391.176 64.1479 391.251 63.4643 391.251 62.4834C391.251 61.2736 391.149 60.4663 391.031 59.9727C390.686 59.8987 390.13 59.8281 389.305 59.8281H389.301V64.7266ZM234.638 56.6992C233.477 56.6992 232.997 56.9881 232.775 57.1797L232.757 57.1963L232.737 57.2119C232.602 57.326 232.477 57.4343 232.477 57.9648C232.477 58.1369 232.508 58.2127 232.528 58.2539C232.552 58.3024 232.628 58.43 232.854 58.6201C233.116 58.8124 233.779 59.2053 235.071 59.7734C235.57 59.9929 236.135 60.2221 236.762 60.4678V60.168C236.762 58.2251 236.335 57.426 236.105 57.1465C235.979 56.9931 235.708 56.6992 234.638 56.6992Z" fill="white"/>
</g>
<g filter="url(#filter1_d_15988_26695)">
<path d="M76.1581 12C76.3632 12 76.5692 12.0184 76.7743 12.0371L76.8485 12.0488C77.0288 12.0327 77.2092 12.0186 77.3895 12.0186C79.4224 12.0186 81.2874 13.3047 81.9588 15.2803C82.2945 16.2308 82.63 17.1999 82.9657 18.1504C83.7117 20.3122 84.4951 22.5303 85.2411 24.7295C85.7633 26.2205 86.2669 27.7492 86.7518 29.2217C87.2367 30.6752 87.759 32.2035 88.2625 33.6758C89.0085 35.8377 89.7734 38.0559 90.5194 40.1807L90.9666 41.4482C91.8992 44.1321 92.7764 46.5183 94.0633 48.5498C94.9958 50.0405 95.8537 50.4688 96.5623 50.6738C98.2222 51.177 100.069 51.252 101.654 51.252C109.693 51.2706 117.88 51.2705 125.806 51.2891H135.468C135.71 51.2891 135.934 51.3076 136.121 51.3076C136.195 51.3076 136.27 51.3076 136.382 51.3262C138.396 51.4194 140.13 52.7434 140.764 54.6631C141.379 56.5827 140.765 58.6702 139.198 59.9375C139.086 60.0121 139.011 60.0865 138.918 60.1611C138.694 60.3475 138.47 60.5334 138.19 60.7197C136.362 62.043 134.815 63.162 133.248 64.2803C131.924 65.2309 130.6 66.1628 129.294 67.1133C127.616 68.3247 125.919 69.5172 124.24 70.7285C121.368 72.7974 118.347 74.9597 115.251 77.1963C114.989 77.3827 114.746 77.5685 114.485 77.7549C112.284 79.3391 110.195 80.8492 108.555 82.6191C107.585 83.682 107.026 84.6513 106.839 85.6572C106.578 87.0372 106.708 88.5655 107.267 90.4854C107.883 92.5914 108.591 94.6789 109.356 96.8789C109.636 97.7168 109.935 98.5556 110.215 99.3945C110.719 100.923 111.241 102.451 111.763 103.979C112.211 105.283 112.64 106.589 113.087 107.894C113.609 109.459 114.131 111.025 114.653 112.591C115.1 113.951 115.568 115.312 116.014 116.672C116.481 118.07 116.965 119.487 117.432 120.885L118.048 122.691C118.645 124.462 118.178 126.42 116.816 127.725C115.94 128.656 114.728 129.123 113.497 129.123C112.919 129.123 112.36 129.029 111.8 128.806C111.216 128.581 110.675 128.282 110.184 127.909C109.309 127.831 108.45 127.52 107.715 126.961C107.472 126.775 107.23 126.607 106.988 126.42C106.428 126.01 105.868 125.581 105.29 125.152C103.742 123.959 102.194 122.766 100.646 121.574C99.3223 120.548 97.9792 119.524 96.6551 118.499C96.077 118.052 95.4803 117.605 94.9022 117.139C93.3356 115.927 91.7307 114.677 90.1268 113.485C86.975 111.136 84.1029 109.086 80.951 107.651C79.5338 107.017 78.2656 106.7 77.0721 106.7H76.9969C75.7102 106.719 74.4421 107.017 73.0995 107.614C70.1528 108.937 67.3924 110.82 65.0985 112.479C62.5993 114.306 60.0626 116.188 57.9178 117.791C56.7428 118.667 55.5673 119.58 54.411 120.475C53.4787 121.201 52.5465 121.909 51.5955 122.617C50.1594 123.698 48.7043 124.799 47.3055 125.843L45.8319 126.941C44.7779 127.727 43.7088 127.971 42.9344 128.027C42.4738 128.362 41.971 128.635 41.4315 128.843C40.872 129.029 40.2936 129.122 39.7342 129.122C38.4846 129.122 37.2721 128.637 36.3582 127.742C35.0156 126.438 34.5488 124.482 35.1454 122.711L35.7801 120.828C36.2464 119.448 36.7123 118.069 37.1971 116.69C37.6633 115.311 38.1302 113.932 38.5965 112.571C39.1187 111.024 39.6408 109.478 40.1629 107.931C40.6105 106.608 41.0581 105.302 41.5057 103.979C42.0279 102.451 42.55 100.941 43.0536 99.4121C43.3332 98.5743 43.6322 97.7357 43.912 96.8789C44.6766 94.679 45.3853 92.6108 46.0194 90.5039C46.5788 88.6031 46.7277 87.0938 46.4481 85.7139C46.2429 84.7079 45.702 83.7387 44.7137 82.6758C43.0538 80.8868 40.9645 79.3959 38.7264 77.793C38.4653 77.6066 38.2041 77.4196 37.9618 77.252C34.8473 75.0156 31.7888 72.8352 28.8983 70.7852C27.2011 69.5738 25.5036 68.3804 23.8065 67.1689C22.4637 66.2185 21.1394 65.2865 19.8153 64.3359C18.0808 63.1058 16.3269 61.8575 14.8348 60.7764C14.5552 60.5714 14.332 60.3844 14.1082 60.2168C14.0336 60.1422 13.9399 60.0678 13.828 59.9932C12.2428 58.7445 11.609 56.6385 12.243 54.7188C12.8585 52.799 14.6115 51.4575 16.6258 51.3643C16.7189 51.3642 16.812 51.3448 16.8866 51.3447C17.0917 51.3261 17.2974 51.3262 17.5399 51.3262H27.2938C35.2762 51.3262 43.5383 51.3078 51.6512 51.2891C53.2551 51.2891 55.121 51.2142 56.8182 50.7109C57.5455 50.4873 58.422 50.0589 59.3729 48.5684C60.6785 46.5182 61.5545 44.1321 62.5057 41.4668L62.9725 40.1621C63.7185 38.0374 64.5018 35.8377 65.2479 33.6758C65.7513 32.2034 66.2737 30.6939 66.7586 29.2402C67.2621 27.7679 67.7843 26.239 68.2879 24.748C69.0526 22.5489 69.8359 20.3308 70.5819 18.1875C70.9175 17.2185 71.253 16.2493 71.5887 15.2988C72.2601 13.2861 74.1066 12.0002 76.1581 12ZM46.0936 18.4678C50.2713 18.4678 54.1694 20.0894 57.0789 23.0156C59.9697 25.9418 61.5545 29.8184 61.536 33.9561C61.5919 38.0005 60.0255 41.8404 57.1346 44.7852C54.2065 47.7671 50.1966 49.4629 46.0936 49.4629H46.0565V49.4443C41.8788 49.4256 37.9622 47.8042 35.0155 44.8408C32.106 41.9147 30.5202 38.0565 30.5389 33.9561C30.5575 29.7625 32.1433 25.8674 34.9969 22.9785C37.9064 20.0709 41.8228 18.4678 46.075 18.4678H46.0936ZM107.79 18.5234C111.893 18.5234 115.717 20.0706 118.589 22.8662C121.48 25.6992 123.103 29.5944 123.178 33.8252V33.8623C123.215 37.9627 121.648 41.8395 118.757 44.7656C115.903 47.6545 111.968 49.3319 107.977 49.3506H107.883C103.65 49.3505 99.6954 47.7484 96.786 44.8223C93.9138 41.952 92.3475 38.0936 92.3661 33.9746C92.3848 29.6692 94.0074 25.7365 96.9354 22.8662C99.7703 20.0891 103.594 18.5607 107.697 18.5234H107.79Z" fill="white"/>
</g>
<path d="M76.6999 68.0635C77.3153 70.7287 77.8935 73.599 78.6395 76.4506C79.684 80.4578 81.3625 84.2415 83.2276 87.9505C85.82 93.0945 89.0093 97.9035 92.5342 102.432C95.2945 105.992 98.2413 109.44 101.244 112.813C104.228 116.187 107.342 119.411 110.42 122.71C110.513 122.803 110.606 122.915 110.625 123.101C109.842 122.505 109.04 121.927 108.256 121.331C105.384 119.113 102.512 116.895 99.6214 114.677C97.4393 112.981 95.2572 111.285 93.0378 109.626C89.8485 107.259 86.622 104.929 82.9665 103.27C81.0641 102.394 79.0498 101.854 76.961 101.891C74.9281 101.91 72.9884 102.394 71.142 103.233C67.9714 104.65 65.0806 106.569 62.283 108.601C59.8584 110.372 57.4525 112.161 55.0465 113.969C52.9204 115.572 50.8315 117.193 48.7053 118.815C46.7843 120.268 44.8633 121.704 42.9423 123.139C42.8491 123.213 42.7372 123.269 42.5879 123.269C43.707 122.095 44.826 120.939 45.9077 119.747C48.4629 116.969 51.074 114.211 53.5545 111.359C55.9791 108.582 58.385 105.768 60.6231 102.823C62.8984 99.8045 65.0059 96.6545 67.0948 93.5045C69.3329 90.1315 71.142 86.5155 72.634 82.7685C73.6039 80.3087 74.4431 77.7926 75.1705 75.2578C75.7114 73.4312 75.9911 71.5302 76.4015 69.6663C76.5134 69.0326 76.6253 68.4176 76.6999 68.0635Z" fill="#888888"/>
<path d="M118.327 33.9188C118.383 39.9016 113.478 44.4866 107.939 44.5239C101.878 44.5611 97.1778 39.9202 97.2151 34.0119C97.2524 27.7123 101.971 23.4255 107.734 23.3882C113.534 23.3323 118.234 27.7309 118.327 33.9188Z" fill="#F57F20"/>
<path d="M76.1575 16.8457C75.0571 19.9955 73.9381 23.1454 72.8563 26.2952C71.8305 29.2773 70.8234 32.2594 69.7976 35.2415C68.9024 37.8509 67.9699 40.4416 67.056 43.0509C66.0675 45.8467 65.0417 48.6237 63.4564 51.1399C62.1882 53.1342 60.5469 54.6252 58.2156 55.3335C56.0708 55.9858 53.87 56.1163 51.6693 56.1163C40.2924 56.1349 28.9156 56.1349 17.5387 56.1536C17.3522 56.1536 17.1657 56.1722 16.8486 56.1908C17.203 56.4704 17.4268 56.6568 17.6692 56.8432C19.3291 58.036 20.9704 59.2102 22.6303 60.3844C25.6703 62.5278 28.6917 64.6898 31.7318 66.8332C34.7532 68.9953 37.7932 71.1573 40.8146 73.3193C43.4257 75.2018 46.1114 77.0097 48.3122 79.3953C49.7483 80.9425 50.83 82.6945 51.2403 84.8005C51.7066 87.2235 51.3895 89.6095 50.6994 91.9015C49.7856 94.9585 48.7038 97.9585 47.678 100.979C46.7269 103.812 45.7384 106.645 44.7872 109.496C43.7987 112.423 42.8102 115.349 41.8218 118.275C41.1317 120.288 40.4603 122.301 39.7702 124.314C40.0313 124.221 40.2178 124.072 40.367 123.904C43.9666 119.878 47.6221 115.871 51.147 111.789C53.7954 108.714 56.3506 105.545 58.887 102.377C61.8152 98.7045 64.4822 94.8465 66.8881 90.8205C69.9282 85.7325 72.3155 80.3645 73.7702 74.6053C74.5722 71.3996 75.1877 68.1565 75.4301 64.8576C75.6726 61.4095 76.0083 57.9615 76.0456 54.4948C76.1948 42.4172 76.2321 30.3397 76.3253 18.2435C76.3253 17.7962 76.3253 17.3489 76.3253 16.9016C76.2321 16.8457 76.1948 16.8457 76.1575 16.8457Z" fill="#2D5DAB"/>
<path d="M77.2959 16.8645C77.2959 17.3118 77.2959 17.7591 77.2959 18.2064C77.3705 30.284 77.4265 42.3615 77.5757 54.4577C77.613 57.9057 77.9487 61.3724 78.1911 64.8205C78.4149 68.1194 79.0304 71.3625 79.8324 74.5682C81.2685 80.3274 83.6184 85.6955 86.6398 90.7835C89.0271 94.8095 91.6755 98.6675 94.5663 102.339C97.0655 105.526 99.602 108.676 102.232 111.751C105.738 115.833 109.356 119.84 112.919 123.866C113.068 124.033 113.254 124.183 113.515 124.276C112.844 122.263 112.154 120.25 111.482 118.237C110.494 115.311 109.524 112.385 108.554 109.458C107.603 106.625 106.633 103.792 105.682 100.941C104.675 97.9215 103.593 94.9215 102.698 91.8645C102.027 89.5535 101.691 87.1675 102.157 84.7635C102.567 82.6575 103.63 80.9235 105.048 79.3582C107.23 76.9726 109.878 75.1647 112.471 73.2822C115.474 71.1202 118.458 68.9581 121.46 66.7961C124.463 64.6341 127.466 62.4907 130.469 60.3473C132.11 59.1731 133.751 57.9803 135.392 56.8061C135.635 56.6383 135.859 56.4333 136.194 56.1537C135.859 56.1351 135.691 56.1165 135.504 56.1165C124.239 56.0978 112.956 56.0978 101.691 56.0792C99.5087 56.0792 97.3266 55.9301 95.2005 55.2964C92.8878 54.5881 91.2465 53.0971 89.9969 51.1028C88.4116 48.5866 87.4045 45.8095 86.416 43.0138C85.5022 40.4045 84.5883 37.8138 83.693 35.2044C82.6673 32.2223 81.6788 29.2402 80.6717 26.2581C79.5899 23.1083 78.4895 19.9584 77.3892 16.8086C77.3519 16.8458 77.3145 16.8458 77.2959 16.8645Z" fill="#F57F20"/>
<path d="M56.6877 33.9559C56.7996 39.771 51.8572 44.5983 46.0755 44.5983C40.2006 44.5796 35.3701 39.8456 35.4074 33.9932C35.426 28.0103 39.9768 23.3321 46.0942 23.3135C52.137 23.2949 56.7437 28.1408 56.6877 33.9559Z" fill="#2D5DAB"/>
<path d="M169.627 42.7285H206.931V58.0384H194.721C194.546 56.3456 194.086 55.2005 193.339 54.603C192.592 53.9807 191.061 53.6695 188.746 53.6695H182.622V63.9383C184.414 63.2661 186.082 62.7807 187.626 62.482C189.169 62.1584 190.738 61.9966 192.331 61.9966C197.932 61.9966 202.015 63.5275 204.579 66.5895C207.168 69.6515 208.462 74.5805 208.462 81.3767C208.462 88.1227 206.931 93.0517 203.869 96.1637C200.832 99.2507 196.015 100.794 189.418 100.794C185.584 100.794 181.975 100.346 178.589 99.4497C175.204 98.5287 172.216 97.2097 169.627 95.4917V80.8907H182.547V81.1897C182.547 84.0527 183.07 86.1437 184.116 87.4627C185.186 88.7577 186.879 89.4047 189.194 89.4047C191.385 89.4047 192.953 88.7327 193.899 87.3887C194.845 86.0197 195.318 83.7287 195.318 80.5177C195.318 77.4807 194.845 75.3024 193.899 73.983C192.953 72.6388 191.435 71.9666 189.343 71.9666C188.124 71.9666 187.066 72.1782 186.169 72.6014C185.273 72.9997 184.452 73.647 183.705 74.5432H169.627V42.7285ZM384.301 69.7262H389.23C392.043 69.7262 393.91 69.2158 394.832 68.1952C395.778 67.1745 396.251 65.2701 396.251 62.482C396.251 59.5445 395.765 57.5405 394.794 56.4701C393.823 55.3747 391.994 54.8271 389.305 54.8271H384.301V69.7262ZM384.301 84.1027C384.301 86.4677 384.501 87.9857 384.899 88.6577C385.297 89.3057 386.044 89.7537 387.139 90.0027V99.5617H368.245V90.0027C369.365 89.7537 370.124 89.2927 370.523 88.6207C370.946 87.9237 371.157 86.4177 371.157 84.1027V57.8143C371.157 55.4992 370.946 54.0056 370.523 53.3334C370.124 52.6364 369.365 52.1634 368.245 51.9145V42.7285H390.761C397.383 42.7285 402.113 44.1351 404.951 46.9481C407.814 49.7611 409.245 54.4536 409.245 61.0257C409.245 69.0914 407.901 74.6054 405.212 77.5678C402.524 80.5053 397.707 81.9737 390.761 81.9737H384.301V84.1027ZM433.816 79.9203C429.633 81.5877 426.908 82.9577 425.638 84.0277C424.368 85.0737 423.734 86.3307 423.734 87.7997C423.734 88.8197 424.032 89.6417 424.63 90.2637C425.227 90.8617 426.049 91.1597 427.094 91.1597C428.115 91.1597 429.21 90.8117 430.38 90.1147C431.55 89.3927 432.695 88.3847 433.816 87.0897V79.9203ZM434.264 95.1927C432.496 96.8357 430.555 98.0927 428.439 98.9647C426.347 99.8107 424.207 100.234 422.016 100.234C418.705 100.234 416.079 99.2007 414.137 97.1347C412.22 95.0687 411.262 92.2557 411.262 88.6957C411.262 85.0357 412.643 82.0737 415.407 79.8083C418.17 77.5429 424.306 74.929 433.816 71.9666V69.5768C433.816 67.9587 433.48 66.7762 432.807 66.0294C432.135 65.2826 431.065 64.9092 429.596 64.9092C428.152 64.9092 427.082 65.3075 426.385 66.1041C425.688 66.9007 425.339 68.108 425.339 69.7262V71.0331H413.614V61.3991C416.402 59.9801 419.203 58.8972 422.016 58.1504C424.829 57.4036 427.567 57.0302 430.231 57.0302C435.658 57.0302 439.554 58.1255 441.919 60.3162C444.309 62.5069 445.503 66.1041 445.503 71.1078V85.0357C445.503 87.4007 445.69 88.9567 446.064 89.7037C446.462 90.4257 447.196 90.8857 448.267 91.0857V99.5617H434.264V95.1927ZM468.58 85.4097C468.58 87.5257 468.767 88.9317 469.14 89.6287C469.514 90.3257 470.198 90.8117 471.194 91.0857V99.5617H454.353V91.0857C455.324 90.9357 455.996 90.4377 456.37 89.5917C456.768 88.7207 456.967 87.1027 456.967 84.7377V71.4812C456.967 69.5643 456.78 68.2947 456.407 67.6724C456.059 67.0252 455.374 66.5148 454.353 66.1414V57.8143H468.057V61.2497C468.904 60.0548 469.887 59.1586 471.007 58.5612C472.153 57.9637 473.41 57.665 474.779 57.665C475.152 57.665 475.675 57.7023 476.347 57.777C476.422 57.8019 476.484 57.8143 476.534 57.8143V70.0249C476.434 70.0249 476.285 70.0124 476.086 69.9875C475.389 69.9129 474.903 69.8755 474.63 69.8755C472.514 69.8755 470.97 70.5352 469.999 71.8546C469.053 73.1491 468.58 75.2277 468.58 78.0906V85.4097ZM494.868 46.5V57.8143H499.835V67.0003H494.868V83.3557C494.868 86.3177 495.18 88.3217 495.802 89.3677C496.449 90.4127 497.607 90.9357 499.275 90.9357H499.835V99.4127C498.814 99.7107 497.831 99.9347 496.885 100.085C495.964 100.234 495.105 100.309 494.308 100.309C490.3 100.309 487.438 99.1757 485.72 96.9107C484.002 94.6207 483.143 90.4007 483.143 84.2517V67.0003H481.015V57.8143H483.143V50.0847L494.868 46.5ZM520.932 85.4097C520.932 87.5257 521.119 88.9317 521.493 89.6287C521.866 90.3257 522.551 90.8117 523.546 91.0857V99.5617H506.706V91.0857C507.676 90.9357 508.349 90.4377 508.722 89.5917C509.12 88.7207 509.319 87.1027 509.319 84.7377V71.4812C509.319 69.5643 509.133 68.2947 508.759 67.6724C508.411 67.0252 507.726 66.5148 506.706 66.1414V57.8143H520.932V60.3909C522.526 59.4698 524.119 58.7728 525.712 58.2998C527.305 57.8268 528.849 57.5903 530.342 57.5903C534.848 57.5903 538.06 58.6981 539.976 60.9137C541.918 63.1043 542.889 66.8882 542.889 72.2654V85.2597C542.889 87.5997 543.088 89.1437 543.487 89.8907C543.885 90.6127 544.594 91.0107 545.615 91.0857L545.652 99.5617H532.396C531.973 98.3667 531.662 96.8977 531.463 95.1557C531.288 93.4127 531.201 90.6747 531.201 86.9407V73.871C531.201 71.058 530.791 69.0665 529.969 67.8964C529.148 66.7264 527.791 66.1414 525.899 66.1414C525.102 66.1414 524.281 66.3157 523.434 66.6642C522.613 66.9878 521.779 67.4732 520.932 68.1205V85.4097ZM563.763 72.5641V73.7217H573.845V72.0413C573.845 69.8008 573.434 68.1578 572.613 67.1123C571.791 66.0667 570.521 65.544 568.804 65.544C567.036 65.544 565.754 66.1041 564.958 67.2243C564.161 68.3196 563.763 70.0996 563.763 72.5641ZM563.763 84.7377C563.763 87.2267 564.149 89.0067 564.92 90.0767C565.717 91.1477 567.011 91.6827 568.804 91.6827C570.472 91.6827 571.729 91.1847 572.575 90.1887C573.422 89.1937 573.845 87.6997 573.845 85.7077V85.4837H585.383V95.4167C582.993 96.9847 580.38 98.1797 577.542 99.0017C574.704 99.8227 571.791 100.234 568.804 100.234C562.904 100.234 558.622 99.0767 555.958 96.7607C553.295 94.4207 551.963 90.6367 551.963 85.4097V71.9666C551.963 66.714 553.295 62.9176 555.958 60.5776C558.647 58.2127 562.929 57.0302 568.804 57.0302C574.579 57.0302 578.786 58.2251 581.425 60.6149C584.064 62.9799 585.383 66.7638 585.383 71.9666V81.1147H563.763V84.7377ZM606.294 85.4097C606.294 87.5257 606.481 88.9317 606.854 89.6287C607.228 90.3257 607.912 90.8117 608.908 91.0857V99.5617H592.067V91.0857C593.038 90.9357 593.71 90.4377 594.084 89.5917C594.482 88.7207 594.681 87.1027 594.681 84.7377V71.4812C594.681 69.5643 594.494 68.2947 594.121 67.6724C593.773 67.0252 593.088 66.5148 592.067 66.1414V57.8143H605.771V61.2497C606.618 60.0548 607.601 59.1586 608.721 58.5612C609.867 57.9637 611.124 57.665 612.493 57.665C612.866 57.665 613.389 57.7023 614.061 57.777C614.136 57.8019 614.198 57.8143 614.248 57.8143V70.0249C614.148 70.0249 613.999 70.0124 613.8 69.9875C613.103 69.9129 612.617 69.8755 612.343 69.8755C610.228 69.8755 608.684 70.5352 607.713 71.8546C606.767 73.1491 606.294 75.2277 606.294 78.0906V85.4097Z" fill="#2D5DAB"/>
<path d="M215.781 94.1473V79.9199H228.552V81.0403C228.552 83.8033 229.087 85.8323 230.157 87.1263C231.253 88.4213 232.933 89.0683 235.198 89.0683C236.966 89.0683 238.397 88.5203 239.493 87.4253C240.588 86.3303 241.136 84.8983 241.136 83.1313C241.136 81.4133 240.551 79.9697 239.381 78.7996C238.235 77.6296 236.207 76.4969 233.294 75.4016C232.647 75.1527 231.713 74.8041 230.493 74.3561C226.062 72.7628 222.913 71.2443 221.046 69.8004C219.129 68.3068 217.723 66.6389 216.827 64.7967C215.955 62.9297 215.52 60.7017 215.52 58.1127C215.52 53.0094 217.237 48.989 220.673 46.0515C224.133 43.0891 228.813 41.6079 234.713 41.6079C238.173 41.6079 241.434 42.1182 244.496 43.1389C247.583 44.1596 250.521 45.7154 253.309 47.8065V61.1746H240.762V60.1664C240.762 57.7268 240.239 55.8722 239.194 54.6026C238.148 53.333 236.63 52.6982 234.638 52.6982C232.771 52.6982 231.278 53.1837 230.157 54.1545C229.037 55.1005 228.477 56.3701 228.477 57.9633C228.477 59.457 229.099 60.7141 230.344 61.7348C231.614 62.7305 234.501 64.0001 239.007 65.5436C244.932 67.56 248.965 69.8253 251.106 72.3396C253.247 74.8539 254.317 78.3764 254.317 82.9073C254.317 88.3093 252.587 92.6283 249.127 95.8643C245.691 99.1003 241.048 100.719 235.198 100.719C231.489 100.719 227.979 100.158 224.668 99.0383C221.382 97.9183 218.42 96.2873 215.781 94.1473ZM283.032 79.9199C278.85 81.5873 276.124 82.9573 274.855 84.0273C273.585 85.0733 272.95 86.3303 272.95 87.7993C272.95 88.8193 273.249 89.6413 273.846 90.2633C274.444 90.8613 275.265 91.1593 276.311 91.1593C277.332 91.1593 278.427 90.8113 279.597 90.1143C280.767 89.3923 281.912 88.3843 283.032 87.0893V79.9199ZM283.48 95.1923C281.713 96.8353 279.771 98.0923 277.655 98.9643C275.564 99.8103 273.423 100.233 271.233 100.233C267.922 100.233 265.295 99.2003 263.354 97.1343C261.437 95.0683 260.478 92.2553 260.478 88.6953C260.478 85.0353 261.86 82.0733 264.623 79.8079C267.386 77.5425 273.523 74.9286 283.032 71.9662V69.5764C283.032 67.9583 282.696 66.7758 282.024 66.029C281.352 65.2822 280.282 64.9088 278.813 64.9088C277.369 64.9088 276.298 65.3071 275.601 66.1037C274.904 66.9003 274.556 68.1076 274.556 69.7258V71.0327H262.831V61.3987C265.619 59.9797 268.419 58.8968 271.233 58.15C274.046 57.4032 276.784 57.0298 279.448 57.0298C284.874 57.0298 288.77 58.1251 291.135 60.3158C293.525 62.5065 294.72 66.1037 294.72 71.1074V85.0353C294.72 87.4003 294.907 88.9563 295.28 89.7033C295.678 90.4253 296.413 90.8853 297.483 91.0853V99.5613H283.48V95.1923ZM325.452 72.5637C325.452 70.0494 325.078 68.257 324.332 67.1866C323.585 66.0912 322.377 65.5436 320.709 65.5436C319.017 65.5436 317.784 66.0912 317.013 67.1866C316.266 68.2819 315.892 70.0743 315.892 72.5637V84.7373C315.892 87.2263 316.266 89.0063 317.013 90.0763C317.76 91.1473 318.992 91.6823 320.709 91.6823C322.377 91.6823 323.585 91.1473 324.332 90.0763C325.078 89.0063 325.452 87.2263 325.452 84.7373V72.5637ZM337.438 71.9662V85.4093C337.438 90.6363 336.119 94.4203 333.48 96.7603C330.841 99.0763 326.584 100.233 320.709 100.233C314.81 100.233 310.528 99.0763 307.864 96.7603C305.2 94.4203 303.869 90.6363 303.869 85.4093V71.9662C303.869 66.7136 305.2 62.9172 307.864 60.5772C310.553 58.2123 314.834 57.0298 320.709 57.0298C326.584 57.0298 330.841 58.2123 333.48 60.5772C336.119 62.9172 337.438 66.7136 337.438 71.9662Z" fill="#F57F20"/>
<defs>
<filter id="filter0_d_15988_26695" x="152.627" y="25.6084" width="478.621" height="92.1865" filterUnits="userSpaceOnUse" color-interpolation-filters="sRGB">
<feFlood flood-opacity="0" result="BackgroundImageFix"/>
<feColorMatrix in="SourceAlpha" type="matrix" values="0 0 0 0 0 0 0 0 0 0 0 0 0 0 0 0 0 0 127 0" result="hardAlpha"/>
<feOffset/>
<feGaussianBlur stdDeviation="6"/>
<feComposite in2="hardAlpha" operator="out"/>
<feColorMatrix type="matrix" values="0 0 0 0 0 0 0 0 0 0 0 0 0 0 0 0 0 0 0.32 0"/>
<feBlend mode="normal" in2="BackgroundImageFix" result="effect1_dropShadow_15988_26695"/>
<feBlend mode="normal" in="SourceGraphic" in2="effect1_dropShadow_15988_26695" result="shape"/>
</filter>
<filter id="filter1_d_15988_26695" x="0" y="0" width="153" height="141.123" filterUnits="userSpaceOnUse" color-interpolation-filters="sRGB">
<feFlood flood-opacity="0" result="BackgroundImageFix"/>
<feColorMatrix in="SourceAlpha" type="matrix" values="0 0 0 0 0 0 0 0 0 0 0 0 0 0 0 0 0 0 127 0" result="hardAlpha"/>
<feOffset/>
<feGaussianBlur stdDeviation="6"/>
<feComposite in2="hardAlpha" operator="out"/>
<feColorMatrix type="matrix" values="0 0 0 0 0 0 0 0 0 0 0 0 0 0 0 0 0 0 0.32 0"/>
<feBlend mode="normal" in2="BackgroundImageFix" result="effect1_dropShadow_15988_26695"/>
<feBlend mode="normal" in="SourceGraphic" in2="effect1_dropShadow_15988_26695" result="shape"/>
</filter>
</defs>
</svg>
