<svg width="628" height="180" viewBox="0 0 628 180" fill="none" xmlns="http://www.w3.org/2000/svg">
<g filter="url(#filter0_d_15326_26946)">
<path d="M38.5684 147.536C36.6474 147.536 34.9129 146.418 34.1296 144.647C33.3462 142.858 33.7006 140.77 35.0434 139.354C35.3978 138.981 35.7522 138.608 36.1065 138.235C36.8712 137.434 37.6172 136.651 38.3259 135.868C38.9601 135.179 39.5942 134.489 40.2469 133.8C42.1307 131.768 44.0703 129.662 45.8981 127.574C48.0429 125.114 50.5234 122.244 52.7615 119.299C54.925 116.447 56.8833 113.503 59.0654 110.241C61.0051 107.333 62.7023 104.016 64.1384 100.381C64.959 98.2938 65.7423 95.9641 66.5443 93.2802C66.8613 92.2178 67.0851 91.0436 67.3276 89.7948C67.4395 89.2357 67.5514 88.6393 67.682 88.0428C67.7566 87.6514 67.8312 87.26 67.9058 86.9246C67.9244 86.7941 67.9617 86.6636 67.9804 86.5518C68.4093 84.2966 70.3676 82.6564 72.6617 82.6191C72.6803 82.6191 72.7176 82.6191 72.7363 82.6191C74.993 82.6191 76.9513 84.1847 77.4549 86.384C77.6414 87.2041 77.8279 88.0428 78.0144 88.9002C78.4247 90.7827 78.8537 92.7397 79.3572 94.6221C80.4017 98.592 82.1735 102.338 83.5909 105.171C85.8849 109.7 88.7571 114.192 92.394 118.87C94.7067 121.852 97.3364 124.984 100.899 129.028C102.913 131.302 105.058 133.595 107.147 135.794C108.079 136.782 109.049 137.807 109.981 138.832C110.858 139.782 111.362 140.901 111.455 142.149C111.604 144.051 110.634 145.858 108.956 146.772C108.228 147.182 107.426 147.368 106.624 147.368C105.599 147.368 104.573 147.051 103.715 146.399C103.472 146.213 103.23 146.045 102.988 145.858C102.428 145.448 101.868 145.02 101.29 144.591C99.7423 143.398 98.1943 142.205 96.6463 141.013C95.3221 139.987 93.9793 138.962 92.6551 137.937C92.0769 137.49 91.4801 137.043 90.9019 136.577C89.3353 135.365 87.7313 134.116 86.1274 132.924C82.9754 130.575 80.1033 128.525 76.9513 127.09C75.5339 126.456 74.2656 126.139 73.072 126.139H72.9974C71.7105 126.158 70.4423 126.456 69.0994 127.053C66.1526 128.376 63.3923 130.258 61.0983 131.917C58.5991 133.744 56.0626 135.626 53.9178 137.229C52.7428 138.105 51.5679 139.018 50.4115 139.913C49.479 140.64 48.5465 141.348 47.5953 142.056C46.1592 143.137 44.7044 144.237 43.3056 145.281L41.8322 146.38C40.6573 147.256 39.4636 147.461 38.6803 147.48C38.643 147.536 38.6057 147.536 38.5684 147.536Z" fill="white"/>
<path d="M103.883 68.7894C99.6497 68.7894 95.6958 67.1866 92.7863 64.2604C89.9141 61.3901 88.3475 57.532 88.3661 53.413C88.3848 49.1075 90.0074 45.1749 92.9355 42.3046C95.7704 39.5275 99.5938 37.9992 103.697 37.9619H103.79C107.893 37.9619 111.717 39.5089 114.589 42.3046C117.48 45.1376 119.102 49.033 119.177 53.2638C119.177 53.2825 119.177 53.2825 119.177 53.3011C119.214 57.4015 117.648 61.2783 114.757 64.2044C111.903 67.0934 107.968 68.7708 103.977 68.7894H103.883Z" fill="white"/>
<path d="M35.734 148.561C34.4844 148.561 33.2721 148.076 32.3582 147.181C31.0154 145.877 30.5491 143.92 31.1459 142.149L31.78 140.267C32.2463 138.887 32.7126 137.508 33.1975 136.129C33.6637 134.75 34.13 133.371 34.5963 132.01C35.1185 130.463 35.6407 128.916 36.1629 127.369C36.6105 126.046 37.0582 124.741 37.5058 123.418C38.028 121.889 38.5502 120.38 39.0538 118.851C39.3335 118.013 39.6319 117.174 39.9117 116.317C40.6764 114.117 41.3851 112.049 42.0192 109.942C42.5787 108.041 42.7279 106.532 42.4482 105.152C42.243 104.146 41.7021 103.177 40.7137 102.114C39.0538 100.325 36.9649 98.8341 34.7268 97.2312C34.4657 97.0448 34.2046 96.8584 33.9622 96.6907C30.8475 94.4541 27.7888 92.2734 24.898 90.2232C23.2008 89.0118 21.5036 87.8189 19.8064 86.6074C18.4635 85.6569 17.1393 84.725 15.8151 83.7744C14.0806 82.5443 12.3275 81.2956 10.8354 80.2145C10.5557 80.0095 10.3319 79.8231 10.1081 79.6554C10.0335 79.5808 9.9402 79.5063 9.8283 79.4317C8.243 78.183 7.60888 76.0769 8.243 74.1571C8.85847 72.2374 10.6116 70.8955 12.6259 70.8023C12.7191 70.8023 12.8124 70.7836 12.887 70.7836C13.0921 70.765 13.2973 70.765 13.5398 70.765C16.785 70.765 20.0302 70.765 23.294 70.765C31.2765 70.765 39.5387 70.7464 47.6517 70.7277C49.2556 70.7277 51.1207 70.6532 52.8179 70.1499C53.5453 69.9263 54.4218 69.4976 55.373 68.0065C56.6786 65.9563 57.5551 63.5707 58.5063 60.9054L58.9726 59.6007C59.7186 57.476 60.5019 55.2767 61.248 53.1147C61.7515 51.6422 62.2737 50.1326 62.7587 48.6788C63.2622 47.2064 63.7844 45.678 64.288 44.187C65.0527 41.9877 65.836 39.7697 66.582 37.6263C66.9177 36.6572 67.2535 35.688 67.5892 34.7374C68.2606 32.7245 70.107 31.4385 72.1586 31.4385C72.3637 31.4385 72.5689 31.4571 72.774 31.4758L72.8859 31.4944C75.3105 31.8112 77.1196 33.8614 77.1196 36.303V36.7317C77.1196 37.0486 77.1196 37.3654 77.1196 37.7009C77.101 40.9999 77.0823 44.2802 77.0637 47.5791C77.0077 56.2272 76.9518 65.1735 76.8585 73.9708C76.8212 76.7292 76.616 79.469 76.4109 82.097C76.3549 82.9357 76.2803 83.7744 76.2244 84.5945C76.0006 87.8562 75.4224 91.3229 74.4339 95.1996C72.9232 101.164 70.4987 106.904 67.011 112.719C64.4745 116.932 61.6583 120.995 58.6369 124.797C56.175 127.891 53.508 131.209 50.7663 134.358C48.2299 137.303 45.5815 140.248 43.045 143.081C42.0192 144.237 40.9748 145.392 39.949 146.548C39.2589 147.331 38.401 147.908 37.4312 148.281C36.8716 148.467 36.2935 148.561 35.734 148.561Z" fill="white"/>
<path d="M109.497 148.561C108.919 148.561 108.36 148.467 107.8 148.244C106.83 147.871 105.972 147.293 105.282 146.51C104.257 145.355 103.231 144.199 102.205 143.062C99.6872 140.229 97.0575 137.284 94.5397 134.34C91.8353 131.171 89.187 127.872 86.7437 124.778C83.741 120.976 80.962 116.913 78.4442 112.701C74.9939 106.886 72.5879 101.164 71.0959 95.1995C70.1261 91.3228 69.5479 87.8561 69.3241 84.5944C69.2681 83.7557 69.2122 82.917 69.1376 82.0783C68.9324 79.4503 68.7273 76.7105 68.7086 73.952C68.5967 65.1362 68.5408 56.1899 68.5035 47.5418C68.4848 44.2614 68.4662 40.9811 68.4475 37.7008C68.4475 37.384 68.4475 37.0485 68.4475 36.7316V36.3216C68.4475 33.88 70.2566 31.8298 72.6625 31.5129L72.7744 31.4943C72.9796 31.4757 73.1848 31.457 73.3899 31.457C75.4228 31.457 77.2879 32.7431 77.9593 34.7187C78.295 35.6693 78.6307 36.6384 78.9664 37.589C79.7125 39.751 80.4958 41.969 81.2418 44.1683C81.764 45.6593 82.2676 47.1876 82.7525 48.6601C83.2374 50.1138 83.7596 51.6422 84.2632 53.1146C85.0092 55.2766 85.7739 57.4945 86.5199 59.6193L86.9675 60.8867C87.9001 63.5706 88.7766 65.9563 90.0635 67.9878C90.9961 69.4789 91.854 69.9076 92.5627 70.1126C94.2226 70.6158 96.069 70.6904 97.6543 70.6904C105.693 70.709 113.88 70.709 121.807 70.7276C125.033 70.7276 128.241 70.7276 131.468 70.7276C131.71 70.7276 131.934 70.7463 132.121 70.7463C132.195 70.7463 132.27 70.7463 132.382 70.7649C134.396 70.8581 136.13 72.1814 136.765 74.1011C137.38 76.0209 136.765 78.1083 135.198 79.3757C135.086 79.4503 135.011 79.5248 134.918 79.5994C134.694 79.7858 134.471 79.9722 134.191 80.1585C132.363 81.4818 130.815 82.6001 129.248 83.7184C127.924 84.669 126.6 85.6009 125.294 86.5514C123.616 87.7629 121.919 88.9558 120.24 90.1672C117.368 92.2361 114.347 94.3981 111.251 96.6347C110.989 96.8211 110.747 97.0074 110.486 97.1938C108.285 98.7781 106.196 100.288 104.555 102.058C103.585 103.121 103.026 104.09 102.839 105.096C102.578 106.476 102.709 108.004 103.268 109.924C103.884 112.03 104.592 114.117 105.357 116.317C105.637 117.155 105.935 117.994 106.215 118.833C106.719 120.361 107.241 121.889 107.763 123.418C108.211 124.722 108.64 126.027 109.087 127.332C109.609 128.897 110.132 130.463 110.654 132.029C111.101 133.389 111.568 134.75 112.015 136.11C112.482 137.508 112.966 138.925 113.433 140.323L114.048 142.13C114.645 143.901 114.179 145.858 112.817 147.163C111.941 148.095 110.728 148.561 109.497 148.561Z" fill="white"/>
<path d="M42.0563 68.8829C37.8785 68.8642 33.9619 67.2427 31.0151 64.2792C28.1056 61.3531 26.5203 57.495 26.539 53.3946C26.5576 49.201 28.1429 45.3056 30.9965 42.4167C33.906 39.5091 37.8226 37.9062 42.0749 37.9062H42.0936C46.2713 37.9062 50.1693 39.5278 53.0788 42.454C55.9696 45.3802 57.5549 49.2569 57.5363 53.3946C57.5922 57.439 56.0256 61.2785 53.1347 64.2233C50.2066 67.2054 46.1967 68.9015 42.0936 68.9015H42.0563V68.8829Z" fill="white"/>
<path d="M72.6996 87.502C73.315 90.1672 73.8932 93.0375 74.6392 95.8891C75.6837 99.8963 77.3622 103.68 79.2273 107.389C81.8197 112.533 85.009 117.342 88.5339 121.871C91.2942 125.431 94.241 128.879 97.2437 132.252C100.228 135.626 103.342 138.85 106.42 142.149C106.513 142.242 106.606 142.354 106.625 142.54C105.842 141.944 105.04 141.366 104.256 140.77C101.384 138.552 98.512 136.334 95.6211 134.116C93.439 132.42 91.2569 130.724 89.0375 129.065C85.8482 126.698 82.6217 124.368 78.9662 122.709C77.0638 121.833 75.0495 121.293 72.9607 121.33C70.9278 121.349 68.9881 121.833 67.1417 122.672C63.9711 124.089 61.0803 126.008 58.2827 128.04C55.8581 129.811 53.4522 131.6 51.0462 133.408C48.9201 135.011 46.8312 136.632 44.705 138.254C42.784 139.707 40.863 141.143 38.942 142.578C38.8488 142.652 38.7369 142.708 38.5876 142.708C39.7067 141.534 40.8257 140.378 41.9074 139.186C44.4626 136.408 47.0737 133.65 49.5542 130.798C51.9788 128.021 54.3847 125.207 56.6228 122.262C58.8981 119.243 61.0056 116.093 63.0945 112.943C65.3326 109.57 67.1417 105.954 68.6337 102.207C69.6036 99.7472 70.4428 97.2311 71.1702 94.6963C71.7111 92.8697 71.9908 90.9687 72.4012 89.1048C72.5131 88.4711 72.625 87.8561 72.6996 87.502Z" fill="#888888"/>
<path d="M114.327 53.3573C114.383 59.3401 109.478 63.9251 103.939 63.9624C97.8772 63.9996 93.1773 59.3587 93.2146 53.4504C93.2519 47.1508 97.9705 42.864 103.734 42.8267C109.534 42.7708 114.234 47.1694 114.327 53.3573Z" fill="#F57F20"/>
<path d="M72.158 36.2842C71.0576 39.434 69.9386 42.5839 68.8568 45.7337C67.831 48.7158 66.8239 51.6979 65.7981 54.68C64.9029 57.2894 63.9704 59.8801 63.0565 62.4894C62.068 65.2852 61.0422 68.0622 59.4569 70.5784C58.1887 72.5727 56.5474 74.0637 54.2161 74.772C52.0713 75.4243 49.8705 75.5548 47.6698 75.5548C36.2929 75.5734 24.9161 75.5734 13.5392 75.5921C13.3527 75.5921 13.1662 75.6107 12.8491 75.6293C13.2035 75.9089 13.4273 76.0953 13.6697 76.2817C15.3296 77.4745 16.9709 78.6487 18.6308 79.8229C21.6708 81.9663 24.6922 84.1283 27.7323 86.2717C30.7537 88.4338 33.7937 90.5958 36.8151 92.7578C39.4262 94.6403 42.1119 96.4482 44.3127 98.8338C45.7488 100.381 46.8305 102.133 47.2408 104.239C47.7071 106.662 47.39 109.048 46.6999 111.34C45.7861 114.397 44.7043 117.397 43.6785 120.417C42.7274 123.25 41.7389 126.083 40.7877 128.934C39.7992 131.861 38.8107 134.787 37.8223 137.713C37.1322 139.726 36.4608 141.739 35.7707 143.752C36.0318 143.659 36.2183 143.51 36.3675 143.342C39.9671 139.316 43.6226 135.309 47.1475 131.227C49.7959 128.152 52.3511 124.983 54.8875 121.815C57.8157 118.143 60.4827 114.285 62.8886 110.259C65.9287 105.171 68.316 99.803 69.7707 94.0438C70.5727 90.8381 71.1882 87.595 71.4306 84.2961C71.6731 80.848 72.0088 77.4 72.0461 73.9333C72.1953 61.8557 72.2326 49.7782 72.3258 37.682C72.3258 37.2347 72.3258 36.7874 72.3258 36.3401C72.2326 36.2842 72.1953 36.2842 72.158 36.2842Z" fill="#2D5DAB"/>
<path d="M73.2959 36.303C73.2959 36.7503 73.2959 37.1976 73.2959 37.6449C73.3705 49.7225 73.4265 61.8 73.5757 73.8962C73.613 77.3442 73.9487 80.8109 74.1911 84.259C74.4149 87.5579 75.0304 90.801 75.8324 94.0067C77.2685 99.7659 79.6184 105.134 82.6398 110.222C85.0271 114.248 87.6755 118.106 90.5663 121.778C93.0655 124.965 95.602 128.115 98.2317 131.19C101.738 135.272 105.356 139.279 108.919 143.305C109.068 143.472 109.254 143.622 109.515 143.715C108.844 141.702 108.154 139.689 107.482 137.676C106.494 134.75 105.524 131.824 104.554 128.897C103.603 126.064 102.633 123.231 101.682 120.38C100.675 117.36 99.5932 114.36 98.698 111.303C98.0266 108.992 97.6909 106.606 98.1571 104.202C98.5674 102.096 99.6305 100.362 101.048 98.7967C103.23 96.4111 105.878 94.6032 108.471 92.7207C111.474 90.5587 114.458 88.3966 117.46 86.2346C120.463 84.0726 123.466 81.9292 126.469 79.7858C128.11 78.6116 129.751 77.4188 131.392 76.2446C131.635 76.0768 131.859 75.8718 132.194 75.5922C131.859 75.5736 131.691 75.555 131.504 75.555C120.239 75.5363 108.956 75.5363 97.6909 75.5177C95.5087 75.5177 93.3266 75.3686 91.2005 74.7349C88.8878 74.0266 87.2465 72.5356 85.9969 70.5413C84.4116 68.0251 83.4045 65.248 82.416 62.4523C81.5022 59.843 80.5883 57.2523 79.693 54.6429C78.6673 51.6608 77.6788 48.6787 76.6717 45.6966C75.5899 42.5468 74.4895 39.3969 73.3892 36.2471C73.3519 36.2843 73.3145 36.2843 73.2959 36.303Z" fill="#F57F20"/>
<path d="M52.6875 53.3944C52.7994 59.2095 47.857 64.0368 42.0753 64.0368C36.2004 64.0181 31.3699 59.2841 31.4072 53.4317C31.4258 47.4488 35.9766 42.7706 42.094 42.752C48.1368 42.7334 52.7435 47.5793 52.6875 53.3944Z" fill="#2D5DAB"/>
<mask id="path-11-outside-1_15326_26946" maskUnits="userSpaceOnUse" x="156" y="51" width="464" height="79" fill="black">
<rect fill="white" x="156" y="51" width="464" height="79"/>
<path d="M165.627 62.1668H202.931V77.4767H190.721C190.546 75.7839 190.086 74.6388 189.339 74.0413C188.592 73.419 187.061 73.1078 184.746 73.1078H178.622V83.3766C180.414 82.7044 182.082 82.219 183.626 81.9203C185.169 81.5967 186.738 81.4349 188.331 81.4349C193.932 81.4349 198.015 82.9658 200.579 86.0278C203.168 89.0898 204.462 94.0188 204.462 100.815C204.462 107.561 202.931 112.49 199.869 115.602C196.832 118.689 192.015 120.232 185.418 120.232C181.584 120.232 177.975 119.784 174.589 118.888C171.204 117.967 168.216 116.648 165.627 114.93V100.329H178.547V100.628C178.547 103.491 179.07 105.582 180.116 106.901C181.186 108.196 182.879 108.843 185.194 108.843C187.385 108.843 188.953 108.171 189.899 106.827C190.845 105.458 191.318 103.167 191.318 99.956C191.318 96.919 190.845 94.7407 189.899 93.4213C188.953 92.0771 187.435 91.4049 185.343 91.4049C184.124 91.4049 183.066 91.6165 182.169 92.0397C181.273 92.438 180.452 93.0853 179.705 93.9815H165.627V62.1668ZM380.301 89.1645H385.23C388.043 89.1645 389.91 88.6541 390.832 87.6335C391.778 86.6128 392.251 84.7084 392.251 81.9203C392.251 78.9828 391.765 76.9788 390.794 75.9084C389.823 74.813 387.994 74.2654 385.305 74.2654H380.301V89.1645ZM380.301 103.541C380.301 105.906 380.501 107.424 380.899 108.096C381.297 108.744 382.044 109.192 383.139 109.441V119H364.245V109.441C365.365 109.192 366.124 108.731 366.523 108.059C366.946 107.362 367.157 105.856 367.157 103.541V77.2526C367.157 74.9375 366.946 73.4439 366.523 72.7717C366.124 72.0747 365.365 71.6017 364.245 71.3528V62.1668H386.761C393.383 62.1668 398.113 63.5734 400.951 66.3864C403.814 69.1994 405.245 73.8919 405.245 80.464C405.245 88.5297 403.901 94.0437 401.212 97.0061C398.524 99.9436 393.707 101.412 386.761 101.412H380.301V103.541ZM429.816 99.3586C425.633 101.026 422.908 102.396 421.638 103.466C420.368 104.512 419.734 105.769 419.734 107.238C419.734 108.258 420.032 109.08 420.63 109.702C421.227 110.3 422.049 110.598 423.094 110.598C424.115 110.598 425.21 110.25 426.38 109.553C427.55 108.831 428.695 107.823 429.816 106.528V99.3586ZM430.264 114.631C428.496 116.274 426.555 117.531 424.439 118.403C422.347 119.249 420.207 119.672 418.016 119.672C414.705 119.672 412.079 118.639 410.137 116.573C408.22 114.507 407.262 111.694 407.262 108.134C407.262 104.474 408.643 101.512 411.407 99.2466C414.17 96.9812 420.306 94.3673 429.816 91.4049V89.0151C429.816 87.397 429.48 86.2145 428.807 85.4677C428.135 84.7209 427.065 84.3475 425.596 84.3475C424.152 84.3475 423.082 84.7458 422.385 85.5424C421.688 86.339 421.339 87.5463 421.339 89.1645V90.4714H409.614V80.8374C412.402 79.4184 415.203 78.3355 418.016 77.5887C420.829 76.8419 423.567 76.4685 426.231 76.4685C431.658 76.4685 435.554 77.5638 437.919 79.7545C440.309 81.9452 441.503 85.5424 441.503 90.5461V104.474C441.503 106.839 441.69 108.395 442.064 109.142C442.462 109.864 443.196 110.324 444.267 110.524V119H430.264V114.631ZM464.58 104.848C464.58 106.964 464.767 108.37 465.14 109.067C465.514 109.764 466.198 110.25 467.194 110.524V119H450.353V110.524C451.324 110.374 451.996 109.876 452.37 109.03C452.768 108.159 452.967 106.541 452.967 104.176V90.9195C452.967 89.0026 452.78 87.733 452.407 87.1107C452.059 86.4635 451.374 85.9531 450.353 85.5797V77.2526H464.057V80.688C464.904 79.4931 465.887 78.5969 467.007 77.9995C468.153 77.402 469.41 77.1033 470.779 77.1033C471.152 77.1033 471.675 77.1406 472.347 77.2153C472.422 77.2402 472.484 77.2526 472.534 77.2526V89.4632C472.434 89.4632 472.285 89.4507 472.086 89.4258C471.389 89.3512 470.903 89.3138 470.63 89.3138C468.514 89.3138 466.97 89.9735 465.999 91.2929C465.053 92.5874 464.58 94.666 464.58 97.5289V104.848ZM490.868 65.9383V77.2526H495.835V86.4386H490.868V102.794C490.868 105.756 491.18 107.76 491.802 108.806C492.449 109.851 493.607 110.374 495.275 110.374H495.835V118.851C494.814 119.149 493.831 119.373 492.885 119.523C491.964 119.672 491.105 119.747 490.308 119.747C486.3 119.747 483.438 118.614 481.72 116.349C480.002 114.059 479.143 109.839 479.143 103.69V86.4386H477.015V77.2526H479.143V69.523L490.868 65.9383ZM516.932 104.848C516.932 106.964 517.119 108.37 517.493 109.067C517.866 109.764 518.551 110.25 519.546 110.524V119H502.706V110.524C503.676 110.374 504.349 109.876 504.722 109.03C505.12 108.159 505.319 106.541 505.319 104.176V90.9195C505.319 89.0026 505.133 87.733 504.759 87.1107C504.411 86.4635 503.726 85.9531 502.706 85.5797V77.2526H516.932V79.8292C518.526 78.9081 520.119 78.2111 521.712 77.7381C523.305 77.2651 524.849 77.0286 526.342 77.0286C530.848 77.0286 534.06 78.1364 535.976 80.352C537.918 82.5426 538.889 86.3265 538.889 91.7037V104.698C538.889 107.038 539.088 108.582 539.487 109.329C539.885 110.051 540.594 110.449 541.615 110.524L541.652 119H528.396C527.973 117.805 527.662 116.336 527.463 114.594C527.288 112.851 527.201 110.113 527.201 106.379V93.3093C527.201 90.4963 526.791 88.5048 525.969 87.3347C525.148 86.1647 523.791 85.5797 521.899 85.5797C521.102 85.5797 520.281 85.754 519.434 86.1025C518.613 86.4261 517.779 86.9115 516.932 87.5588V104.848ZM559.763 92.0024V93.16H569.845V91.4796C569.845 89.2391 569.434 87.5961 568.613 86.5506C567.791 85.505 566.521 84.9823 564.804 84.9823C563.036 84.9823 561.754 85.5424 560.958 86.6626C560.161 87.7579 559.763 89.5379 559.763 92.0024ZM559.763 104.176C559.763 106.665 560.149 108.445 560.92 109.515C561.717 110.586 563.011 111.121 564.804 111.121C566.472 111.121 567.729 110.623 568.575 109.627C569.422 108.632 569.845 107.138 569.845 105.146V104.922H581.383V114.855C578.993 116.423 576.38 117.618 573.542 118.44C570.704 119.261 567.791 119.672 564.804 119.672C558.904 119.672 554.622 118.515 551.958 116.199C549.295 113.859 547.963 110.075 547.963 104.848V91.4049C547.963 86.1523 549.295 82.3559 551.958 80.0159C554.647 77.651 558.929 76.4685 564.804 76.4685C570.579 76.4685 574.786 77.6634 577.425 80.0532C580.064 82.4182 581.383 86.2021 581.383 91.4049V100.553H559.763V104.176ZM602.294 104.848C602.294 106.964 602.481 108.37 602.854 109.067C603.228 109.764 603.912 110.25 604.908 110.524V119H588.067V110.524C589.038 110.374 589.71 109.876 590.084 109.03C590.482 108.159 590.681 106.541 590.681 104.176V90.9195C590.681 89.0026 590.494 87.733 590.121 87.1107C589.773 86.4635 589.088 85.9531 588.067 85.5797V77.2526H601.771V80.688C602.618 79.4931 603.601 78.5969 604.721 77.9995C605.867 77.402 607.124 77.1033 608.493 77.1033C608.866 77.1033 609.389 77.1406 610.061 77.2153C610.136 77.2402 610.198 77.2526 610.248 77.2526V89.4632C610.148 89.4632 609.999 89.4507 609.8 89.4258C609.103 89.3512 608.617 89.3138 608.343 89.3138C606.228 89.3138 604.684 89.9735 603.713 91.2929C602.767 92.5874 602.294 94.666 602.294 97.5289V104.848Z"/>
<path d="M211.781 113.586V99.3586H224.552V100.479C224.552 103.242 225.087 105.271 226.157 106.565C227.253 107.86 228.933 108.507 231.198 108.507C232.966 108.507 234.397 107.959 235.493 106.864C236.588 105.769 237.136 104.337 237.136 102.57C237.136 100.852 236.551 99.4084 235.381 98.2383C234.235 97.0683 232.207 95.9356 229.294 94.8403C228.647 94.5914 227.713 94.2428 226.493 93.7948C222.062 92.2015 218.913 90.683 217.046 89.2391C215.129 87.7455 213.723 86.0776 212.827 84.2354C211.955 82.3684 211.52 80.1404 211.52 77.5514C211.52 72.4481 213.237 68.4277 216.673 65.4902C220.133 62.5278 224.813 61.0466 230.713 61.0466C234.173 61.0466 237.434 61.5569 240.496 62.5776C243.583 63.5983 246.521 65.1541 249.309 67.2452V80.6133H236.762V79.6051C236.762 77.1655 236.239 75.3109 235.194 74.0413C234.148 72.7717 232.63 72.1369 230.638 72.1369C228.771 72.1369 227.278 72.6224 226.157 73.5932C225.037 74.5392 224.477 75.8088 224.477 77.402C224.477 78.8957 225.099 80.1528 226.344 81.1735C227.614 82.1692 230.501 83.4388 235.007 84.9823C240.932 86.9987 244.965 89.264 247.106 91.7783C249.247 94.2926 250.317 97.8151 250.317 102.346C250.317 107.748 248.587 112.067 245.127 115.303C241.691 118.539 237.048 120.158 231.198 120.158C227.489 120.158 223.979 119.597 220.668 118.477C217.382 117.357 214.42 115.726 211.781 113.586ZM279.032 99.3586C274.85 101.026 272.124 102.396 270.855 103.466C269.585 104.512 268.95 105.769 268.95 107.238C268.95 108.258 269.249 109.08 269.846 109.702C270.444 110.3 271.265 110.598 272.311 110.598C273.332 110.598 274.427 110.25 275.597 109.553C276.767 108.831 277.912 107.823 279.032 106.528V99.3586ZM279.48 114.631C277.713 116.274 275.771 117.531 273.655 118.403C271.564 119.249 269.423 119.672 267.233 119.672C263.922 119.672 261.295 118.639 259.354 116.573C257.437 114.507 256.478 111.694 256.478 108.134C256.478 104.474 257.86 101.512 260.623 99.2466C263.386 96.9812 269.523 94.3673 279.032 91.4049V89.0151C279.032 87.397 278.696 86.2145 278.024 85.4677C277.352 84.7209 276.282 84.3475 274.813 84.3475C273.369 84.3475 272.298 84.7458 271.601 85.5424C270.904 86.339 270.556 87.5463 270.556 89.1645V90.4714H258.831V80.8374C261.619 79.4184 264.419 78.3355 267.233 77.5887C270.046 76.8419 272.784 76.4685 275.448 76.4685C280.874 76.4685 284.77 77.5638 287.135 79.7545C289.525 81.9452 290.72 85.5424 290.72 90.5461V104.474C290.72 106.839 290.907 108.395 291.28 109.142C291.678 109.864 292.413 110.324 293.483 110.524V119H279.48V114.631ZM321.452 92.0024C321.452 89.4881 321.078 87.6957 320.332 86.6253C319.585 85.5299 318.377 84.9823 316.709 84.9823C315.017 84.9823 313.784 85.5299 313.013 86.6253C312.266 87.7206 311.892 89.513 311.892 92.0024V104.176C311.892 106.665 312.266 108.445 313.013 109.515C313.76 110.586 314.992 111.121 316.709 111.121C318.377 111.121 319.585 110.586 320.332 109.515C321.078 108.445 321.452 106.665 321.452 104.176V92.0024ZM333.438 91.4049V104.848C333.438 110.075 332.119 113.859 329.48 116.199C326.841 118.515 322.584 119.672 316.709 119.672C310.81 119.672 306.528 118.515 303.864 116.199C301.2 113.859 299.869 110.075 299.869 104.848V91.4049C299.869 86.1523 301.2 82.3559 303.864 80.0159C306.553 77.651 310.834 76.4685 316.709 76.4685C322.584 76.4685 326.841 77.651 329.48 80.0159C332.119 82.3559 333.438 86.1523 333.438 91.4049Z"/>
</mask>
<path d="M165.627 62.1668H202.931V77.4767H190.721C190.546 75.7839 190.086 74.6388 189.339 74.0413C188.592 73.419 187.061 73.1078 184.746 73.1078H178.622V83.3766C180.414 82.7044 182.082 82.219 183.626 81.9203C185.169 81.5967 186.738 81.4349 188.331 81.4349C193.932 81.4349 198.015 82.9658 200.579 86.0278C203.168 89.0898 204.462 94.0188 204.462 100.815C204.462 107.561 202.931 112.49 199.869 115.602C196.832 118.689 192.015 120.232 185.418 120.232C181.584 120.232 177.975 119.784 174.589 118.888C171.204 117.967 168.216 116.648 165.627 114.93V100.329H178.547V100.628C178.547 103.491 179.07 105.582 180.116 106.901C181.186 108.196 182.879 108.843 185.194 108.843C187.385 108.843 188.953 108.171 189.899 106.827C190.845 105.458 191.318 103.167 191.318 99.956C191.318 96.919 190.845 94.7407 189.899 93.4213C188.953 92.0771 187.435 91.4049 185.343 91.4049C184.124 91.4049 183.066 91.6165 182.169 92.0397C181.273 92.438 180.452 93.0853 179.705 93.9815H165.627V62.1668ZM380.301 89.1645H385.23C388.043 89.1645 389.91 88.6541 390.832 87.6335C391.778 86.6128 392.251 84.7084 392.251 81.9203C392.251 78.9828 391.765 76.9788 390.794 75.9084C389.823 74.813 387.994 74.2654 385.305 74.2654H380.301V89.1645ZM380.301 103.541C380.301 105.906 380.501 107.424 380.899 108.096C381.297 108.744 382.044 109.192 383.139 109.441V119H364.245V109.441C365.365 109.192 366.124 108.731 366.523 108.059C366.946 107.362 367.157 105.856 367.157 103.541V77.2526C367.157 74.9375 366.946 73.4439 366.523 72.7717C366.124 72.0747 365.365 71.6017 364.245 71.3528V62.1668H386.761C393.383 62.1668 398.113 63.5734 400.951 66.3864C403.814 69.1994 405.245 73.8919 405.245 80.464C405.245 88.5297 403.901 94.0437 401.212 97.0061C398.524 99.9436 393.707 101.412 386.761 101.412H380.301V103.541ZM429.816 99.3586C425.633 101.026 422.908 102.396 421.638 103.466C420.368 104.512 419.734 105.769 419.734 107.238C419.734 108.258 420.032 109.08 420.63 109.702C421.227 110.3 422.049 110.598 423.094 110.598C424.115 110.598 425.21 110.25 426.38 109.553C427.55 108.831 428.695 107.823 429.816 106.528V99.3586ZM430.264 114.631C428.496 116.274 426.555 117.531 424.439 118.403C422.347 119.249 420.207 119.672 418.016 119.672C414.705 119.672 412.079 118.639 410.137 116.573C408.22 114.507 407.262 111.694 407.262 108.134C407.262 104.474 408.643 101.512 411.407 99.2466C414.17 96.9812 420.306 94.3673 429.816 91.4049V89.0151C429.816 87.397 429.48 86.2145 428.807 85.4677C428.135 84.7209 427.065 84.3475 425.596 84.3475C424.152 84.3475 423.082 84.7458 422.385 85.5424C421.688 86.339 421.339 87.5463 421.339 89.1645V90.4714H409.614V80.8374C412.402 79.4184 415.203 78.3355 418.016 77.5887C420.829 76.8419 423.567 76.4685 426.231 76.4685C431.658 76.4685 435.554 77.5638 437.919 79.7545C440.309 81.9452 441.503 85.5424 441.503 90.5461V104.474C441.503 106.839 441.69 108.395 442.064 109.142C442.462 109.864 443.196 110.324 444.267 110.524V119H430.264V114.631ZM464.58 104.848C464.58 106.964 464.767 108.37 465.14 109.067C465.514 109.764 466.198 110.25 467.194 110.524V119H450.353V110.524C451.324 110.374 451.996 109.876 452.37 109.03C452.768 108.159 452.967 106.541 452.967 104.176V90.9195C452.967 89.0026 452.78 87.733 452.407 87.1107C452.059 86.4635 451.374 85.9531 450.353 85.5797V77.2526H464.057V80.688C464.904 79.4931 465.887 78.5969 467.007 77.9995C468.153 77.402 469.41 77.1033 470.779 77.1033C471.152 77.1033 471.675 77.1406 472.347 77.2153C472.422 77.2402 472.484 77.2526 472.534 77.2526V89.4632C472.434 89.4632 472.285 89.4507 472.086 89.4258C471.389 89.3512 470.903 89.3138 470.63 89.3138C468.514 89.3138 466.97 89.9735 465.999 91.2929C465.053 92.5874 464.58 94.666 464.58 97.5289V104.848ZM490.868 65.9383V77.2526H495.835V86.4386H490.868V102.794C490.868 105.756 491.18 107.76 491.802 108.806C492.449 109.851 493.607 110.374 495.275 110.374H495.835V118.851C494.814 119.149 493.831 119.373 492.885 119.523C491.964 119.672 491.105 119.747 490.308 119.747C486.3 119.747 483.438 118.614 481.72 116.349C480.002 114.059 479.143 109.839 479.143 103.69V86.4386H477.015V77.2526H479.143V69.523L490.868 65.9383ZM516.932 104.848C516.932 106.964 517.119 108.37 517.493 109.067C517.866 109.764 518.551 110.25 519.546 110.524V119H502.706V110.524C503.676 110.374 504.349 109.876 504.722 109.03C505.12 108.159 505.319 106.541 505.319 104.176V90.9195C505.319 89.0026 505.133 87.733 504.759 87.1107C504.411 86.4635 503.726 85.9531 502.706 85.5797V77.2526H516.932V79.8292C518.526 78.9081 520.119 78.2111 521.712 77.7381C523.305 77.2651 524.849 77.0286 526.342 77.0286C530.848 77.0286 534.06 78.1364 535.976 80.352C537.918 82.5426 538.889 86.3265 538.889 91.7037V104.698C538.889 107.038 539.088 108.582 539.487 109.329C539.885 110.051 540.594 110.449 541.615 110.524L541.652 119H528.396C527.973 117.805 527.662 116.336 527.463 114.594C527.288 112.851 527.201 110.113 527.201 106.379V93.3093C527.201 90.4963 526.791 88.5048 525.969 87.3347C525.148 86.1647 523.791 85.5797 521.899 85.5797C521.102 85.5797 520.281 85.754 519.434 86.1025C518.613 86.4261 517.779 86.9115 516.932 87.5588V104.848ZM559.763 92.0024V93.16H569.845V91.4796C569.845 89.2391 569.434 87.5961 568.613 86.5506C567.791 85.505 566.521 84.9823 564.804 84.9823C563.036 84.9823 561.754 85.5424 560.958 86.6626C560.161 87.7579 559.763 89.5379 559.763 92.0024ZM559.763 104.176C559.763 106.665 560.149 108.445 560.92 109.515C561.717 110.586 563.011 111.121 564.804 111.121C566.472 111.121 567.729 110.623 568.575 109.627C569.422 108.632 569.845 107.138 569.845 105.146V104.922H581.383V114.855C578.993 116.423 576.38 117.618 573.542 118.44C570.704 119.261 567.791 119.672 564.804 119.672C558.904 119.672 554.622 118.515 551.958 116.199C549.295 113.859 547.963 110.075 547.963 104.848V91.4049C547.963 86.1523 549.295 82.3559 551.958 80.0159C554.647 77.651 558.929 76.4685 564.804 76.4685C570.579 76.4685 574.786 77.6634 577.425 80.0532C580.064 82.4182 581.383 86.2021 581.383 91.4049V100.553H559.763V104.176ZM602.294 104.848C602.294 106.964 602.481 108.37 602.854 109.067C603.228 109.764 603.912 110.25 604.908 110.524V119H588.067V110.524C589.038 110.374 589.71 109.876 590.084 109.03C590.482 108.159 590.681 106.541 590.681 104.176V90.9195C590.681 89.0026 590.494 87.733 590.121 87.1107C589.773 86.4635 589.088 85.9531 588.067 85.5797V77.2526H601.771V80.688C602.618 79.4931 603.601 78.5969 604.721 77.9995C605.867 77.402 607.124 77.1033 608.493 77.1033C608.866 77.1033 609.389 77.1406 610.061 77.2153C610.136 77.2402 610.198 77.2526 610.248 77.2526V89.4632C610.148 89.4632 609.999 89.4507 609.8 89.4258C609.103 89.3512 608.617 89.3138 608.343 89.3138C606.228 89.3138 604.684 89.9735 603.713 91.2929C602.767 92.5874 602.294 94.666 602.294 97.5289V104.848Z" fill="#2D5DAB"/>
<path d="M211.781 113.586V99.3586H224.552V100.479C224.552 103.242 225.087 105.271 226.157 106.565C227.253 107.86 228.933 108.507 231.198 108.507C232.966 108.507 234.397 107.959 235.493 106.864C236.588 105.769 237.136 104.337 237.136 102.57C237.136 100.852 236.551 99.4084 235.381 98.2383C234.235 97.0683 232.207 95.9356 229.294 94.8403C228.647 94.5914 227.713 94.2428 226.493 93.7948C222.062 92.2015 218.913 90.683 217.046 89.2391C215.129 87.7455 213.723 86.0776 212.827 84.2354C211.955 82.3684 211.52 80.1404 211.52 77.5514C211.52 72.4481 213.237 68.4277 216.673 65.4902C220.133 62.5278 224.813 61.0466 230.713 61.0466C234.173 61.0466 237.434 61.5569 240.496 62.5776C243.583 63.5983 246.521 65.1541 249.309 67.2452V80.6133H236.762V79.6051C236.762 77.1655 236.239 75.3109 235.194 74.0413C234.148 72.7717 232.63 72.1369 230.638 72.1369C228.771 72.1369 227.278 72.6224 226.157 73.5932C225.037 74.5392 224.477 75.8088 224.477 77.402C224.477 78.8957 225.099 80.1528 226.344 81.1735C227.614 82.1692 230.501 83.4388 235.007 84.9823C240.932 86.9987 244.965 89.264 247.106 91.7783C249.247 94.2926 250.317 97.8151 250.317 102.346C250.317 107.748 248.587 112.067 245.127 115.303C241.691 118.539 237.048 120.158 231.198 120.158C227.489 120.158 223.979 119.597 220.668 118.477C217.382 117.357 214.42 115.726 211.781 113.586ZM279.032 99.3586C274.85 101.026 272.124 102.396 270.855 103.466C269.585 104.512 268.95 105.769 268.95 107.238C268.95 108.258 269.249 109.08 269.846 109.702C270.444 110.3 271.265 110.598 272.311 110.598C273.332 110.598 274.427 110.25 275.597 109.553C276.767 108.831 277.912 107.823 279.032 106.528V99.3586ZM279.48 114.631C277.713 116.274 275.771 117.531 273.655 118.403C271.564 119.249 269.423 119.672 267.233 119.672C263.922 119.672 261.295 118.639 259.354 116.573C257.437 114.507 256.478 111.694 256.478 108.134C256.478 104.474 257.86 101.512 260.623 99.2466C263.386 96.9812 269.523 94.3673 279.032 91.4049V89.0151C279.032 87.397 278.696 86.2145 278.024 85.4677C277.352 84.7209 276.282 84.3475 274.813 84.3475C273.369 84.3475 272.298 84.7458 271.601 85.5424C270.904 86.339 270.556 87.5463 270.556 89.1645V90.4714H258.831V80.8374C261.619 79.4184 264.419 78.3355 267.233 77.5887C270.046 76.8419 272.784 76.4685 275.448 76.4685C280.874 76.4685 284.77 77.5638 287.135 79.7545C289.525 81.9452 290.72 85.5424 290.72 90.5461V104.474C290.72 106.839 290.907 108.395 291.28 109.142C291.678 109.864 292.413 110.324 293.483 110.524V119H279.48V114.631ZM321.452 92.0024C321.452 89.4881 321.078 87.6957 320.332 86.6253C319.585 85.5299 318.377 84.9823 316.709 84.9823C315.017 84.9823 313.784 85.5299 313.013 86.6253C312.266 87.7206 311.892 89.513 311.892 92.0024V104.176C311.892 106.665 312.266 108.445 313.013 109.515C313.76 110.586 314.992 111.121 316.709 111.121C318.377 111.121 319.585 110.586 320.332 109.515C321.078 108.445 321.452 106.665 321.452 104.176V92.0024ZM333.438 91.4049V104.848C333.438 110.075 332.119 113.859 329.48 116.199C326.841 118.515 322.584 119.672 316.709 119.672C310.81 119.672 306.528 118.515 303.864 116.199C301.2 113.859 299.869 110.075 299.869 104.848V91.4049C299.869 86.1523 301.2 82.3559 303.864 80.0159C306.553 77.651 310.834 76.4685 316.709 76.4685C322.584 76.4685 326.841 77.651 329.48 80.0159C332.119 82.3559 333.438 86.1523 333.438 91.4049Z" fill="#F57F20"/>
<path d="M165.627 62.1668V52.6075H156.068V62.1668H165.627ZM202.931 62.1668H212.49V52.6075H202.931V62.1668ZM202.931 77.4767V87.036H212.49V77.4767H202.931ZM190.721 77.4767L181.212 78.4556L182.095 87.036H190.721V77.4767ZM189.339 74.0413L183.219 81.385L183.293 81.4462L183.367 81.5059L189.339 74.0413ZM178.622 73.1078V63.5485H169.063V73.1078H178.622ZM178.622 83.3766H169.063V97.1707L181.979 92.3273L178.622 83.3766ZM183.626 81.9203L185.442 91.3054L185.515 91.2914L185.587 91.2762L183.626 81.9203ZM200.579 86.0278L193.25 92.1651L193.264 92.1825L193.279 92.1999L200.579 86.0278ZM199.869 115.602L193.055 108.897L193.055 108.898L199.869 115.602ZM174.589 118.888L172.08 128.112L172.111 128.121L172.143 128.129L174.589 118.888ZM165.627 114.93H156.068V120.059L160.343 122.895L165.627 114.93ZM165.627 100.329V90.7701H156.068V100.329H165.627ZM178.547 100.329H188.107V90.7701H178.547V100.329ZM180.116 106.901L172.624 112.839L172.685 112.917L172.749 112.993L180.116 106.901ZM189.899 106.827L197.717 112.328L197.74 112.294L197.764 112.261L189.899 106.827ZM189.899 93.4213L182.081 98.9227L182.106 98.9572L182.13 98.9914L189.899 93.4213ZM182.169 92.0397L186.052 100.775L186.152 100.731L186.251 100.684L182.169 92.0397ZM179.705 93.9815V103.541H184.182L187.049 100.101L179.705 93.9815ZM165.627 93.9815H156.068V103.541H165.627V93.9815ZM165.627 62.1668V71.7262H202.931V62.1668V52.6075H165.627V62.1668ZM202.931 62.1668H193.372V77.4767H202.931H212.49V62.1668H202.931ZM202.931 77.4767V67.9174H190.721V77.4767V87.036H202.931V77.4767ZM190.721 77.4767L200.23 76.4978C199.981 74.0844 199.141 69.6412 195.311 66.5767L189.339 74.0413L183.367 81.5059C182.135 80.5197 181.585 79.4367 181.376 78.9151C181.174 78.4128 181.184 78.1876 181.212 78.4556L190.721 77.4767ZM189.339 74.0413L195.459 66.6976C193.346 64.9371 191.008 64.2729 189.535 63.9734C187.921 63.6454 186.269 63.5485 184.746 63.5485V73.1078V82.6671C185.539 82.6671 185.809 82.7257 185.727 82.7089C185.67 82.6973 185.403 82.6406 185.007 82.4782C184.617 82.3183 183.951 81.995 183.219 81.385L189.339 74.0413ZM184.746 73.1078V63.5485H178.622V73.1078V82.6671H184.746V73.1078ZM178.622 73.1078H169.063V83.3766H178.622H188.181V73.1078H178.622ZM178.622 83.3766L181.979 92.3273C183.374 91.8039 184.522 91.4836 185.442 91.3054L183.626 81.9203L181.809 72.5351C179.643 72.9544 177.455 73.605 175.266 74.4259L178.622 83.3766ZM183.626 81.9203L185.587 91.2762C186.479 91.0892 187.39 90.9942 188.331 90.9942V81.4349V71.8755C186.085 71.8755 183.859 72.1041 181.664 72.5644L183.626 81.9203ZM188.331 81.4349V90.9942C192.292 90.9942 193.147 92.0428 193.25 92.1651L200.579 86.0278L207.908 79.8905C202.882 73.8889 195.572 71.8755 188.331 71.8755V81.4349ZM200.579 86.0278L193.279 92.1999C193.691 92.6875 194.903 94.8389 194.903 100.815H204.462H214.021C214.021 93.1987 212.644 85.4921 207.878 79.8557L200.579 86.0278ZM204.462 100.815H194.903C194.903 106.385 193.604 108.34 193.055 108.897L199.869 115.602L206.683 122.307C212.258 116.641 214.021 108.737 214.021 100.815H204.462ZM199.869 115.602L193.055 108.898C192.567 109.394 190.773 110.673 185.418 110.673V120.232V129.792C193.257 129.792 201.097 127.984 206.683 122.306L199.869 115.602ZM185.418 120.232V110.673C182.333 110.673 179.551 110.313 177.035 109.647L174.589 118.888L172.143 128.129C176.398 129.255 180.836 129.792 185.418 129.792V120.232ZM174.589 118.888L177.099 109.664C174.574 108.977 172.547 108.049 170.912 106.964L165.627 114.93L160.343 122.895C163.886 125.246 167.834 126.957 172.08 128.112L174.589 118.888ZM165.627 114.93H175.187V100.329H165.627H156.068V114.93H165.627ZM165.627 100.329V109.889H178.547V100.329V90.7701H165.627V100.329ZM178.547 100.329H168.988V100.628H178.547H188.107V100.329H178.547ZM178.547 100.628H168.988C168.988 104.275 169.583 109.001 172.624 112.839L180.116 106.901L187.608 100.964C188.131 101.625 188.234 102.108 188.213 102.025C188.206 101.995 188.178 101.87 188.152 101.627C188.126 101.386 188.107 101.057 188.107 100.628H178.547ZM180.116 106.901L172.749 112.993C176.252 117.23 181.164 118.403 185.194 118.403V108.843V99.2839C184.894 99.2839 185.103 99.238 185.602 99.4289C186.171 99.6463 186.885 100.087 187.483 100.81L180.116 106.901ZM185.194 108.843V118.403C189.36 118.403 194.414 117.022 197.717 112.328L189.899 106.827L182.081 101.325C182.668 100.491 183.468 99.887 184.248 99.5527C184.94 99.2562 185.347 99.2839 185.194 99.2839V108.843ZM189.899 106.827L197.764 112.261C200.442 108.384 200.877 103.586 200.877 99.956H191.318H181.759C181.759 101.134 181.668 101.826 181.602 102.149C181.571 102.298 181.561 102.291 181.607 102.171C181.654 102.051 181.777 101.765 182.034 101.393L189.899 106.827ZM191.318 99.956H200.877C200.877 96.4165 200.421 91.6906 197.668 87.8512L189.899 93.4213L182.13 98.9914C181.863 98.6181 181.723 98.3177 181.662 98.1656C181.601 98.0147 181.599 97.9701 181.622 98.073C181.644 98.1738 181.68 98.3768 181.709 98.7027C181.738 99.0265 181.759 99.4407 181.759 99.956H191.318ZM189.899 93.4213L197.717 87.92C194.498 83.3464 189.601 81.8456 185.343 81.8456V91.4049V100.964C185.39 100.964 184.913 100.974 184.182 100.65C183.372 100.292 182.617 99.684 182.081 98.9227L189.899 93.4213ZM185.343 91.4049V81.8456C183.031 81.8456 180.52 82.2471 178.088 83.3957L182.169 92.0397L186.251 100.684C185.611 100.986 185.217 100.964 185.343 100.964V91.4049ZM182.169 92.0397L178.287 83.3043C175.821 84.4002 173.87 86.0514 172.361 87.8617L179.705 93.9815L187.049 100.101C187.034 100.119 186.725 100.476 186.052 100.775L182.169 92.0397ZM179.705 93.9815V84.4221H165.627V93.9815V103.541H179.705V93.9815ZM165.627 93.9815H175.187V62.1668H165.627H156.068V93.9815H165.627ZM211.781 113.586H202.222V118.14L205.758 121.009L211.781 113.586ZM211.781 99.3586V89.7993H202.222V99.3586H211.781ZM224.552 99.3586H234.111V89.7993H224.552V99.3586ZM226.157 106.565L218.79 112.657L218.825 112.699L218.86 112.74L226.157 106.565ZM235.381 98.2383L228.549 104.925L228.585 104.961L228.621 104.998L235.381 98.2383ZM229.294 94.8403L225.862 103.762L225.896 103.775L225.929 103.788L229.294 94.8403ZM226.493 93.7948L229.79 84.8217L229.759 84.8104L229.728 84.7992L226.493 93.7948ZM217.046 89.2391L211.17 96.7795L211.184 96.7903L211.198 96.8011L217.046 89.2391ZM212.827 84.2354L204.164 88.2779L204.197 88.3479L204.23 88.4173L212.827 84.2354ZM216.673 65.4902L222.885 72.7556L222.889 72.7519L216.673 65.4902ZM240.496 62.5776L237.473 71.6464L237.484 71.65L237.495 71.6537L240.496 62.5776ZM249.309 67.2452H258.868V62.4656L255.044 59.5978L249.309 67.2452ZM249.309 80.6133V90.1727H258.868V80.6133H249.309ZM236.762 80.6133H227.203V90.1727H236.762V80.6133ZM226.157 73.5932L232.325 80.8968L232.372 80.8573L232.418 80.8171L226.157 73.5932ZM226.344 81.1735L220.283 88.5654L220.363 88.6312L220.445 88.6952L226.344 81.1735ZM235.007 84.9823L231.909 94.0257L231.918 94.0288L231.927 94.0318L235.007 84.9823ZM247.106 91.7783L254.384 85.581L247.106 91.7783ZM245.127 115.303L238.597 108.322L238.584 108.333L238.572 108.345L245.127 115.303ZM220.668 118.477L217.584 127.525L217.594 127.529L217.604 127.532L220.668 118.477ZM211.781 113.586H221.34V99.3586H211.781H202.222V113.586H211.781ZM211.781 99.3586V108.918H224.552V99.3586V89.7993H211.781V99.3586ZM224.552 99.3586H214.992V100.479H224.552H234.111V99.3586H224.552ZM224.552 100.479H214.992C214.992 104.137 215.64 108.847 218.79 112.657L226.157 106.565L233.524 100.474C234.063 101.125 234.196 101.634 234.196 101.635C234.198 101.64 234.175 101.554 234.152 101.352C234.13 101.152 234.111 100.865 234.111 100.479H224.552ZM226.157 106.565L218.86 112.74C222.332 116.844 227.123 118.066 231.198 118.066V108.507V98.9478C230.949 98.9478 231.177 98.9093 231.675 99.1013C232.236 99.3175 232.902 99.7372 233.455 100.391L226.157 106.565ZM231.198 108.507V118.066C235.113 118.066 239.107 116.769 242.252 113.624L235.493 106.864L228.733 100.105C229.125 99.7131 229.629 99.3797 230.182 99.1683C230.71 98.9661 231.091 98.9478 231.198 98.9478V108.507ZM235.493 106.864L242.252 113.624C245.397 110.478 246.695 106.484 246.695 102.57H237.136H227.576C227.576 102.463 227.595 102.081 227.797 101.553C228.008 101.001 228.342 100.496 228.733 100.105L235.493 106.864ZM237.136 102.57H246.695C246.695 98.4247 245.178 94.5164 242.14 91.4789L235.381 98.2383L228.621 104.998C228.358 104.735 228.055 104.326 227.837 103.788C227.622 103.258 227.576 102.815 227.576 102.57H237.136ZM235.381 98.2383L242.212 91.552C239.561 88.8425 235.909 87.115 232.659 85.8928L229.294 94.8403L225.929 103.788C227.079 104.22 227.854 104.587 228.34 104.858C228.861 105.149 228.823 105.205 228.549 104.925L235.381 98.2383ZM229.294 94.8403L232.726 85.9182C232.01 85.643 231.023 85.2748 229.79 84.8217L226.493 93.7948L223.197 102.768C224.403 103.211 225.283 103.54 225.862 103.762L229.294 94.8403ZM226.493 93.7948L229.728 84.7992C225.496 83.2777 223.524 82.1647 222.894 81.6772L217.046 89.2391L211.198 96.8011C214.302 99.2013 218.629 101.125 223.259 102.79L226.493 93.7948ZM217.046 89.2391L222.922 81.6987C221.944 80.9365 221.572 80.3606 221.423 80.0536L212.827 84.2354L204.23 88.4173C205.873 91.7946 208.315 94.5545 211.17 96.7795L217.046 89.2391ZM212.827 84.2354L221.489 80.1929C221.34 79.873 221.079 79.0914 221.079 77.5514H211.52H201.96C201.96 81.1893 202.571 84.8637 204.164 88.2779L212.827 84.2354ZM211.52 77.5514H221.079C221.079 74.8392 221.862 73.6301 222.885 72.7556L216.673 65.4902L210.46 58.2248C204.612 63.2253 201.96 70.057 201.96 77.5514H211.52ZM216.673 65.4902L222.889 72.7519C224.159 71.6649 226.406 70.6059 230.713 70.6059V61.0466V51.4873C223.22 51.4873 216.107 53.3907 210.456 58.2285L216.673 65.4902ZM230.713 61.0466V70.6059C233.22 70.6059 235.454 70.9733 237.473 71.6464L240.496 62.5776L243.519 53.5088C239.415 52.1406 235.126 51.4873 230.713 51.4873V61.0466ZM240.496 62.5776L237.495 71.6537C239.531 72.3267 241.554 73.378 243.573 74.8927L249.309 67.2452L255.044 59.5978C251.488 56.9303 247.635 54.8698 243.497 53.5015L240.496 62.5776ZM249.309 67.2452H239.749V80.6133H249.309H258.868V67.2452H249.309ZM249.309 80.6133V71.054H236.762V80.6133V90.1727H249.309V80.6133ZM236.762 80.6133H246.321V79.6051H236.762H227.203V80.6133H236.762ZM236.762 79.6051H246.321C246.321 75.9832 245.569 71.6028 242.573 67.9644L235.194 74.0413L227.815 80.1182C227.364 79.5704 227.206 79.1092 227.169 78.978C227.139 78.8721 227.203 79.0411 227.203 79.6051H236.762ZM235.194 74.0413L242.573 67.9644C239.328 64.0239 234.822 62.5776 230.638 62.5776V72.1369V81.6962C230.628 81.6962 230.21 81.6946 229.584 81.4327C228.909 81.1504 228.282 80.6855 227.815 80.1182L235.194 74.0413ZM230.638 72.1369V62.5776C227.087 62.5776 223.17 63.5328 219.897 66.3693L226.157 73.5932L232.418 80.8171C231.955 81.218 231.468 81.4637 231.072 81.5922C230.705 81.7118 230.524 81.6962 230.638 81.6962V72.1369ZM226.157 73.5932L219.99 66.2896C216.516 69.223 214.918 73.2701 214.918 77.402H224.477H234.036C234.036 77.7383 233.973 78.3653 233.643 79.1134C233.303 79.8831 232.81 80.4867 232.325 80.8968L226.157 73.5932ZM224.477 77.402H214.918C214.918 82.0039 217.02 85.8901 220.283 88.5654L226.344 81.1735L232.405 73.7815C232.678 74.0052 233.137 74.4695 233.511 75.224C233.894 75.9987 234.036 76.7752 234.036 77.402H224.477ZM226.344 81.1735L220.445 88.6952C222.054 89.9578 223.994 90.911 225.615 91.6234C227.394 92.4057 229.516 93.206 231.909 94.0257L235.007 84.9823L238.105 75.9388C235.992 75.2151 234.418 74.6089 233.309 74.1216C232.759 73.8796 232.393 73.6974 232.174 73.5776C231.925 73.4423 232 73.461 232.243 73.6517L226.344 81.1735ZM235.007 84.9823L231.927 94.0318C237.447 95.9103 239.418 97.4952 239.827 97.9757L247.106 91.7783L254.384 85.581C250.511 81.0329 244.417 78.087 238.087 75.9327L235.007 84.9823ZM247.106 91.7783L239.827 97.9757C240.028 98.2115 240.758 99.2423 240.758 102.346H250.317H259.876C259.876 96.388 258.465 90.3737 254.384 85.581L247.106 91.7783ZM250.317 102.346H240.758C240.758 105.509 239.846 107.154 238.597 108.322L245.127 115.303L251.656 122.285C257.328 116.98 259.876 109.986 259.876 102.346H250.317ZM245.127 115.303L238.572 108.345C237.311 109.533 235.224 110.598 231.198 110.598V120.158V129.717C238.872 129.717 246.072 127.546 251.681 122.261L245.127 115.303ZM231.198 120.158V110.598C228.467 110.598 225.997 110.189 223.732 109.422L220.668 118.477L217.604 127.532C221.961 129.006 226.511 129.717 231.198 129.717V120.158ZM220.668 118.477L223.753 109.429C221.511 108.665 219.547 107.577 217.804 106.162L211.781 113.586L205.758 121.009C209.292 123.876 213.254 126.049 217.584 127.525L220.668 118.477ZM279.032 99.3586H288.592V85.2547L275.491 90.4793L279.032 99.3586ZM270.855 103.466L276.932 110.845L276.974 110.81L277.017 110.774L270.855 103.466ZM269.846 109.702L262.95 116.322L263.018 116.393L263.087 116.462L269.846 109.702ZM275.597 109.553L280.489 117.765L280.553 117.727L280.617 117.688L275.597 109.553ZM279.032 106.528L286.261 112.783L288.592 110.09V106.528H279.032ZM279.48 114.631H289.04V92.6934L272.972 107.63L279.48 114.631ZM273.655 118.403L277.242 127.264L277.268 127.253L277.295 127.242L273.655 118.403ZM259.354 116.573L252.346 123.074L252.366 123.097L252.388 123.119L259.354 116.573ZM260.623 99.2466L254.563 91.854L260.623 99.2466ZM279.032 91.4049L281.875 100.532L288.592 98.4394V91.4049H279.032ZM270.556 90.4714V100.031H280.115V90.4714H270.556ZM258.831 90.4714H249.271V100.031H258.831V90.4714ZM258.831 80.8374L254.495 72.3179L249.271 74.9763V80.8374H258.831ZM287.135 79.7545L280.639 86.7674L280.657 86.7843L280.676 86.8012L287.135 79.7545ZM291.28 109.142L282.73 113.417L282.817 113.59L282.91 113.76L291.28 109.142ZM293.483 110.524H303.043V102.579L295.232 101.126L293.483 110.524ZM293.483 119V128.559H303.043V119H293.483ZM279.48 119H269.921V128.559H279.48V119ZM279.032 99.3586L275.491 90.4793C271.455 92.0889 267.312 93.9496 264.693 96.1578L270.855 103.466L277.017 110.774C276.787 110.968 276.991 110.757 278.142 110.179C279.175 109.66 280.629 109.013 282.573 108.238L279.032 99.3586ZM270.855 103.466L264.778 96.087C261.601 98.7028 259.391 102.547 259.391 107.238H268.95H278.51C278.51 107.934 278.346 108.737 277.959 109.502C277.588 110.238 277.149 110.666 276.932 110.845L270.855 103.466ZM268.95 107.238H259.391C259.391 110.243 260.337 113.599 262.95 116.322L269.846 109.702L276.742 103.082C277.378 103.744 277.859 104.529 278.158 105.352C278.447 106.148 278.51 106.817 278.51 107.238H268.95ZM269.846 109.702L263.087 116.462C265.883 119.257 269.368 120.158 272.311 120.158V110.598V101.039C272.69 101.039 273.358 101.093 274.177 101.39C275.033 101.701 275.882 102.219 276.606 102.943L269.846 109.702ZM272.311 110.598V120.158C275.538 120.158 278.319 119.058 280.489 117.765L275.597 109.553L270.704 101.34C270.535 101.441 271.126 101.039 272.311 101.039V110.598ZM275.597 109.553L280.617 117.688C282.788 116.348 284.653 114.641 286.261 112.783L279.032 106.528L271.804 100.273C271.171 101.004 270.746 101.313 270.577 101.417L275.597 109.553ZM279.032 106.528H288.592V99.3586H279.032H269.473V106.528H279.032ZM279.48 114.631L272.972 107.63C271.997 108.536 271.016 109.151 270.015 109.563L273.655 118.403L277.295 127.242C280.526 125.911 283.429 124.012 285.989 121.633L279.48 114.631ZM273.655 118.403L270.069 109.542C269.082 109.941 268.157 110.113 267.233 110.113V119.672V129.231C270.689 129.231 274.046 128.557 277.242 127.264L273.655 118.403ZM267.233 119.672V110.113C266.571 110.113 266.302 110.011 266.279 110.001C266.265 109.996 266.279 110 266.305 110.018C266.331 110.036 266.337 110.045 266.32 110.026L259.354 116.573L252.388 123.119C256.442 127.433 261.766 129.231 267.233 129.231V119.672ZM259.354 116.573L266.362 110.071C266.352 110.061 266.344 110.051 266.331 110.03C266.318 110.008 266.286 109.948 266.246 109.83C266.164 109.591 266.038 109.066 266.038 108.134H256.478H246.919C246.919 113.445 248.389 118.809 252.346 123.074L259.354 116.573ZM256.478 108.134H266.038C266.038 107.532 266.144 107.28 266.178 107.208C266.209 107.142 266.305 106.949 266.684 106.639L260.623 99.2466L254.563 91.854C249.523 95.9852 246.919 101.691 246.919 108.134H256.478ZM260.623 99.2466L266.684 106.639C266.999 106.38 268.221 105.584 271.044 104.382C273.712 103.246 277.294 101.959 281.875 100.532L279.032 91.4049L276.189 82.2782C271.261 83.8133 267.021 85.3148 263.552 86.7924C260.238 88.2038 257.01 89.8473 254.563 91.854L260.623 99.2466ZM279.032 91.4049H288.592V89.0151H279.032H269.473V91.4049H279.032ZM279.032 89.0151H288.592C288.592 86.398 288.102 82.3761 285.129 79.0728L278.024 85.4677L270.919 91.8625C270.085 90.9361 269.728 90.0321 269.585 89.528C269.449 89.0497 269.473 88.8283 269.473 89.0151H279.032ZM278.024 85.4677L285.129 79.0728C281.94 75.5291 277.721 74.7881 274.813 74.7881V84.3475V93.9068C274.775 93.9068 274.295 93.9067 273.569 93.6534C272.782 93.3792 271.791 92.832 270.919 91.8625L278.024 85.4677ZM274.813 84.3475V74.7881C271.663 74.7881 267.513 75.6986 264.407 79.2475L271.601 85.5424L278.796 91.8372C278.017 92.7272 277.093 93.2958 276.261 93.6054C275.489 93.8924 274.941 93.9068 274.813 93.9068V84.3475ZM271.601 85.5424L264.407 79.2475C261.557 82.5054 260.997 86.4085 260.997 89.1645H270.556H280.115C280.115 89.0091 280.136 89.2323 280.002 89.6965C279.859 90.1895 279.526 91.0024 278.796 91.8372L271.601 85.5424ZM270.556 89.1645H260.997V90.4714H270.556H280.115V89.1645H270.556ZM270.556 90.4714V80.9121H258.831V90.4714V100.031H270.556V90.4714ZM258.831 90.4714H268.39V80.8374H258.831H249.271V90.4714H258.831ZM258.831 80.8374L263.167 89.3569C265.399 88.2209 267.57 87.3895 269.685 86.828L267.233 77.5887L264.78 68.3495C261.269 69.2815 257.839 70.616 254.495 72.3179L258.831 80.8374ZM267.233 77.5887L269.685 86.828C271.771 86.2742 273.685 86.0278 275.448 86.0278V76.4685V66.9092C271.883 66.9092 268.32 67.4096 264.78 68.3495L267.233 77.5887ZM275.448 76.4685V86.0278C277.564 86.0278 278.977 86.2464 279.852 86.4925C280.706 86.7326 280.815 86.9306 280.639 86.7674L287.135 79.7545L293.631 72.7416C288.628 68.1071 281.751 66.9092 275.448 66.9092V76.4685ZM287.135 79.7545L280.676 86.8012C280.482 86.6234 280.58 86.5923 280.752 87.1089C280.942 87.6811 281.161 88.7604 281.161 90.5461H290.72H300.279C300.279 84.3047 298.818 77.4957 293.595 72.7078L287.135 79.7545ZM290.72 90.5461H281.161V104.474H290.72H300.279V90.5461H290.72ZM290.72 104.474H281.161C281.161 105.867 281.214 107.26 281.369 108.554C281.499 109.641 281.792 111.541 282.73 113.417L291.28 109.142L299.83 104.867C300.005 105.216 300.118 105.509 300.188 105.712C300.259 105.918 300.301 106.077 300.324 106.171C300.367 106.348 300.366 106.4 300.351 106.276C300.338 106.162 300.319 105.957 300.304 105.642C300.289 105.33 300.279 104.943 300.279 104.474H290.72ZM291.28 109.142L282.91 113.76C285.103 117.734 288.818 119.379 291.735 119.922L293.483 110.524L295.232 101.126C295.587 101.192 296.333 101.381 297.208 101.93C298.143 102.516 299.025 103.391 299.65 104.524L291.28 109.142ZM293.483 110.524H283.924V119H293.483H303.043V110.524H293.483ZM293.483 119V109.441H279.48V119V128.559H293.483V119ZM279.48 119H289.04V114.631H279.48H269.921V119H279.48ZM320.332 86.6253L312.433 92.0104L312.462 92.0528L312.492 92.0949L320.332 86.6253ZM313.013 86.6253L305.198 81.1195L305.156 81.1795L305.115 81.2401L313.013 86.6253ZM313.013 109.515L305.173 114.985L313.013 109.515ZM320.332 109.515L328.171 114.985L320.332 109.515ZM329.48 116.199L335.785 123.385L335.804 123.368L335.823 123.352L329.48 116.199ZM303.864 116.199L297.555 123.381L297.574 123.398L297.593 123.414L303.864 116.199ZM303.864 80.0159L310.173 87.1975L310.178 87.1935L303.864 80.0159ZM329.48 80.0159L323.1 87.1346L323.119 87.1514L323.138 87.1681L329.48 80.0159ZM321.452 92.0024H331.011C331.011 89.0638 330.675 84.7441 328.171 81.1556L320.332 86.6253L312.492 92.0949C312.179 91.6469 312.007 91.2703 311.92 91.0469C311.832 90.8237 311.809 90.7013 311.813 90.722C311.817 90.74 311.839 90.8517 311.858 91.0778C311.878 91.3016 311.892 91.6062 311.892 92.0024H321.452ZM320.332 86.6253L328.23 81.2401C325.24 76.8559 320.619 75.4229 316.709 75.4229V84.9823V94.5416C316.522 94.5416 315.83 94.5129 314.917 94.0986C313.925 93.6485 313.047 92.9107 312.433 92.0104L320.332 86.6253ZM316.709 84.9823V75.4229C312.823 75.4229 308.23 76.8165 305.198 81.1195L313.013 86.6253L320.827 92.131C320.212 93.0049 319.35 93.7055 318.398 94.1284C317.522 94.5177 316.87 94.5416 316.709 94.5416V84.9823ZM313.013 86.6253L305.115 81.2401C302.689 84.7981 302.333 89.0314 302.333 92.0024H311.892H321.452C321.452 91.615 321.466 91.3165 321.486 91.0965C321.505 90.8746 321.526 90.7625 321.531 90.7407C321.536 90.7167 321.515 90.8276 321.435 91.0348C321.354 91.2424 321.196 91.5917 320.911 92.0104L313.013 86.6253ZM311.892 92.0024H302.333V104.176H311.892H321.452V92.0024H311.892ZM311.892 104.176H302.333C302.333 107.114 302.677 111.407 305.173 114.985L313.013 109.515L320.853 104.046C321.161 104.487 321.332 104.859 321.419 105.083C321.507 105.306 321.532 105.431 321.528 105.415C321.525 105.401 321.505 105.296 321.485 105.077C321.467 104.86 321.452 104.563 321.452 104.176H311.892ZM313.013 109.515L305.173 114.985C308.252 119.398 312.957 120.68 316.709 120.68V111.121V101.562C316.81 101.562 317.435 101.574 318.305 101.952C319.262 102.367 320.183 103.085 320.853 104.046L313.013 109.515ZM316.709 111.121V120.68C320.533 120.68 325.146 119.321 328.171 114.985L320.332 109.515L312.492 104.046C313.129 103.132 314.02 102.411 314.992 101.98C315.884 101.585 316.548 101.562 316.709 101.562V111.121ZM320.332 109.515L328.171 114.985C330.668 111.407 331.011 107.114 331.011 104.176H321.452H311.892C311.892 104.563 311.878 104.86 311.859 105.077C311.84 105.296 311.819 105.401 311.816 105.415C311.813 105.431 311.837 105.306 311.925 105.083C312.013 104.859 312.184 104.487 312.492 104.046L320.332 109.515ZM321.452 104.176H331.011V92.0024H321.452H311.892V104.176H321.452ZM333.438 91.4049H323.879V104.848H333.438H342.998V91.4049H333.438ZM333.438 104.848H323.879C323.879 108.676 322.909 109.25 323.138 109.047L329.48 116.199L335.823 123.352C341.329 118.468 342.998 111.475 342.998 104.848H333.438ZM329.48 116.199L323.176 109.014C323.194 108.998 322.875 109.287 321.8 109.58C320.708 109.877 319.061 110.113 316.709 110.113V119.672V129.231C323.457 129.231 330.557 127.972 335.785 123.385L329.48 116.199ZM316.709 119.672V110.113C311.681 110.113 310.219 109.057 310.135 108.984L303.864 116.199L297.593 123.414C302.837 127.972 309.938 129.231 316.709 129.231V119.672ZM303.864 116.199L310.173 109.018C310.173 109.018 310.171 109.016 310.165 109.009C310.159 109.002 310.144 108.984 310.122 108.95C310.079 108.884 309.988 108.727 309.885 108.433C309.668 107.817 309.428 106.691 309.428 104.848H299.869H290.309C290.309 111.5 292.004 118.504 297.555 123.381L303.864 116.199ZM299.869 104.848H309.428V91.4049H299.869H290.309V104.848H299.869ZM299.869 91.4049H309.428C309.428 87.5599 310.406 86.9931 310.173 87.1975L303.864 80.0159L297.555 72.8343C291.995 77.7187 290.309 84.7446 290.309 91.4049H299.869ZM303.864 80.0159L310.178 87.1935C310.302 87.0844 311.767 86.0278 316.709 86.0278V76.4685V66.9092C309.902 66.9092 302.804 68.2175 297.55 72.8383L303.864 80.0159ZM316.709 76.4685V86.0278C321.675 86.0278 323.055 87.0938 323.1 87.1346L329.48 80.0159L335.86 72.8972C330.628 68.2081 323.494 66.9092 316.709 66.9092V76.4685ZM329.48 80.0159L323.138 87.1681C322.9 86.9573 323.879 87.5352 323.879 91.4049H333.438H342.998C342.998 84.7694 341.338 77.7545 335.823 72.8637L329.48 80.0159ZM380.301 89.1645H370.742V98.7238H380.301V89.1645ZM390.832 87.6335L383.82 81.1354L383.777 81.1819L383.735 81.2291L390.832 87.6335ZM390.794 75.9084L383.641 82.2491L383.677 82.29L383.713 82.3305L390.794 75.9084ZM380.301 74.2654V64.706H370.742V74.2654H380.301ZM380.899 108.096L372.675 112.97L372.716 113.038L372.758 113.106L380.899 108.096ZM383.139 109.441H392.699V101.81L385.258 100.119L383.139 109.441ZM383.139 119V128.559H392.699V119H383.139ZM364.245 119H354.685V128.559H364.245V119ZM364.245 109.441L362.171 100.109L354.685 101.772V109.441H364.245ZM366.523 108.059L358.351 103.098L358.325 103.142L358.299 103.186L366.523 108.059ZM366.523 72.7717L358.223 77.5145L358.324 77.692L358.433 77.865L366.523 72.7717ZM364.245 71.3528H354.685V79.021L362.171 80.6844L364.245 71.3528ZM364.245 62.1668V52.6075H354.685V62.1668H364.245ZM400.951 66.3864L394.221 73.1756L394.236 73.1903L394.251 73.2049L400.951 66.3864ZM401.212 97.0061L408.264 103.46L408.278 103.445L408.291 103.43L401.212 97.0061ZM380.301 101.412V91.853H370.742V101.412H380.301ZM380.301 89.1645V98.7238H385.23V89.1645V79.6051H380.301V89.1645ZM385.23 89.1645V98.7238C387.14 98.7238 389.227 98.5587 391.261 98.0028C393.269 97.4538 395.84 96.3525 397.928 94.0379L390.832 87.6335L383.735 81.2291C384.903 79.9351 386.079 79.5993 386.22 79.5606C386.387 79.515 386.134 79.6051 385.23 79.6051V89.1645ZM390.832 87.6335L397.843 94.1316C401.435 90.256 401.81 85.0437 401.81 81.9203H392.251H382.691C382.691 82.353 382.673 82.6701 382.651 82.887C382.629 83.1073 382.607 83.1794 382.618 83.1355C382.628 83.0948 382.687 82.8696 382.852 82.53C383.019 82.1852 383.318 81.6777 383.82 81.1354L390.832 87.6335ZM392.251 81.9203H401.81C401.81 78.6905 401.434 73.4104 397.875 69.4863L390.794 75.9084L383.713 82.3305C383.225 81.7919 382.943 81.2971 382.792 80.9785C382.643 80.6641 382.597 80.4697 382.596 80.4647C382.594 80.4561 382.62 80.5662 382.646 80.8268C382.671 81.0838 382.691 81.4433 382.691 81.9203H392.251ZM390.794 75.9084L397.948 69.5676C394.122 65.2514 388.62 64.706 385.305 64.706V74.2654V83.8247C386.067 83.8247 386.207 83.9102 385.953 83.834C385.673 83.7501 384.644 83.3814 383.641 82.2491L390.794 75.9084ZM385.305 74.2654V64.706H380.301V74.2654V83.8247H385.305V74.2654ZM380.301 74.2654H370.742V89.1645H380.301H389.861V74.2654H380.301ZM380.301 103.541H370.742C370.742 104.941 370.798 106.367 370.973 107.696C371.11 108.743 371.447 110.898 372.675 112.97L380.899 108.096L389.123 103.223C389.38 103.657 389.547 104.033 389.652 104.298C389.758 104.567 389.823 104.782 389.86 104.918C389.931 105.178 389.94 105.298 389.929 105.21C389.919 105.137 389.901 104.963 389.885 104.666C389.871 104.374 389.861 104.002 389.861 103.541H380.301ZM380.899 108.096L372.758 113.106C375.032 116.802 378.614 118.215 381.021 118.762L383.139 109.441L385.258 100.119C385.474 100.168 387.563 100.686 389.04 103.086L380.899 108.096ZM383.139 109.441H373.58V119H383.139H392.699V109.441H383.139ZM383.139 119V109.441H364.245V119V128.559H383.139V119ZM364.245 119H373.804V109.441H364.245H354.685V119H364.245ZM364.245 109.441L366.318 118.772C368.8 118.221 372.477 116.763 374.746 112.932L366.523 108.059L358.299 103.186C359.772 100.7 361.93 100.163 362.171 100.109L364.245 109.441ZM366.523 108.059L374.694 113.02C375.935 110.976 376.308 108.855 376.465 107.737C376.656 106.379 376.717 104.939 376.717 103.541H367.157H357.598C357.598 103.978 357.588 104.327 357.573 104.597C357.558 104.871 357.54 105.024 357.532 105.077C357.523 105.143 357.537 105.007 357.615 104.738C357.655 104.596 357.724 104.383 357.832 104.12C357.939 103.86 358.104 103.505 358.351 103.098L366.523 108.059ZM367.157 103.541H376.717V77.2526H367.157H357.598V103.541H367.157ZM367.157 77.2526H376.717C376.717 75.8564 376.656 74.4144 376.463 73.0552C376.308 71.9607 375.93 69.7711 374.612 67.6784L366.523 72.7717L358.433 77.865C358.162 77.4341 357.981 77.0559 357.864 76.7788C357.746 76.4987 357.671 76.2708 357.627 76.1186C357.542 75.829 357.525 75.6778 357.534 75.7369C357.54 75.7822 357.558 75.9286 357.573 76.2006C357.588 76.4676 357.598 76.8149 357.598 77.2526H367.157ZM366.523 72.7717L374.822 68.029C372.596 64.1334 368.914 62.5978 366.318 62.0211L364.245 71.3528L362.171 80.6844C361.816 80.6056 359.652 80.016 358.223 77.5145L366.523 72.7717ZM364.245 71.3528H373.804V62.1668H364.245H354.685V71.3528H364.245ZM364.245 62.1668V71.7262H386.761V62.1668V52.6075H364.245V62.1668ZM386.761 62.1668V71.7262C392.431 71.7262 394.043 72.9986 394.221 73.1756L400.951 66.3864L407.681 59.5972C402.183 54.1481 394.336 52.6075 386.761 52.6075V62.1668ZM400.951 66.3864L394.251 73.2049C394.411 73.3615 395.686 74.8946 395.686 80.464H405.245H414.805C414.805 72.8893 413.217 65.0373 407.651 59.5679L400.951 66.3864ZM405.245 80.464H395.686C395.686 84.0255 395.383 86.6067 394.95 88.3846C394.506 90.2027 394.051 90.6724 394.134 90.5817L401.212 97.0061L408.291 103.43C413.562 97.6229 414.805 88.8468 414.805 80.464H405.245ZM401.212 97.0061L394.161 90.552C394.24 90.4659 393.995 90.8014 392.795 91.1671C391.56 91.5437 389.62 91.853 386.761 91.853V101.412V110.972C394.514 110.972 402.8 109.43 408.264 103.46L401.212 97.0061ZM386.761 101.412V91.853H380.301V101.412V110.972H386.761V101.412ZM380.301 101.412H370.742V103.541H380.301H389.861V101.412H380.301ZM429.816 99.3586H439.375V85.2547L426.275 90.4793L429.816 99.3586ZM421.638 103.466L427.715 110.845L427.758 110.81L427.8 110.774L421.638 103.466ZM420.63 109.702L413.734 116.322L413.801 116.393L413.87 116.462L420.63 109.702ZM426.38 109.553L431.273 117.765L431.337 117.727L431.4 117.688L426.38 109.553ZM429.816 106.528L437.044 112.783L439.375 110.09V106.528H429.816ZM430.264 114.631H439.823V92.6934L423.755 107.63L430.264 114.631ZM424.439 118.403L428.025 127.264L428.052 127.253L428.078 127.242L424.439 118.403ZM410.137 116.573L403.129 123.074L403.15 123.097L403.171 123.119L410.137 116.573ZM411.407 99.2466L405.346 91.854L411.407 99.2466ZM429.816 91.4049L432.659 100.532L439.375 98.4394V91.4049H429.816ZM421.339 90.4714V100.031H430.899V90.4714H421.339ZM409.614 90.4714H400.055V100.031H409.614V90.4714ZM409.614 80.8374L405.278 72.3179L400.055 74.9763V80.8374H409.614ZM437.919 79.7545L431.423 86.7674L431.441 86.7843L431.459 86.8012L437.919 79.7545ZM442.064 109.142L433.513 113.417L433.6 113.59L433.694 113.76L442.064 109.142ZM444.267 110.524H453.826V102.579L446.015 101.126L444.267 110.524ZM444.267 119V128.559H453.826V119H444.267ZM430.264 119H420.704V128.559H430.264V119ZM429.816 99.3586L426.275 90.4793C422.239 92.0889 418.095 93.9496 415.476 96.1578L421.638 103.466L427.8 110.774C427.57 110.968 427.774 110.757 428.925 110.179C429.958 109.66 431.413 109.013 433.357 108.238L429.816 99.3586ZM421.638 103.466L415.561 96.087C412.385 98.7028 410.174 102.547 410.174 107.238H419.734H429.293C429.293 107.934 429.129 108.737 428.743 109.502C428.371 110.238 427.933 110.666 427.715 110.845L421.638 103.466ZM419.734 107.238H410.174C410.174 110.243 411.12 113.599 413.734 116.322L420.63 109.702L427.526 103.082C428.161 103.744 428.642 104.529 428.941 105.352C429.231 106.148 429.293 106.817 429.293 107.238H419.734ZM420.63 109.702L413.87 116.462C416.666 119.257 420.151 120.158 423.094 120.158V110.598V101.039C423.473 101.039 424.142 101.093 424.961 101.39C425.816 101.701 426.666 102.219 427.389 102.943L420.63 109.702ZM423.094 110.598V120.158C426.321 120.158 429.103 119.058 431.273 117.765L426.38 109.553L421.488 101.34C421.318 101.441 421.909 101.039 423.094 101.039V110.598ZM426.38 109.553L431.4 117.688C433.571 116.348 435.437 114.641 437.044 112.783L429.816 106.528L422.587 100.273C421.954 101.004 421.529 101.313 421.361 101.417L426.38 109.553ZM429.816 106.528H439.375V99.3586H429.816H420.256V106.528H429.816ZM430.264 114.631L423.755 107.63C422.78 108.536 421.799 109.151 420.799 109.563L424.439 118.403L428.078 127.242C431.31 125.911 434.212 124.012 436.772 121.633L430.264 114.631ZM424.439 118.403L420.852 109.542C419.866 109.941 418.94 110.113 418.016 110.113V119.672V129.231C421.473 129.231 424.829 128.557 428.025 127.264L424.439 118.403ZM418.016 119.672V110.113C417.354 110.113 417.086 110.011 417.062 110.001C417.048 109.996 417.062 110 417.089 110.018C417.115 110.036 417.12 110.045 417.103 110.026L410.137 116.573L403.171 123.119C407.225 127.433 412.549 129.231 418.016 129.231V119.672ZM410.137 116.573L417.145 110.071C417.135 110.061 417.127 110.051 417.115 110.03C417.102 110.008 417.069 109.948 417.029 109.83C416.947 109.591 416.821 109.066 416.821 108.134H407.262H397.702C397.702 113.445 399.172 118.809 403.129 123.074L410.137 116.573ZM407.262 108.134H416.821C416.821 107.532 416.928 107.28 416.961 107.208C416.992 107.142 417.089 106.949 417.467 106.639L411.407 99.2466L405.346 91.854C400.307 95.9852 397.702 101.691 397.702 108.134H407.262ZM411.407 99.2466L417.467 106.639C417.783 106.38 419.004 105.584 421.827 104.382C424.495 103.246 428.077 101.959 432.659 100.532L429.816 91.4049L426.973 82.2782C422.045 83.8133 417.804 85.3148 414.335 86.7924C411.022 88.2038 407.794 89.8473 405.346 91.854L411.407 99.2466ZM429.816 91.4049H439.375V89.0151H429.816H420.256V91.4049H429.816ZM429.816 89.0151H439.375C439.375 86.398 438.886 82.3761 435.913 79.0728L428.807 85.4677L421.702 91.8625C420.868 90.9361 420.512 90.0321 420.368 89.528C420.233 89.0497 420.256 88.8283 420.256 89.0151H429.816ZM428.807 85.4677L435.913 79.0728C432.724 75.5291 428.504 74.7881 425.596 74.7881V84.3475V93.9068C425.559 93.9068 425.078 93.9067 424.352 93.6534C423.566 93.3792 422.575 92.832 421.702 91.8625L428.807 85.4677ZM425.596 84.3475V74.7881C422.446 74.7881 418.296 75.6986 415.191 79.2475L422.385 85.5424L429.579 91.8372C428.8 92.7272 427.876 93.2958 427.044 93.6054C426.273 93.8924 425.724 93.9068 425.596 93.9068V84.3475ZM422.385 85.5424L415.191 79.2475C412.34 82.5054 411.78 86.4085 411.78 89.1645H421.339H430.899C430.899 89.0091 430.919 89.2323 430.785 89.6965C430.643 90.1895 430.309 91.0024 429.579 91.8372L422.385 85.5424ZM421.339 89.1645H411.78V90.4714H421.339H430.899V89.1645H421.339ZM421.339 90.4714V80.9121H409.614V90.4714V100.031H421.339V90.4714ZM409.614 90.4714H419.173V80.8374H409.614H400.055V90.4714H409.614ZM409.614 80.8374L413.95 89.3569C416.182 88.2209 418.354 87.3895 420.469 86.828L418.016 77.5887L415.563 68.3495C412.052 69.2815 408.622 70.616 405.278 72.3179L409.614 80.8374ZM418.016 77.5887L420.469 86.828C422.555 86.2742 424.468 86.0278 426.231 86.0278V76.4685V66.9092C422.667 66.9092 419.103 67.4096 415.563 68.3495L418.016 77.5887ZM426.231 76.4685V86.0278C428.347 86.0278 429.76 86.2464 430.636 86.4925C431.49 86.7326 431.599 86.9306 431.423 86.7674L437.919 79.7545L444.415 72.7416C439.412 68.1071 432.534 66.9092 426.231 66.9092V76.4685ZM437.919 79.7545L431.459 86.8012C431.265 86.6234 431.364 86.5923 431.535 87.1089C431.725 87.6811 431.944 88.7604 431.944 90.5461H441.503H451.063C451.063 84.3047 449.601 77.4957 444.378 72.7078L437.919 79.7545ZM441.503 90.5461H431.944V104.474H441.503H451.063V90.5461H441.503ZM441.503 104.474H431.944C431.944 105.867 431.997 107.26 432.152 108.554C432.283 109.641 432.576 111.541 433.513 113.417L442.064 109.142L450.614 104.867C450.788 105.216 450.901 105.509 450.971 105.712C451.042 105.918 451.084 106.077 451.107 106.171C451.15 106.348 451.15 106.4 451.135 106.276C451.121 106.162 451.102 105.957 451.087 105.642C451.072 105.33 451.063 104.943 451.063 104.474H441.503ZM442.064 109.142L433.694 113.76C435.886 117.734 439.602 119.379 442.518 119.922L444.267 110.524L446.015 101.126C446.371 101.192 447.117 101.381 447.992 101.93C448.926 102.516 449.808 103.391 450.433 104.524L442.064 109.142ZM444.267 110.524H434.707V119H444.267H453.826V110.524H444.267ZM444.267 119V109.441H430.264V119V128.559H444.267V119ZM430.264 119H439.823V114.631H430.264H420.704V119H430.264ZM465.14 109.067L456.714 113.581L465.14 109.067ZM467.194 110.524H476.753V103.238L469.729 101.306L467.194 110.524ZM467.194 119V128.559H476.753V119H467.194ZM450.353 119H440.794V128.559H450.353V119ZM450.353 110.524L448.9 101.075L440.794 102.322V110.524H450.353ZM452.37 109.03L443.676 105.056L443.649 105.113L443.624 105.171L452.37 109.03ZM452.407 87.1107L443.99 91.6428L444.096 91.8384L444.21 92.0289L452.407 87.1107ZM450.353 85.5797H440.794V92.2614L447.069 94.5571L450.353 85.5797ZM450.353 77.2526V67.6933H440.794V77.2526H450.353ZM464.057 77.2526H473.617V67.6933H464.057V77.2526ZM464.057 80.688H454.498V110.722L471.858 86.2135L464.057 80.688ZM467.007 77.9995L462.586 69.5243L462.547 69.5444L462.509 69.5648L467.007 77.9995ZM472.347 77.2153L475.37 68.1465L474.409 67.8263L473.403 67.7145L472.347 77.2153ZM472.534 77.2526H482.093V67.6933H472.534V77.2526ZM472.534 89.4632V99.0225H482.093V89.4632H472.534ZM472.086 89.4258L473.271 79.9403L473.188 79.9299L473.104 79.9209L472.086 89.4258ZM465.999 91.2929L458.3 85.6273L458.29 85.64L458.281 85.6527L465.999 91.2929ZM464.58 104.848H455.021C455.021 106.144 455.076 107.478 455.244 108.748C455.388 109.833 455.713 111.714 456.714 113.581L465.14 109.067L473.567 104.553C473.754 104.903 473.881 105.204 473.964 105.427C474.048 105.651 474.101 105.831 474.133 105.952C474.194 106.181 474.205 106.292 474.196 106.232C474.19 106.181 474.174 106.042 474.161 105.796C474.148 105.553 474.14 105.24 474.14 104.848H464.58ZM465.14 109.067L456.714 113.581C458.672 117.236 461.949 118.995 464.659 119.741L467.194 110.524L469.729 101.306C470.448 101.504 472.356 102.293 473.567 104.553L465.14 109.067ZM467.194 110.524H457.635V119H467.194H476.753V110.524H467.194ZM467.194 119V109.441H450.353V119V128.559H467.194V119ZM450.353 119H459.913V110.524H450.353H440.794V119H450.353ZM450.353 110.524L451.807 119.972C455.764 119.363 459.33 116.936 461.116 112.888L452.37 109.03L443.624 105.171C444.034 104.241 444.761 103.197 445.896 102.357C447.008 101.533 448.118 101.196 448.9 101.075L450.353 110.524ZM452.37 109.03L461.064 113.004C462.425 110.027 462.526 106.462 462.526 104.176H452.967H443.408C443.408 104.636 443.398 105.019 443.382 105.332C443.367 105.648 443.346 105.864 443.33 105.995C443.313 106.133 443.307 106.124 443.336 106.006C443.36 105.904 443.45 105.549 443.676 105.056L452.37 109.03ZM452.967 104.176H462.526V90.9195H452.967H443.408V104.176H452.967ZM452.967 90.9195H462.526C462.526 89.699 462.47 88.3991 462.285 87.1388C462.127 86.0671 461.758 84.1162 460.604 82.1925L452.407 87.1107L444.21 92.0289C443.771 91.2967 443.569 90.6924 443.486 90.4125C443.396 90.1091 443.37 89.9253 443.37 89.9205C443.367 89.9053 443.378 89.9786 443.389 90.1624C443.4 90.342 443.408 90.5911 443.408 90.9195H452.967ZM452.407 87.1107L460.824 82.5786C458.939 79.0781 455.829 77.4039 453.638 76.6023L450.353 85.5797L447.069 94.5571C446.919 94.5023 445.178 93.8488 443.99 91.6428L452.407 87.1107ZM450.353 85.5797H459.913V77.2526H450.353H440.794V85.5797H450.353ZM450.353 77.2526V86.812H464.057V77.2526V67.6933H450.353V77.2526ZM464.057 77.2526H454.498V80.688H464.057H473.617V77.2526H464.057ZM464.057 80.688L471.858 86.2135C471.923 86.1212 471.933 86.1265 471.869 86.1849C471.801 86.2466 471.68 86.3414 471.506 86.4342L467.007 77.9995L462.509 69.5648C459.889 70.9621 457.831 72.9407 456.257 75.1626L464.057 80.688ZM467.007 77.9995L471.429 86.4746C471.301 86.5414 471.159 86.5945 471.019 86.6277C470.882 86.6603 470.794 86.6626 470.779 86.6626V77.1033V67.544C467.965 67.544 465.178 68.1719 462.586 69.5243L467.007 77.9995ZM470.779 77.1033V86.6626C470.668 86.6626 470.653 86.6579 470.77 86.6663C470.877 86.6739 471.046 86.6889 471.292 86.7162L472.347 77.2153L473.403 67.7145C472.612 67.6266 471.68 67.544 470.779 67.544V77.1033ZM472.347 77.2153L469.324 86.2841C469.876 86.468 471.038 86.812 472.534 86.812V77.2526V67.6933C473.282 67.6933 473.898 67.7842 474.325 67.8696C474.761 67.957 475.117 68.0621 475.37 68.1465L472.347 77.2153ZM472.534 77.2526H462.975V89.4632H472.534H482.093V77.2526H472.534ZM472.534 89.4632V79.9039C472.702 79.9039 472.837 79.9089 472.927 79.9135C473.02 79.9181 473.093 79.9236 473.141 79.9276C473.232 79.9352 473.281 79.9416 473.271 79.9403L472.086 89.4258L470.9 98.9114C471.182 98.9466 471.815 99.0225 472.534 99.0225V89.4632ZM472.086 89.4258L473.104 79.9209C472.431 79.8488 471.477 79.7545 470.63 79.7545V89.3138V98.8731C470.495 98.8731 470.412 98.8689 470.405 98.8686C470.392 98.868 470.409 98.8686 470.466 98.873C470.582 98.8819 470.777 98.8996 471.067 98.9308L472.086 89.4258ZM470.63 89.3138V79.7545C466.45 79.7545 461.581 81.1676 458.3 85.6273L465.999 91.2929L473.699 96.9585C473.147 97.7087 472.399 98.275 471.642 98.5987C470.96 98.8901 470.538 98.8731 470.63 98.8731V89.3138ZM465.999 91.2929L458.281 85.6527C455.516 89.4372 455.021 94.0404 455.021 97.5289H464.58H474.14C474.14 97.0723 474.159 96.7129 474.185 96.4396C474.211 96.1647 474.242 96.0062 474.256 95.9437C474.271 95.8801 474.26 95.9507 474.19 96.1175C474.119 96.2863 473.976 96.5796 473.717 96.9331L465.999 91.2929ZM464.58 97.5289H455.021V104.848H464.58H474.14V97.5289H464.58ZM490.868 65.9383H500.428V53.0196L488.074 56.7967L490.868 65.9383ZM490.868 77.2526H481.309V86.812H490.868V77.2526ZM495.835 77.2526H505.394V67.6933H495.835V77.2526ZM495.835 86.4386V95.9979H505.394V86.4386H495.835ZM490.868 86.4386V76.8792H481.309V86.4386H490.868ZM491.802 108.806L483.588 113.695L483.63 113.767L483.674 113.837L491.802 108.806ZM495.835 110.374H505.394V100.815H495.835V110.374ZM495.835 118.851L498.52 128.025L505.394 126.013V118.851H495.835ZM492.885 119.523L491.394 110.08L491.374 110.084L491.355 110.087L492.885 119.523ZM481.72 116.349L474.072 122.084L474.087 122.104L474.103 122.124L481.72 116.349ZM479.143 86.4386H488.703V76.8792H479.143V86.4386ZM477.015 86.4386H467.456V95.9979H477.015V86.4386ZM477.015 77.2526V67.6933H467.456V77.2526H477.015ZM479.143 77.2526V86.812H488.703V77.2526H479.143ZM479.143 69.523L476.348 60.3814L469.584 62.4495V69.523H479.143ZM490.868 65.9383H481.309V77.2526H490.868H500.428V65.9383H490.868ZM490.868 77.2526V86.812H495.835V77.2526V67.6933H490.868V77.2526ZM495.835 77.2526H486.275V86.4386H495.835H505.394V77.2526H495.835ZM495.835 86.4386V76.8792H490.868V86.4386V95.9979H495.835V86.4386ZM490.868 86.4386H481.309V102.794H490.868H500.428V86.4386H490.868ZM490.868 102.794H481.309C481.309 104.564 481.399 106.333 481.656 107.986C481.891 109.498 482.369 111.649 483.588 113.695L491.802 108.806L500.016 103.916C500.351 104.479 500.492 104.906 500.534 105.044C500.581 105.197 500.574 105.217 500.548 105.052C500.524 104.895 500.492 104.631 500.467 104.238C500.443 103.85 500.428 103.371 500.428 102.794H490.868ZM491.802 108.806L483.674 113.837C486.66 118.661 491.613 119.934 495.275 119.934V110.374V100.815C495.392 100.815 496.109 100.827 497.09 101.27C498.183 101.764 499.218 102.625 499.93 103.774L491.802 108.806ZM495.275 110.374V119.934H495.835V110.374V100.815H495.275V110.374ZM495.835 110.374H486.275V118.851H495.835H505.394V110.374H495.835ZM495.835 118.851L493.15 109.676C492.479 109.873 491.895 110.001 491.394 110.08L492.885 119.523L494.376 128.965C495.766 128.746 497.15 128.426 498.52 128.025L495.835 118.851ZM492.885 119.523L491.355 110.087C490.856 110.168 490.514 110.187 490.308 110.187V119.747V129.306C491.696 129.306 493.071 129.177 494.415 128.959L492.885 119.523ZM490.308 119.747V110.187C489.163 110.187 488.702 110.02 488.672 110.008C488.671 110.008 488.77 110.048 488.918 110.158C489.071 110.271 489.218 110.415 489.337 110.573L481.72 116.349L474.103 122.124C478.29 127.647 484.609 129.306 490.308 129.306V119.747ZM481.72 116.349L489.367 110.613C489.677 111.027 489.431 110.919 489.155 109.56C488.894 108.281 488.703 106.372 488.703 103.69H479.143H469.584C469.584 107.157 469.822 110.433 470.42 113.373C471.002 116.233 472.045 119.381 474.072 122.084L481.72 116.349ZM479.143 103.69H488.703V86.4386H479.143H469.584V103.69H479.143ZM479.143 86.4386V76.8792H477.015V86.4386V95.9979H479.143V86.4386ZM477.015 86.4386H486.574V77.2526H477.015H467.456V86.4386H477.015ZM477.015 77.2526V86.812H479.143V77.2526V67.6933H477.015V77.2526ZM479.143 77.2526H488.703V69.523H479.143H469.584V77.2526H479.143ZM479.143 69.523L481.938 78.6647L493.663 75.0799L490.868 65.9383L488.074 56.7967L476.348 60.3814L479.143 69.523ZM517.493 109.067L509.066 113.581L517.493 109.067ZM519.546 110.524H529.106V103.238L522.081 101.306L519.546 110.524ZM519.546 119V128.559H529.106V119H519.546ZM502.706 119H493.146V128.559H502.706V119ZM502.706 110.524L501.252 101.075L493.146 102.322V110.524H502.706ZM504.722 109.03L496.028 105.056L496.002 105.113L495.976 105.171L504.722 109.03ZM504.759 87.1107L496.343 91.6428L496.448 91.8384L496.562 92.0289L504.759 87.1107ZM502.706 85.5797H493.146V92.2614L499.421 94.5571L502.706 85.5797ZM502.706 77.2526V67.6933H493.146V77.2526H502.706ZM516.932 77.2526H526.492V67.6933H516.932V77.2526ZM516.932 79.8292H507.373V96.3975L521.717 88.105L516.932 79.8292ZM535.976 80.352L528.747 86.6065L528.785 86.6498L528.823 86.6927L535.976 80.352ZM539.487 109.329L531.052 113.827L531.084 113.887L531.117 113.947L539.487 109.329ZM541.615 110.524L551.174 110.481L551.135 101.635L542.313 100.99L541.615 110.524ZM541.652 119V128.559H551.254L551.212 118.958L541.652 119ZM528.396 119L519.385 122.191L521.641 128.559H528.396V119ZM527.463 114.594L517.951 115.545L517.958 115.612L517.965 115.679L527.463 114.594ZM519.434 86.1025L522.938 94.9966L523.006 94.9697L523.074 94.9418L519.434 86.1025ZM516.932 87.5588L511.126 79.9653L507.373 82.8348V87.5588H516.932ZM516.932 104.848H507.373C507.373 106.144 507.428 107.478 507.596 108.748C507.74 109.833 508.066 111.714 509.066 113.581L517.493 109.067L525.919 104.553C526.106 104.903 526.233 105.204 526.316 105.427C526.4 105.651 526.453 105.831 526.485 105.952C526.546 106.181 526.557 106.292 526.549 106.232C526.542 106.181 526.526 106.042 526.513 105.796C526.501 105.553 526.492 105.24 526.492 104.848H516.932ZM517.493 109.067L509.066 113.581C511.024 117.236 514.301 118.995 517.012 119.741L519.546 110.524L522.081 101.306C522.8 101.504 524.708 102.293 525.919 104.553L517.493 109.067ZM519.546 110.524H509.987V119H519.546H529.106V110.524H519.546ZM519.546 119V109.441H502.706V119V128.559H519.546V119ZM502.706 119H512.265V110.524H502.706H493.146V119H502.706ZM502.706 110.524L504.159 119.972C508.116 119.363 511.682 116.936 513.468 112.888L504.722 109.03L495.976 105.171C496.386 104.241 497.113 103.197 498.248 102.357C499.36 101.533 500.47 101.196 501.252 101.075L502.706 110.524ZM504.722 109.03L513.416 113.004C514.777 110.027 514.879 106.462 514.879 104.176H505.319H495.76C495.76 104.636 495.75 105.019 495.735 105.332C495.719 105.648 495.698 105.864 495.682 105.995C495.665 106.133 495.659 106.124 495.688 106.006C495.712 105.904 495.802 105.549 496.028 105.056L504.722 109.03ZM505.319 104.176H514.879V90.9195H505.319H495.76V104.176H505.319ZM505.319 90.9195H514.879C514.879 89.699 514.822 88.3991 514.637 87.1388C514.479 86.0671 514.111 84.1162 512.956 82.1925L504.759 87.1107L496.562 92.0289C496.123 91.2967 495.921 90.6924 495.838 90.4125C495.748 90.1091 495.722 89.9253 495.722 89.9205C495.72 89.9053 495.731 89.9786 495.741 90.1624C495.752 90.342 495.76 90.5911 495.76 90.9195H505.319ZM504.759 87.1107L513.176 82.5786C511.291 79.0781 508.181 77.4039 505.99 76.6023L502.706 85.5797L499.421 94.5571C499.271 94.5023 497.53 93.8488 496.343 91.6428L504.759 87.1107ZM502.706 85.5797H512.265V77.2526H502.706H493.146V85.5797H502.706ZM502.706 77.2526V86.812H516.932V77.2526V67.6933H502.706V77.2526ZM516.932 77.2526H507.373V79.8292H516.932H526.492V77.2526H516.932ZM516.932 79.8292L521.717 88.105C522.728 87.5204 523.632 87.1397 524.433 86.9021L521.712 77.7381L518.992 68.5741C516.606 69.2824 514.323 70.2958 512.148 71.5533L516.932 79.8292ZM521.712 77.7381L524.433 86.9021C525.241 86.6621 525.867 86.5879 526.342 86.5879V77.0286V67.4693C523.83 67.4693 521.37 67.8681 518.992 68.5741L521.712 77.7381ZM526.342 77.0286V86.5879C527.86 86.5879 528.677 86.7804 529.013 86.8962C529.284 86.9896 529.056 86.963 528.747 86.6065L535.976 80.352L543.206 74.0975C538.682 68.869 532.129 67.4693 526.342 67.4693V77.0286ZM535.976 80.352L528.823 86.6927C528.508 86.3372 528.672 86.316 528.902 87.2087C529.129 88.0953 529.33 89.5392 529.33 91.7037H538.889H548.448C548.448 85.7291 547.48 78.9182 543.13 74.0112L535.976 80.352ZM538.889 91.7037H529.33V104.698H538.889H548.448V91.7037H538.889ZM538.889 104.698H529.33C529.33 106.096 529.387 107.51 529.558 108.834C529.703 109.957 530.029 111.909 531.052 113.827L539.487 109.329L547.921 104.83C548.111 105.187 548.237 105.49 548.316 105.707C548.397 105.926 548.447 106.098 548.475 106.206C548.504 106.316 548.517 106.388 548.522 106.412C548.527 106.437 548.525 106.431 548.519 106.388C548.507 106.297 548.488 106.112 548.473 105.814C548.458 105.521 548.448 105.152 548.448 104.698H538.889ZM539.487 109.329L531.117 113.947C533.463 118.199 537.56 119.812 540.917 120.057L541.615 110.524L542.313 100.99C542.851 101.029 543.855 101.192 544.997 101.833C546.216 102.518 547.208 103.535 547.856 104.711L539.487 109.329ZM541.615 110.524L532.056 110.566L532.093 119.042L541.652 119L551.212 118.958L551.174 110.481L541.615 110.524ZM541.652 119V109.441H528.396V119V128.559H541.652V119ZM528.396 119L537.407 115.809C537.297 115.499 537.106 114.785 536.96 113.508L527.463 114.594L517.965 115.679C518.218 117.888 518.649 120.112 519.385 122.191L528.396 119ZM527.463 114.594L536.975 113.643C536.851 112.404 536.761 110.067 536.761 106.379H527.201H517.642C517.642 110.159 517.726 113.299 517.951 115.545L527.463 114.594ZM527.201 106.379H536.761V93.3093H527.201H517.642V106.379H527.201ZM527.201 93.3093H536.761C536.761 90.1232 536.403 85.5596 533.793 81.8417L525.969 87.3347L518.146 92.8278C517.837 92.3886 517.676 92.0288 517.601 91.8378C517.527 91.6465 517.516 91.5647 517.531 91.6369C517.545 91.7059 517.575 91.8758 517.6 92.1679C517.624 92.4575 517.642 92.8344 517.642 93.3093H527.201ZM525.969 87.3347L533.793 81.8417C530.627 77.3334 525.797 76.0204 521.899 76.0204V85.5797V95.139C521.894 95.139 521.352 95.1422 520.55 94.7965C519.662 94.4134 518.786 93.7404 518.146 92.8278L525.969 87.3347ZM521.899 85.5797V76.0204C519.682 76.0204 517.625 76.5095 515.795 77.2632L519.434 86.1025L523.074 94.9418C522.936 94.9985 522.523 95.139 521.899 95.139V85.5797ZM519.434 86.1025L515.931 77.2084C514.135 77.9156 512.536 78.887 511.126 79.9653L516.932 87.5588L522.739 95.1523C522.877 95.0473 522.965 94.9925 523.002 94.9709C523.038 94.9496 523.017 94.9654 522.938 94.9966L519.434 86.1025ZM516.932 87.5588H507.373V104.848H516.932H526.492V87.5588H516.932ZM559.763 93.16H550.203V102.719H559.763V93.16ZM569.845 93.16V102.719H579.404V93.16H569.845ZM560.958 86.6626L568.689 92.2851L568.719 92.244L568.748 92.2025L560.958 86.6626ZM560.92 109.515L553.166 115.106L553.208 115.164L553.251 115.222L560.92 109.515ZM568.575 109.627L575.859 115.818L568.575 109.627ZM569.845 104.922V95.3631H560.285V104.922H569.845ZM581.383 104.922H590.943V95.3631H581.383V104.922ZM581.383 114.855L586.628 122.847L590.943 120.016V114.855H581.383ZM551.958 116.199L545.649 123.381L545.668 123.398L545.687 123.414L551.958 116.199ZM551.958 80.0159L558.268 87.1975L558.272 87.1935L551.958 80.0159ZM577.425 80.0532L571.008 87.1386L571.027 87.1553L571.045 87.172L577.425 80.0532ZM581.383 100.553V110.113H590.943V100.553H581.383ZM559.763 100.553V90.9942H550.203V100.553H559.763ZM559.763 92.0024H550.203V93.16H559.763H569.322V92.0024H559.763ZM559.763 93.16V102.719H569.845V93.16V83.6006H559.763V93.16ZM569.845 93.16H579.404V91.4796H569.845H560.285V93.16H569.845ZM569.845 91.4796H579.404C579.404 88.4335 578.913 84.1878 576.129 80.6446L568.613 86.5506L561.096 92.4565C560.48 91.673 560.298 91.0256 560.263 90.8855C560.229 90.7504 560.285 90.9059 560.285 91.4796H569.845ZM568.613 86.5506L576.129 80.6446C572.989 76.648 568.524 75.4229 564.804 75.4229V84.9823V94.5416C564.717 94.5416 564.175 94.5307 563.405 94.2136C562.568 93.869 561.737 93.2727 561.096 92.4565L568.613 86.5506ZM564.804 84.9823V75.4229C560.923 75.4229 556.259 76.7753 553.167 81.1228L560.958 86.6626L568.748 92.2025C568.123 93.0814 567.262 93.7611 566.344 94.1621C565.505 94.5287 564.902 94.5416 564.804 94.5416V84.9823ZM560.958 86.6626L553.227 81.0401C550.607 84.6414 550.203 88.9618 550.203 92.0024H559.763H569.322C569.322 91.6396 569.337 91.3676 569.355 91.1755C569.373 90.9816 569.392 90.8988 569.39 90.9066C569.389 90.9128 569.358 91.0508 569.262 91.281C569.166 91.513 568.99 91.8706 568.689 92.2851L560.958 86.6626ZM559.763 104.176H550.203C550.203 107.148 550.566 111.5 553.166 115.106L560.92 109.515L568.675 103.925C568.994 104.368 569.175 104.746 569.271 104.983C569.32 105.103 569.35 105.197 569.369 105.257C569.387 105.317 569.394 105.35 569.394 105.352C569.395 105.354 569.39 105.331 569.382 105.279C569.374 105.227 569.365 105.151 569.356 105.049C569.337 104.843 569.322 104.555 569.322 104.176H559.763ZM560.92 109.515L553.251 115.222C556.431 119.495 561.113 120.68 564.804 120.68V111.121V101.562C564.825 101.562 565.356 101.561 566.141 101.886C567.008 102.244 567.904 102.887 568.589 103.808L560.92 109.515ZM564.804 111.121V120.68C568.441 120.68 572.717 119.514 575.859 115.818L568.575 109.627L561.292 103.436C561.919 102.698 562.702 102.167 563.478 101.86C564.198 101.575 564.705 101.562 564.804 101.562V111.121ZM568.575 109.627L575.859 115.818C578.774 112.389 579.404 108.266 579.404 105.146H569.845H560.285C560.285 105.496 560.245 105.455 560.33 105.154C560.423 104.827 560.676 104.16 561.292 103.436L568.575 109.627ZM569.845 105.146H579.404V104.922H569.845H560.285V105.146H569.845ZM569.845 104.922V114.482H581.383V104.922V95.3631H569.845V104.922ZM581.383 104.922H571.824V114.855H581.383H590.943V104.922H581.383ZM581.383 114.855L576.138 106.863C574.573 107.89 572.836 108.692 570.884 109.258L573.542 118.44L576.2 127.622C579.923 126.544 583.414 124.957 586.628 122.847L581.383 114.855ZM573.542 118.44L570.884 109.258C568.919 109.826 566.902 110.113 564.804 110.113V119.672V129.231C568.68 129.231 572.488 128.697 576.2 127.622L573.542 118.44ZM564.804 119.672V110.113C559.775 110.113 558.313 109.057 558.229 108.984L551.958 116.199L545.687 123.414C550.931 127.972 558.032 129.231 564.804 129.231V119.672ZM551.958 116.199L558.268 109.018C558.267 109.018 558.265 109.016 558.259 109.009C558.254 109.002 558.239 108.984 558.216 108.95C558.173 108.884 558.082 108.727 557.979 108.433C557.762 107.817 557.522 106.691 557.522 104.848H547.963H538.404C538.404 111.5 540.098 118.504 545.649 123.381L551.958 116.199ZM547.963 104.848H557.522V91.4049H547.963H538.404V104.848H547.963ZM547.963 91.4049H557.522C557.522 87.5599 558.5 86.9931 558.268 87.1975L551.958 80.0159L545.649 72.8343C540.089 77.7187 538.404 84.7446 538.404 91.4049H547.963ZM551.958 80.0159L558.272 87.1935C558.396 87.0844 559.861 86.0278 564.804 86.0278V76.4685V66.9092C557.997 66.9092 550.898 68.2175 545.645 72.8383L551.958 80.0159ZM564.804 76.4685V86.0278C569.599 86.0278 570.941 87.0775 571.008 87.1386L577.425 80.0532L583.842 72.9678C578.632 68.2493 571.559 66.9092 564.804 66.9092V76.4685ZM577.425 80.0532L571.045 87.172C571.047 87.1741 571.072 87.195 571.119 87.2672C571.168 87.3442 571.262 87.511 571.367 87.8122C571.587 88.4415 571.824 89.5725 571.824 91.4049H581.383H590.943C590.943 84.7754 589.262 77.8248 583.805 72.9345L577.425 80.0532ZM581.383 91.4049H571.824V100.553H581.383H590.943V91.4049H581.383ZM581.383 100.553V90.9942H559.763V100.553V110.113H581.383V100.553ZM559.763 100.553H550.203V104.176H559.763H569.322V100.553H559.763ZM602.854 109.067L594.428 113.581L602.854 109.067ZM604.908 110.524H614.467V103.238L607.443 101.306L604.908 110.524ZM604.908 119V128.559H614.467V119H604.908ZM588.067 119H578.508V128.559H588.067V119ZM588.067 110.524L586.614 101.075L578.508 102.322V110.524H588.067ZM590.084 109.03L581.39 105.056L581.363 105.113L581.338 105.171L590.084 109.03ZM590.121 87.1107L581.704 91.6428L581.81 91.8384L581.924 92.0289L590.121 87.1107ZM588.067 85.5797H578.508V92.2614L584.783 94.5571L588.067 85.5797ZM588.067 77.2526V67.6933H578.508V77.2526H588.067ZM601.771 77.2526H611.331V67.6933H601.771V77.2526ZM601.771 80.688H592.212V110.722L609.572 86.2135L601.771 80.688ZM604.721 77.9995L600.3 69.5243L600.261 69.5444L600.223 69.5648L604.721 77.9995ZM610.061 77.2153L613.084 68.1465L612.123 67.8263L611.117 67.7145L610.061 77.2153ZM610.248 77.2526H619.807V67.6933H610.248V77.2526ZM610.248 89.4632V99.0225H619.807V89.4632H610.248ZM609.8 89.4258L610.985 79.9403L610.902 79.9299L610.818 79.9209L609.8 89.4258ZM603.713 91.2929L596.014 85.6273L596.004 85.64L595.995 85.6527L603.713 91.2929ZM602.294 104.848H592.735C592.735 106.144 592.79 107.478 592.958 108.748C593.102 109.833 593.427 111.714 594.428 113.581L602.854 109.067L611.281 104.553C611.468 104.903 611.595 105.204 611.678 105.427C611.761 105.651 611.815 105.831 611.847 105.952C611.908 106.181 611.919 106.292 611.91 106.232C611.904 106.181 611.888 106.042 611.875 105.796C611.862 105.553 611.854 105.24 611.854 104.848H602.294ZM602.854 109.067L594.428 113.581C596.386 117.236 599.663 118.995 602.373 119.741L604.908 110.524L607.443 101.306C608.162 101.504 610.07 102.293 611.281 104.553L602.854 109.067ZM604.908 110.524H595.349V119H604.908H614.467V110.524H604.908ZM604.908 119V109.441H588.067V119V128.559H604.908V119ZM588.067 119H597.627V110.524H588.067H578.508V119H588.067ZM588.067 110.524L589.521 119.972C593.478 119.363 597.044 116.936 598.83 112.888L590.084 109.03L581.338 105.171C581.748 104.241 582.475 103.197 583.61 102.357C584.722 101.533 585.832 101.196 586.614 101.075L588.067 110.524ZM590.084 109.03L598.778 113.004C600.139 110.027 600.24 106.462 600.24 104.176H590.681H581.122C581.122 104.636 581.112 105.019 581.096 105.332C581.081 105.648 581.06 105.864 581.044 105.995C581.027 106.133 581.021 106.124 581.05 106.006C581.074 105.904 581.164 105.549 581.39 105.056L590.084 109.03ZM590.681 104.176H600.24V90.9195H590.681H581.122V104.176H590.681ZM590.681 90.9195H600.24C600.24 89.699 600.184 88.3991 599.999 87.1388C599.841 86.0671 599.472 84.1162 598.318 82.1925L590.121 87.1107L581.924 92.0289C581.485 91.2967 581.283 90.6924 581.2 90.4125C581.11 90.1091 581.084 89.9253 581.084 89.9205C581.081 89.9053 581.092 89.9786 581.103 90.1624C581.114 90.342 581.122 90.5911 581.122 90.9195H590.681ZM590.121 87.1107L598.538 82.5786C596.653 79.0781 593.543 77.4039 591.352 76.6023L588.067 85.5797L584.783 94.5571C584.633 94.5023 582.892 93.8488 581.704 91.6428L590.121 87.1107ZM588.067 85.5797H597.627V77.2526H588.067H578.508V85.5797H588.067ZM588.067 77.2526V86.812H601.771V77.2526V67.6933H588.067V77.2526ZM601.771 77.2526H592.212V80.688H601.771H611.331V77.2526H601.771ZM601.771 80.688L609.572 86.2135C609.637 86.1212 609.647 86.1265 609.583 86.1849C609.515 86.2466 609.394 86.3414 609.22 86.4342L604.721 77.9995L600.223 69.5648C597.603 70.9621 595.545 72.9407 593.971 75.1626L601.771 80.688ZM604.721 77.9995L609.143 86.4746C609.015 86.5414 608.873 86.5945 608.733 86.6277C608.596 86.6603 608.508 86.6626 608.493 86.6626V77.1033V67.544C605.679 67.544 602.892 68.1719 600.3 69.5243L604.721 77.9995ZM608.493 77.1033V86.6626C608.382 86.6626 608.367 86.6579 608.484 86.6663C608.591 86.6739 608.76 86.6889 609.006 86.7162L610.061 77.2153L611.117 67.7145C610.326 67.6266 609.394 67.544 608.493 67.544V77.1033ZM610.061 77.2153L607.038 86.2841C607.59 86.468 608.752 86.812 610.248 86.812V77.2526V67.6933C610.996 67.6933 611.612 67.7842 612.039 67.8696C612.475 67.957 612.831 68.0621 613.084 68.1465L610.061 77.2153ZM610.248 77.2526H600.689V89.4632H610.248H619.807V77.2526H610.248ZM610.248 89.4632V79.9039C610.416 79.9039 610.551 79.9089 610.641 79.9135C610.734 79.9181 610.807 79.9236 610.855 79.9276C610.946 79.9352 610.995 79.9416 610.985 79.9403L609.8 89.4258L608.614 98.9114C608.896 98.9466 609.529 99.0225 610.248 99.0225V89.4632ZM609.8 89.4258L610.818 79.9209C610.145 79.8488 609.191 79.7545 608.343 79.7545V89.3138V98.8731C608.209 98.8731 608.125 98.8689 608.119 98.8686C608.106 98.868 608.123 98.8686 608.18 98.873C608.296 98.8819 608.491 98.8996 608.781 98.9308L609.8 89.4258ZM608.343 89.3138V79.7545C604.164 79.7545 599.295 81.1676 596.014 85.6273L603.713 91.2929L611.413 96.9585C610.861 97.7087 610.113 98.275 609.356 98.5987C608.674 98.8901 608.252 98.8731 608.343 98.8731V89.3138ZM603.713 91.2929L595.995 85.6527C593.23 89.4372 592.735 94.0404 592.735 97.5289H602.294H611.854C611.854 97.0723 611.873 96.7129 611.899 96.4396C611.925 96.1647 611.956 96.0062 611.97 95.9437C611.985 95.8801 611.974 95.9507 611.904 96.1175C611.833 96.2863 611.69 96.5796 611.431 96.9331L603.713 91.2929ZM602.294 97.5289H592.735V104.848H602.294H611.854V97.5289H602.294Z" fill="white" mask="url(#path-11-outside-1_15326_26946)"/>
</g>
<defs>
<filter id="filter0_d_15326_26946" x="0" y="-6" width="627.807" height="196" filterUnits="userSpaceOnUse" color-interpolation-filters="sRGB">
<feFlood flood-opacity="0" result="BackgroundImageFix"/>
<feColorMatrix in="SourceAlpha" type="matrix" values="0 0 0 0 0 0 0 0 0 0 0 0 0 0 0 0 0 0 127 0" result="hardAlpha"/>
<feOffset dy="2"/>
<feGaussianBlur stdDeviation="4"/>
<feComposite in2="hardAlpha" operator="out"/>
<feColorMatrix type="matrix" values="0 0 0 0 0 0 0 0 0 0 0 0 0 0 0 0 0 0 0.4 0"/>
<feBlend mode="normal" in2="BackgroundImageFix" result="effect1_dropShadow_15326_26946"/>
<feBlend mode="normal" in="SourceGraphic" in2="effect1_dropShadow_15326_26946" result="shape"/>
</filter>
</defs>
</svg>
