<svg xmlns="http://www.w3.org/2000/svg" xmlns:xlink="http://www.w3.org/1999/xlink" viewBox="0 0 2057.93 1989.9"><defs><style>.cls-1{fill:#f4f2ff;}.cls-2{fill:#d1bbfa;}.cls-3{fill:url(#linear-gradient);}.cls-4{fill:#bd99ff;}.cls-5{fill:url(#linear-gradient-2);}.cls-6{fill:url(#linear-gradient-3);}.cls-7{fill:#ff80b3;}.cls-8{fill:#ff297f;}.cls-9{fill:#b385ff;}.cls-10{fill:url(#linear-gradient-4);}.cls-11{fill:#211d40;}.cls-12{fill:#d0d1fc;}.cls-13{fill:#a782ff;}.cls-14{fill:url(#linear-gradient-5);}.cls-15{fill:#d1bdff;}.cls-16{fill:url(#linear-gradient-6);}.cls-17{fill:#eae0ff;}.cls-18{fill:#fff;}.cls-19{fill:#7e2eff;}.cls-20{fill:#6124c4;}.cls-21{fill:url(#linear-gradient-7);}.cls-22{fill:#301952;}.cls-23{fill:#ffcdc4;}.cls-24{fill:#121729;}.cls-25{fill:url(#linear-gradient-8);}.cls-26{fill:url(#linear-gradient-9);}.cls-27{fill:url(#linear-gradient-10);}.cls-28{fill:url(#linear-gradient-11);}.cls-29{fill:#9da1cc;}.cls-30{fill:url(#linear-gradient-12);}.cls-31{fill:#f2b4aa;}.cls-32{fill:url(#linear-gradient-13);}.cls-33{fill:url(#linear-gradient-14);}.cls-34{fill:url(#linear-gradient-15);}.cls-35{fill:url(#linear-gradient-16);}.cls-36{fill:url(#linear-gradient-17);}.cls-37{fill:#cacce8;}.cls-38{fill:url(#linear-gradient-18);}.cls-39{fill:url(#linear-gradient-19);}.cls-40{fill:url(#linear-gradient-20);}.cls-41{fill:url(#linear-gradient-21);}</style><linearGradient id="linear-gradient" x1="-1657.87" y1="4113.58" x2="-1702.55" y2="3682.74" gradientTransform="matrix(0.9, 0.44, -0.44, 0.9, 4983.59, -1194.25)" gradientUnits="userSpaceOnUse"><stop offset="0" stop-color="#f0edff"/><stop offset="1" stop-color="#cfb5ff"/></linearGradient><linearGradient id="linear-gradient-2" x1="7039.13" y1="418.99" x2="6624.94" y2="126.93" gradientTransform="matrix(-0.95, 0.3, 0.3, 0.95, 8051.03, -930.91)" xlink:href="#linear-gradient"/><linearGradient id="linear-gradient-3" x1="7906.73" y1="2329.79" x2="8400.53" y2="1957.84" gradientTransform="matrix(-0.99, -0.12, -0.12, 0.99, 8836.29, 391.82)" xlink:href="#linear-gradient"/><linearGradient id="linear-gradient-4" x1="7405.86" y1="331.43" x2="7457.17" y2="416.61" gradientTransform="matrix(-0.97, 0.26, 0.26, 0.97, 7774.94, -965.3)" gradientUnits="userSpaceOnUse"><stop offset="0" stop-color="#ff80b3"/><stop offset="1" stop-color="#fff"/></linearGradient><linearGradient id="linear-gradient-5" x1="259.7" y1="1302.94" x2="186.94" y2="1293.66" gradientTransform="translate(207.51 -1133.92) rotate(13.4)" gradientUnits="userSpaceOnUse"><stop offset="0" stop-color="#a782ff"/><stop offset="1" stop-color="#d1bdff"/></linearGradient><linearGradient id="linear-gradient-6" x1="924.71" y1="524.06" x2="1241.08" y2="1879.24" gradientUnits="userSpaceOnUse"><stop offset="0" stop-color="#505273"/><stop offset="1" stop-color="#20212e"/></linearGradient><linearGradient id="linear-gradient-7" x1="1148.05" y1="1026.68" x2="919.87" y2="1670.96" gradientUnits="userSpaceOnUse"><stop offset="0" stop-color="#7e2eff"/><stop offset="1" stop-color="#45198c"/></linearGradient><linearGradient id="linear-gradient-8" x1="251.28" y1="1545.22" x2="240.48" y2="1753.07" gradientUnits="userSpaceOnUse"><stop offset="0" stop-color="#121729"/><stop offset="1" stop-color="#5f638a"/></linearGradient><linearGradient id="linear-gradient-9" x1="193.18" y1="1405.07" x2="179.69" y2="1818.08" xlink:href="#linear-gradient-8"/><linearGradient id="linear-gradient-10" x1="187.3" y1="1209.42" x2="325.57" y2="1349.58" gradientUnits="userSpaceOnUse"><stop offset="0" stop-color="#36b9fc"/><stop offset="1" stop-color="#2078fb"/></linearGradient><linearGradient id="linear-gradient-11" x1="206.55" y1="1201.31" x2="194.74" y2="1501.06" xlink:href="#linear-gradient-10"/><linearGradient id="linear-gradient-12" x1="167.97" y1="1300.94" x2="468.19" y2="1449.2" xlink:href="#linear-gradient-10"/><linearGradient id="linear-gradient-13" x1="973.56" y1="438.89" x2="815.05" y2="704.43" xlink:href="#linear-gradient-8"/><linearGradient id="linear-gradient-14" x1="1108" y1="363.99" x2="893.94" y2="644.43" xlink:href="#linear-gradient-8"/><linearGradient id="linear-gradient-15" x1="1081.44" y1="423.52" x2="1103.13" y2="210.21" xlink:href="#linear-gradient-10"/><linearGradient id="linear-gradient-16" x1="1009.26" y1="421.19" x2="1031.38" y2="203.62" xlink:href="#linear-gradient-10"/><linearGradient id="linear-gradient-17" x1="1130.06" y1="432.33" x2="1152.09" y2="215.71" xlink:href="#linear-gradient-10"/><linearGradient id="linear-gradient-18" x1="1463.24" y1="1847.3" x2="1763.01" y2="1847.3" xlink:href="#linear-gradient-8"/><linearGradient id="linear-gradient-19" x1="1832.11" y1="1832.42" x2="1640.79" y2="1713.42" xlink:href="#linear-gradient-10"/><linearGradient id="linear-gradient-20" x1="1523.9" y1="1572.14" x2="1513.13" y2="1845.48" xlink:href="#linear-gradient-10"/><linearGradient id="linear-gradient-21" x1="1499.51" y1="1677.43" x2="1836.71" y2="1843.95" xlink:href="#linear-gradient-10"/></defs><g id="Layer_2" data-name="Layer 2"><g id="Layer_2-2" data-name="Layer 2"><path class="cls-1" d="M1984,485.93c0-57.51-44.14-98.59-98.59-98.59a98.1,98.1,0,0,0-45.31,11,98.59,98.59,0,0,0-178,32.12,79.62,79.62,0,0,0-45.75-14.41c-44.24,0-80.11,28.76-80.11,86.27s31,77.89,68.89,77.89c0,0,299.92,2.76,309,0C1949.57,578.63,1984,543.44,1984,485.93Z"/><path class="cls-1" d="M791.71,800.57c0-51.2-39.29-87.77-87.77-87.77a87.3,87.3,0,0,0-40.34,9.83,87.77,87.77,0,0,0-158.47,28.6,71,71,0,0,0-40.74-12.83c-39.38,0-71.31,25.6-71.31,76.8s27.6,69.35,61.33,69.35c0,0,267,2.46,275.12,0C761,883.11,791.71,851.78,791.71,800.57Z"/><path class="cls-1" d="M1403.05,168c0-38.59,31.56-100.14,101.49-100.14s107.68,33.71,114.52,62.95a53.47,53.47,0,0,1,30.71-9.67c29.69,0,53.76,19.3,53.76,57.89s-20.81,52.27-46.23,52.27c0,0-201.27,1.86-207.37,0C1426.18,230.16,1403.05,206.55,1403.05,168Z"/><path class="cls-2" d="M1428.7,757.9a2.48,2.48,0,1,1,0-5c3.7,0,7.47,0,11.18-.12h.06a2.48,2.48,0,0,1,0,5C1436.23,757.86,1432.43,757.9,1428.7,757.9Zm36-1.28a2.48,2.48,0,0,1-.17-5,469.5,469.5,0,0,0,61.09-8.33,2.48,2.48,0,1,1,1,4.86,474.1,474.1,0,0,1-61.74,8.41Zm85.55-14.1a2.48,2.48,0,0,1-.65-4.88,336.38,336.38,0,0,0,57.71-21.14,2.48,2.48,0,0,1,2.15,4.47,341,341,0,0,1-58.56,21.46A2.48,2.48,0,0,1,1550.25,742.52Zm80-33a2.48,2.48,0,0,1-1.28-4.61,218.23,218.23,0,0,0,47.79-38,2.48,2.48,0,0,1,3.63,3.39,223.55,223.55,0,0,1-48.87,38.91A2.56,2.56,0,0,1,1630.24,709.51Zm64-57.64a2.48,2.48,0,0,1-2-3.92,178.75,178.75,0,0,0,18.63-33.07,168.74,168.74,0,0,0,7.62-21.74,2.48,2.48,0,0,1,4.79,1.31,172.57,172.57,0,0,1-7.85,22.38,182.8,182.8,0,0,1-19.15,34A2.47,2.47,0,0,1,1694.25,651.87ZM1725.7,572l-.31,0a2.49,2.49,0,0,1-2.16-2.77,176.2,176.2,0,0,0,1.35-21.88,194.67,194.67,0,0,0-4-39,2.48,2.48,0,1,1,4.86-1,199.51,199.51,0,0,1,4.14,40,182,182,0,0,1-1.39,22.49A2.47,2.47,0,0,1,1725.7,572Zm-9.08-85.63a2.48,2.48,0,0,1-2.36-1.72,249.86,249.86,0,0,0-26.17-55.38,2.48,2.48,0,0,1,4.2-2.64A254.71,254.71,0,0,1,1719,483.1a2.48,2.48,0,0,1-1.59,3.13A2.51,2.51,0,0,1,1716.62,486.35ZM1676.07,410a2.49,2.49,0,0,1-2-1,284.65,284.65,0,0,0-42.2-44.54,2.48,2.48,0,1,1,3.21-3.78A289.17,289.17,0,0,1,1678,406a2.47,2.47,0,0,1-.47,3.47A2.43,2.43,0,0,1,1676.07,410ZM668.25,392.51c-17.41,0-34-.71-49.43-2.09a2.48,2.48,0,1,1,.44-4.94c15.25,1.37,31.73,2.07,49,2.07,4.15,0,8.41,0,12.69-.12a2.45,2.45,0,0,1,2.52,2.43,2.48,2.48,0,0,1-2.43,2.53C676.73,392.47,672.43,392.51,668.25,392.51Zm37.53-1a2.48,2.48,0,0,1-.13-5c19.31-1,40.05-2.72,61.66-5.16a2.48,2.48,0,1,1,.56,4.92c-21.71,2.47-42.56,4.21-62,5.2Zm-111.36-4a2.31,2.31,0,0,1-.37,0c-22.48-3.39-42.83-8.56-60.49-15.39a2.48,2.48,0,1,1,1.79-4.63c17.32,6.7,37.32,11.78,59.44,15.11a2.48,2.48,0,0,1-.37,4.94Zm197.8-4.2a2.48,2.48,0,0,1-.32-4.94c19.3-2.57,39.89-5.74,61.2-9.43a2.48,2.48,0,0,1,.84,4.89c-21.37,3.7-42,6.88-61.39,9.46ZM878,369.47a2.48,2.48,0,0,1-.46-4.92c19.34-3.6,39.22-7.57,60.79-12.14a2.48,2.48,0,1,1,1,4.85c-21.61,4.59-41.53,8.56-60.91,12.17A2.28,2.28,0,0,1,878,369.47Zm-366-7.64a2.42,2.42,0,0,1-1.18-.31,204.88,204.88,0,0,1-31.15-20.81,316.16,316.16,0,0,1-38.2,2.89h0a2.48,2.48,0,0,1,0-5,312.88,312.88,0,0,0,33.1-2.25q-7-6-13.44-12.68a2.48,2.48,0,0,1,3.56-3.46,204.62,204.62,0,0,0,16.51,15.25l3.95-.61c5.75-.93,11.55-2.07,17.24-3.41a2.48,2.48,0,1,1,1.14,4.82c-5.63,1.33-11.37,2.47-17.06,3.4a199,199,0,0,0,26.8,17.47,2.48,2.48,0,0,1-1.19,4.66Zm451.09-9.76a2.48,2.48,0,0,1-.53-4.9c18.43-4.05,38.21-8.56,60.46-13.79a2.48,2.48,0,0,1,1.14,4.83C1001.84,343.44,982,348,963.59,352A2.47,2.47,0,0,1,963.05,352.07Zm650.86-2.17a2.44,2.44,0,0,1-1.43-.46,261.25,261.25,0,0,0-31.55-19.13c-7.19-3.69-14.67-7.18-22.22-10.4a2.48,2.48,0,1,1,1.94-4.56c7.66,3.26,15.24,6.81,22.54,10.54a265.83,265.83,0,0,1,32.15,19.5,2.48,2.48,0,0,1-1.43,4.51ZM416.6,343.12h-.13a462.87,462.87,0,0,1-61.81-7.73,2.48,2.48,0,0,1,.92-4.87,458.13,458.13,0,0,0,61.15,7.65,2.48,2.48,0,0,1-.13,4.95Zm631.1-10.56a2.48,2.48,0,0,1-.57-4.89q17.17-4.08,33.57-8l26.78-6.42a2.48,2.48,0,0,1,1.16,4.83q-13.07,3.1-26.78,6.41-16.38,3.93-33.58,8A2.86,2.86,0,0,1,1047.7,332.56Zm-716.84-2.22a2.67,2.67,0,0,1-.56-.06c-14-3.23-28.77-7.06-45-11.71-5.2-1.49-10.25-3-15-4.48a2.48,2.48,0,0,1,1.48-4.74c4.73,1.48,9.74,3,14.89,4.45,16.18,4.63,30.82,8.44,44.78,11.64a2.48,2.48,0,0,1-.55,4.9Zm195.8-.85a2.48,2.48,0,0,1-.81-4.83,228.07,228.07,0,0,0,54.74-27.27,2.48,2.48,0,1,1,2.8,4.09,232.92,232.92,0,0,1-55.92,27.87A2.3,2.3,0,0,1,526.66,329.49Zm605.56-17.09a2.48,2.48,0,0,1-.57-4.9c25.4-5.94,44.68-10.2,60.69-13.39a2.48,2.48,0,1,1,1,4.87c-16,3.17-35.19,7.42-60.52,13.35A2.22,2.22,0,0,1,1132.22,312.4Zm404.34-1.22a2.62,2.62,0,0,1-.82-.14,421.54,421.54,0,0,0-59.51-15.78,2.48,2.48,0,1,1,.93-4.87,427.53,427.53,0,0,1,60.22,16,2.48,2.48,0,0,1-.82,4.82Zm-1289-4.93a2.34,2.34,0,0,1-.86-.16c-22-8.08-40.39-16.86-56.34-26.85A2.48,2.48,0,0,1,193,275c15.65,9.81,33.78,18.45,55.42,26.41a2.48,2.48,0,0,1-.86,4.81Zm199.11-.57a2.49,2.49,0,0,1-2-1,202.08,202.08,0,0,1-24.42-41.47c-1.93-4.41-3.7-9-5.29-13.55a2.48,2.48,0,0,1,4.69-1.62c1.54,4.46,3.27,8.9,5.15,13.19a196.59,196.59,0,0,0,23.82,40.44,2.49,2.49,0,0,1-2,4Zm770.63-11.12a2.48,2.48,0,0,1-.4-4.93c9.1-1.48,16.86-2.48,23.7-3.08,14-1.23,26.5-2.22,38.23-3a2.48,2.48,0,1,1,.34,5c-11.7.81-24.17,1.8-38.14,3-6.72.59-14.35,1.58-23.33,3Zm235-3.28a2,2,0,0,1-.34,0c-19.23-2.69-39.92-4.47-61.5-5.3a2.48,2.48,0,0,1,.19-5c21.75.84,42.6,2.64,62,5.35a2.48,2.48,0,0,1-.34,4.94ZM1303.7,287a2.48,2.48,0,0,1-.13-4.95c20.17-1.07,38.53-1.58,56.14-1.58,2,0,4,0,6,0a2.47,2.47,0,0,1,2.47,2.49,2.51,2.51,0,0,1-2.5,2.46l-6,0c-17.52,0-35.8.52-55.87,1.58Zm-702.14-.24a2.48,2.48,0,0,1-1.64-4.34,169.79,169.79,0,0,0,38-47.46,2.48,2.48,0,1,1,4.38,2.34,174.68,174.68,0,0,1-39,48.84A2.45,2.45,0,0,1,601.56,286.71ZM171.48,265.2a2.46,2.46,0,0,1-1.57-.56c-17.29-14.19-30.43-30.61-39.07-48.83a2.48,2.48,0,1,1,4.48-2.13c8.32,17.55,21,33.41,37.73,47.12a2.48,2.48,0,0,1-1.57,4.4Zm239.29-37.76a2.49,2.49,0,0,1-2.43-2,187.62,187.62,0,0,1-3.73-37.11,179.53,179.53,0,0,1,1.8-25.4,2.48,2.48,0,0,1,4.91.71,174,174,0,0,0-1.75,24.69,182.32,182.32,0,0,0,3.64,36.13,2.48,2.48,0,0,1-1.94,2.92A2.92,2.92,0,0,1,410.77,227.44ZM649.82,215.8a2.51,2.51,0,0,1-.76-.12,2.48,2.48,0,0,1-1.59-3.13A140.87,140.87,0,0,0,654.2,169a147.68,147.68,0,0,0-.94-16.69,2.48,2.48,0,1,1,4.93-.56,155.29,155.29,0,0,1,1,17.25,145.57,145.57,0,0,1-7,45A2.48,2.48,0,0,1,649.82,215.8ZM414.24,141.59a2.64,2.64,0,0,1-.73-.11,2.49,2.49,0,0,1-1.65-3.1,147.92,147.92,0,0,1,21.77-44.1,125.37,125.37,0,0,1,8.64-10.6A2.48,2.48,0,1,1,445.94,87a122.09,122.09,0,0,0-8.29,10.18,142.81,142.81,0,0,0-21,42.64A2.49,2.49,0,0,1,414.24,141.59Zm236.67-11.35a2.49,2.49,0,0,1-2.39-1.79c-5.84-20.36-16-38.53-29.4-52.54a2.48,2.48,0,1,1,3.58-3.43c13.95,14.59,24.52,33.47,30.59,54.6a2.48,2.48,0,0,1-1.7,3.07A2.71,2.71,0,0,1,650.91,130.24ZM462.43,71.17a2.48,2.48,0,0,1-1.49-4.46A140.38,140.38,0,0,1,518.09,41.2a2.48,2.48,0,1,1,.95,4.87,135.47,135.47,0,0,0-55.12,24.6A2.45,2.45,0,0,1,462.43,71.17ZM601.9,60.84a2.5,2.5,0,0,1-1.35-.4,101.26,101.26,0,0,0-11.06-6.26A106.22,106.22,0,0,0,543.2,43.75a2.48,2.48,0,0,1,0-5h0a111,111,0,0,1,48.43,10.93,104.52,104.52,0,0,1,11.61,6.57,2.47,2.47,0,0,1-1.36,4.55Z"/><path class="cls-3" d="M1609.72,1563.68c87.36-48.67,105-32.29,157.33-70.2s139.74-86.58,168.6-40-7.66,71.68-30.34,103.1-52.71,86.2-88.2,101.74-68.94,12-96.92,47.66-40,82.35-112.41,91.73-109.59-4.27-118.13-14.85S1522.36,1612.36,1609.72,1563.68Z"/><path class="cls-4" d="M1438.18,1816a4.8,4.8,0,0,1-2.53-8.81c2.07-1.38,208.08-137.56,253.94-184.81,46.63-48.05,200.48-143.84,207-147.9a4.81,4.81,0,1,1,5.07,8.17c-1.59,1-159.37,99.22-205.18,146.42-46.59,48-247,180.52-255.55,186.13A4.74,4.74,0,0,1,1438.18,1816Z"/><path class="cls-4" d="M1815.92,1537.27a4.81,4.81,0,0,1,0-9.61l77.48-1.31a4.81,4.81,0,1,1,.17,9.61l-77.48,1.31Z"/><path class="cls-4" d="M1864.92,1576.41h-.2l-96.49-6.34a4.81,4.81,0,0,1-4.48-5.11,4.7,4.7,0,0,1,5.11-4.48l96.49,6.35a4.8,4.8,0,0,1-.43,9.59Z"/><path class="cls-4" d="M1784.06,1559.06a4.68,4.68,0,0,1-1.55-.3,4.8,4.8,0,0,1-2.84-6.17l27.92-75.3a4.8,4.8,0,1,1,9,3.34l-27.91,75.3A4.83,4.83,0,0,1,1784.06,1559.06Z"/><path class="cls-4" d="M1821.94,1639.49a3.11,3.11,0,0,1-.43,0l-123.78-14.1a4.81,4.81,0,0,1,1.09-9.55l123.78,14.1a4.81,4.81,0,0,1-.66,9.58Z"/><path class="cls-4" d="M1633.28,1665.34a3.25,3.25,0,0,1,.15-.4l48.18-114.88a4.8,4.8,0,1,1,8.86,3.71l-48.18,114.89a4.81,4.81,0,0,1-9-3.32Z"/><path class="cls-4" d="M1628.15,1683.79a4.81,4.81,0,0,1,.24-9.61l84.91,2.08a4.81,4.81,0,1,1-.23,9.61Z"/><path class="cls-4" d="M1546.15,1746a4.81,4.81,0,0,1,.23-9.61l84.92,2.08a4.81,4.81,0,0,1-.24,9.61Z"/><path class="cls-4" d="M1571.8,1723.77a4.81,4.81,0,0,1-9.32-2.35l20.79-82.36a4.81,4.81,0,0,1,9.32,2.35Z"/><path class="cls-5" d="M1451.14,1673.42c-68-8.87-132.51-85-101.77-159.41s94.69-112.42,125.77-161,76.8-151.14,122.31-183.91,203.79-142.2,255.6-82.15-58.36,145.92-65.78,207.77,10.81,126.39-48.53,163.07S1577.85,1558,1561.91,1607.28,1487.33,1678.13,1451.14,1673.42Z"/><path class="cls-4" d="M1371.48,1681.81c29.59-53.9,64.39-118,92.86-172.25,63-120.12,312.86-363.65,323.47-374a5.21,5.21,0,0,1,7.26,7.48c-2.59,2.51-259.26,252.66-321.5,371.32-28.09,53.56-62.34,116.64-91.68,170.1A26.58,26.58,0,0,0,1371.48,1681.81Z"/><path class="cls-4" d="M1638,1304.18a3.59,3.59,0,0,0,.43-.14l136.65-51.81a5.21,5.21,0,0,0,3-6.72,5.15,5.15,0,0,0-6.72-3l-127.06,48.18,31.81-116a5.21,5.21,0,0,0-10-2.76l-34.52,125.84a5.2,5.2,0,0,0,6.44,6.39Z"/><path class="cls-4" d="M1566,1385.52a5.19,5.19,0,0,0,3.75-4.31l21.87-161.63a5.21,5.21,0,1,0-10.32-1.39l-21.88,161.62a5.22,5.22,0,0,0,4.47,5.86A5.14,5.14,0,0,0,1566,1385.52Z"/><path class="cls-4" d="M1708.34,1401a5.21,5.21,0,0,0-2.8-10l-198.13,54.53h0a5.21,5.21,0,0,0,2.79,10l198.14-54.54Z"/><path class="cls-4" d="M1460.32,1536.08l179.78-50.79a5.21,5.21,0,0,0-2.84-10l-179.78,50.78a5.21,5.21,0,0,0,2.84,10Z"/><path class="cls-6" d="M808.92,1768.85c3.29-42.09-7.79-86.54-36.3-117.27-22.37-24.11-53.56-38.26-76.4-61.91-53.14-55-48.48-145.4-89.42-210.24-39-61.75-112.58-90.58-182.8-108.72-35.62-9.2-76.2-15.9-106.92,4.65-37.92,25.36-42.27,83.07-21.62,123.91s59.33,68.64,96.74,94.55c8.67,6,17.63,12.28,23,21.43s6,22.06-1.44,29.63c-5.72,5.86-14.51,7.13-21.57,11.22-23.09,13.35-18.81,49.11-4.56,71.73,26.25,41.66,72.29,65.37,116.33,86.74,8.6,4.17,17.91,9,21.53,18,6,14.71-6.6,29.9-10.63,45.3-4.91,18.76,3.67,39.06,17.32,52.64s31.66,21.63,49.54,28.58c43.94,17.08,117.85,49.69,165.81,33.68C791.42,1878.09,805.82,1808.56,808.92,1768.85Z"/><path class="cls-4" d="M355,1306.73a5.15,5.15,0,0,1,7.33.11c10.23,10.69,251.09,263.16,310,385.93,44.18,92.13,104.92,212,132.37,265.94a53.29,53.29,0,0,0-10.84,1.66c-28.18-55.35-87.49-172.55-130.87-263-58.15-121.27-305.59-380.62-308.08-383.22A5.29,5.29,0,0,1,355,1306.73Z"/><path class="cls-4" d="M506,1480.94l-.42-.16-134.33-56.17a5.24,5.24,0,0,1-2.79-6.85,5.12,5.12,0,0,1,6.78-2.85l124.91,52.23-28-117.66a5.25,5.25,0,0,1,3.83-6.33,5.16,5.16,0,0,1,6.26,3.86l30.34,127.68a5.31,5.31,0,0,1-1.68,5.23A5.17,5.17,0,0,1,506,1480.94Z"/><path class="cls-4" d="M575,1564.93a5.22,5.22,0,0,1-3.6-4.46l-16.61-163.33a5.25,5.25,0,0,1,4.63-5.77,5.17,5.17,0,0,1,5.69,4.66l16.61,163.34a5.24,5.24,0,0,1-4.63,5.77A5,5,0,0,1,575,1564.93Z"/><path class="cls-4" d="M743.28,1850.49a5.21,5.21,0,0,1-3.59-4.46l-16.61-163.34a5.25,5.25,0,0,1,4.63-5.77,5.19,5.19,0,0,1,5.69,4.67L750,1844.93a5.25,5.25,0,0,1-4.63,5.77A5.08,5.08,0,0,1,743.28,1850.49Z"/><path class="cls-4" d="M432.93,1576.37a5.25,5.25,0,0,1,3.11-10l195.43,60.72h0a5.24,5.24,0,0,1-3.1,10L433,1576.38Z"/><path class="cls-4" d="M675.44,1719.58l-177.28-56.4a5.24,5.24,0,0,1-3.37-6.58,5.19,5.19,0,0,1,6.51-3.43l177.28,56.4a5.25,5.25,0,0,1-3.14,10Z"/><path class="cls-7" d="M612.87,1212.12s-11.31-56.69-25.32-70.85-35.81-28.66-54.67-10-2.25,40.46,10.67,53.53S612.87,1212.12,612.87,1212.12Z"/><path class="cls-8" d="M644.89,1258.33s-46.73-27.6-66.17-27.88-44.55,3.84-44.88,26.27S560,1282.53,578,1282.79,644.89,1258.33,644.89,1258.33Z"/><path class="cls-9" d="M645.75,1255.66s37.34-34.94,42.74-52.45,8.33-41.31-11.87-47.55-30.28,16.83-35.27,33S645.75,1255.66,645.75,1255.66Z"/><path class="cls-9" d="M689.69,1325.74S648,1302.83,631,1303.11s-38.91,4.56-38.59,24.22,23.62,21.9,39.34,21.64S689.69,1325.74,689.69,1325.74Z"/><path class="cls-10" d="M685.33,1322.35s28.35-27.34,32.31-40.89,5.93-31.9-9.7-36.47-23.12,13.31-26.77,25.81S685.33,1322.35,685.33,1322.35Z"/><path class="cls-11" d="M649.1,1263.2a2.94,2.94,0,0,0,1.8-1.36,3,3,0,0,0-1-4.08c-29.07-17.1-88.39-8-90.9-7.55a3,3,0,1,0,.93,5.89c.59-.1,59.72-9.22,87,6.79A2.94,2.94,0,0,0,649.1,1263.2Z"/><path class="cls-11" d="M705.53,1361.35a3.06,3.06,0,0,0,.48-.17,3,3,0,0,0,1.46-4c-37.88-82.33-69.56-119.51-92.7-146.65-4-4.72-7.81-9.17-11.26-13.43-23.51-29-38.24-45.58-53.51-55.43a3,3,0,0,0-3.23,5c14.59,9.41,29,25.62,52.11,54.17,3.5,4.32,7.32,8.8,11.36,13.54,22.91,26.88,54.29,63.7,91.82,145.28A3,3,0,0,0,705.53,1361.35Z"/><path class="cls-11" d="M650.29,1262.89a3,3,0,0,0,2.21-2.75c1.78-41.33,20.32-77.64,20.5-78a3,3,0,1,0-5.29-2.73c-.79,1.53-19.33,37.86-21.16,80.48a3,3,0,0,0,2.84,3.11A3.36,3.36,0,0,0,650.29,1262.89Z"/><path class="cls-11" d="M691.75,1333.45a3,3,0,0,0,.7-5.47c-20.74-11.78-77.59-7.51-80-7.33a3,3,0,0,0,.47,5.94c.57,0,57.42-4.32,76.59,6.57A3,3,0,0,0,691.75,1333.45Z"/><path class="cls-9" d="M1502.37,1128.38s12.57-50.16,25.71-62.2,33.25-24,49.28-6.56.25,36.25-11.87,47.36S1502.37,1128.38,1502.37,1128.38Z"/><path class="cls-8" d="M1484.57,1159.68s37.73-23.66,53.68-24.32,36.64,2.19,37.4,20.59-20.91,21.75-35.64,22.35S1484.57,1159.68,1484.57,1159.68Z"/><path class="cls-12" d="M1448.7,1211.47s37.74-23.66,53.69-24.32,36.64,2.18,37.39,20.59-20.91,21.75-35.63,22.35S1448.7,1211.47,1448.7,1211.47Z"/><path class="cls-7" d="M1475.37,1167.48s-30.17-32.76-33.74-48.32-4.56-36.42,13.39-40.53,25.21,16.57,28.5,30.93S1475.37,1167.48,1475.37,1167.48Z"/><path class="cls-11" d="M1458,1203.23c5-12.44,10.12-23.69,15.27-33.94a2.79,2.79,0,0,1-.69-1.48c-4.24-36-13.61-60.55-13.7-60.79a2.83,2.83,0,1,1,5.28-2c.37,1,8.71,22.88,13.28,56.26,26.2-49,53.59-73,78.15-91.75A2.83,2.83,0,1,1,1559,1074c-29.84,22.76-63.94,53.39-94.9,129.18Z"/><path class="cls-11" d="M1481.74,1162.46a2.85,2.85,0,0,0,1.39,0c34.95-9.32,70.16-3.43,70.52-3.37a2.89,2.89,0,1,0,1-5.7c-1.48-.26-36.77-6.19-73,3.47a2.9,2.9,0,0,0,.1,5.63Z"/><polygon class="cls-13" points="128.95 172.3 134.08 217.56 140.62 163.41 0 101.25 128.95 172.3"/><polygon class="cls-14" points="134.08 217.56 128.95 172.3 0 101.25 134.08 217.56"/><polygon class="cls-15" points="0 101.25 69.75 218.14 128.95 172.3 0 101.25"/><polygon class="cls-15" points="196.88 122.98 140.62 163.41 0 101.25 196.88 122.98"/><ellipse class="cls-2" cx="1028.96" cy="1906.17" rx="1028.96" ry="83.73"/><rect class="cls-16" x="694.54" y="467.98" width="769.28" height="1435.55" rx="59.98"/><rect class="cls-17" x="724.19" y="492.68" width="709.98" height="1386.14" rx="45.88"/><path class="cls-18" d="M1371.56,547.13h-50.13a3.39,3.39,0,1,1,0-6.77h50.13a3.39,3.39,0,1,1,0,6.77Z"/><path class="cls-18" d="M1371.56,570.05h-50.13a3.39,3.39,0,1,1,0-6.77h50.13a3.39,3.39,0,1,1,0,6.77Z"/><path class="cls-18" d="M1371.56,591.54h-50.13a3.39,3.39,0,0,1,0-6.78h50.13a3.39,3.39,0,1,1,0,6.78Z"/><path class="cls-19" d="M1079.18,820.76h0a181,181,0,0,0-181,181v119H958V999.28a121.42,121.42,0,0,1,121.41-121.42h0a121.42,121.42,0,0,1,121.42,121.42v121.41h59.29v-119A181,181,0,0,0,1079.18,820.76Z"/><rect class="cls-20" x="898.22" y="1043.93" width="59.81" height="76.77"/><rect class="cls-20" x="1200.86" y="1043.93" width="59.29" height="76.77"/><path class="cls-21" d="M848.16,1059.2h462a0,0,0,0,1,0,0v304.69a111.1,111.1,0,0,1-111.1,111.1H959.25a111.1,111.1,0,0,1-111.1-111.1V1059.2A0,0,0,0,1,848.16,1059.2Z"/><path class="cls-22" d="M1113.31,1311l-21.41-65.15a28.18,28.18,0,1,0-25.43,0L1045.05,1311Z"/><path class="cls-23" d="M270.34,1822.4s8.2,30.67,16.36,39.09,17.47,18.16,17.47,18.16-18.32,17.9-43,11.32-18.75-19.17-18.75-19.17l-1.28-47.89Z"/><path class="cls-24" d="M241.59,1870.62s-9.37,9.23-10.29,21.8.07,19.23,8.7,20.75,25.63-3.23,32.64-1.13,19.32,3.24,37.7,3.06,45.91-6.79,44.77-15-57.8-27.56-57.8-27.56-18.22,9.66-32.86,7.22S241.59,1870.62,241.59,1870.62Z"/><path class="cls-23" d="M181.56,1824.74s.89,30.67,9,39.09S208.07,1882,208.07,1882s-18.32,17.9-43,11.31-18.75-19.16-18.75-19.16l6-47.89Z"/><path class="cls-24" d="M145.5,1873s-9.37,9.23-10.3,21.8.08,19.23,8.7,20.74,25.63-3.22,32.64-1.12,19.33,3.24,37.71,3.06,45.9-6.79,44.77-15-57.81-27.56-57.81-27.56-18.22,9.66-32.85,7.22S145.5,1873,145.5,1873Z"/><path class="cls-25" d="M265.8,1443s49.27,208.51,18.06,399.81L234.62,1845l-34.85-317.08,4.54-91Z"/><path class="cls-26" d="M141.37,1437.59s-8,54-6.8,77,11,335.51,11,335.51l43.83-.66s22.51-113.34,39.9-215.6,17.92-192.58,17.92-192.58Z"/><path class="cls-27" d="M205.91,1192.29c-32.22,4.1,20.66,124.87,41.35,151.85S358.36,1332,358.36,1332l-7-30.38-62.85-2.25s-18.8-41-28.76-68.61S228.13,1189.46,205.91,1192.29Z"/><path class="cls-28" d="M199.77,1183.59c47.49,13.83,59.09,26.38,68.4,63.36S278,1412,272,1442.08s-119.74,22.25-130.54,16.4-1.39-51.68-3.89-99.26-16.55-74.91-7-117.75S161.89,1172.57,199.77,1183.59Z"/><path class="cls-29" d="M381.3,1321h0a10,10,0,0,0,12.91-5.53L439,1203.65a10,10,0,0,0-5.54-12.91h0a10,10,0,0,0-12.9,5.53l-44.74,111.85A10,10,0,0,0,381.3,1321Z"/><path class="cls-23" d="M409.55,1277.46c-6-4.52-26.25,1.32-45.5,14.43s-19.43,24.85-19.43,24.85l-23.05,7.3,9.59,30.25,29.55-9.37s15.79.6,33.09-10.49,7.46-38,7.46-38S415.54,1282,409.55,1277.46Z"/><path class="cls-30" d="M151.06,1213.81c-32.22,4.1,7.28,148.85,28,175.83s159.89-35.35,159.89-35.35l-15.12-32.55-113.33,22.94s-1.94-59.25-11.9-86.84S173.28,1211,151.06,1213.81Z"/><path class="cls-31" d="M223.44,1150.31l-6.5,32.83,12.4,11.06s7,17.09-27.75,14.84-37.73-23.33-37.73-23.33l10.2-6.74,5.46-36.48Z"/><path class="cls-23" d="M163.56,1091.84c-7.42,43.16,21.8,75.77,48.46,83.68s50.34-32.2,56.59-71c2.73-16.94,5.18-35-.25-46.51-7-14.86-20.08-24.57-37.49-27.37C199.94,1025.69,170.21,1053.15,163.56,1091.84Z"/><path class="cls-23" d="M171.44,1087.2s-6.86-22.06-17.57-18.91-6.91,21.52-2.06,30,15.2,9.33,15.2,9.33Z"/><path class="cls-24" d="M187,1064.6,175,1100.11l-3.51-12.91s-5-17.31-14.86-19.52-9.52,14.54-9.52,14.54-9.46-23.69-4-45.78,11-35.92,26.86-41.14,38.56,1.75,50.34-1,41.76-23.3,57-14,21.29,34.38,12.81,49.51-22.48,28.54-22.48,28.54-16,3.49-27.46,1.38-26.32-6.76-37.81-6.8S187,1064.6,187,1064.6Z"/><path class="cls-24" d="M1115.65,130s40.1-28.31,38.75-60.07-21-70-58.44-70-59.82,23-59.82,23Z"/><path class="cls-31" d="M1006.43,240.19,975,342.26l-42.1,18.53s-12-5.64-32.42-8.66c-25.74-3.8-53.76,20.29-50.07,29S925,387.91,925,387.91s54-2.53,71.5-8.16,46.68-118,46.68-118Z"/><path class="cls-23" d="M971.56,618.94s14.88,49.28,12.26,61.3-5.56,25.87-5.56,25.87,26.26,5.86,44.68-13.69,6.14-27.48,6.14-27.48L998.5,604.12Z"/><path class="cls-24" d="M1029.14,663.45s7.67,1.62,15.45,12.33,11.06,17.41,4.21,23.53-17.82,7.53-22.92,13.27-17,18.6-33.53,28.6-44.74,19.32-48.29,11.33,34.2-46.4,34.2-46.4,29.13-.92,40.09-15S1029.14,663.45,1029.14,663.45Z"/><path class="cls-23" d="M857.86,619.1s1.5,51.45-4.16,62.38S841.58,705,841.58,705s23.82,12.5,46.7-1.56,13.1-24.92,13.1-24.92l-13.65-66.7Z"/><path class="cls-24" d="M901.82,677.1s7,3.56,11.7,15.93,6.15,19.69-2.07,23.81-19.17,2.61-25.59,6.84-21.28,13.5-39.83,18.85-48.23,7-49.57-1.66S841.58,705,841.58,705s28.36,6.71,42.63-4S901.82,677.1,901.82,677.1Z"/><path class="cls-32" d="M869,421.79c-27.4,18.46-16.71,216.33-16.71,216.33h44.29s22.1-143,17.25-162.59c0,0,148.94-13.72,161.66-19.46s21.06-31,13.18-55.51-86.33-5.41-86.33-5.41S896.39,403.34,869,421.79Z"/><path class="cls-33" d="M937.63,427.66c-26.22,20.23,22.62,180.78,33.93,214.51l47.5-8.48s-10.8-145.19-16.83-164.39c0,0,134.61,5.57,147-1s22.39-48.34,13-72.26-115,2.49-115,2.49S963.85,407.44,937.63,427.66Z"/><path class="cls-34" d="M1068.65,184s-28.23,19.48-38.26,36.87-10.27,40.47-9.34,48.3,6.45,22.69,6.45,22.69,7.84,17.52,3.69,42-13.35,42.43-13.35,55.34,38.24,22.92,71.89,20.15,72.49-6.3,72.49-16.59-15.8-35.39-16.26-55.21,8.3-72.83,8.3-72.83l-7.84-71.45-22.12-16.14Z"/><path class="cls-35" d="M1062.53,177.06s-16.59,2.77-29,11.53-35.24,59.2-35.24,59.2l25.1,16.86s-4.15-22.59,6.92-37.34,30.61-32.12,30.61-32.12Z"/><path class="cls-23" d="M1123,264.8l-25.3,68.48L996.64,368s-12-5.64-32.42-8.66c-25.74-3.8-53.76,20.29-50.07,29s74.66,6.81,74.66,6.81,102.45-14.28,120-19.92,49.66-89.61,49.66-89.61Z"/><path class="cls-36" d="M1136.9,174s16.9-.15,34.42,13.68,12,44.71,5.53,59.46-16.79,41.48-16.79,41.48l-44.75-20.74s25.12-39.64,25.35-48.63-15-35.57-15-35.57Z"/><path class="cls-31" d="M1116.62,113.15s-3.8,40.71,3,47.63,11.94,11.37,17.32,13.21-21.51,24.59-57.16,25.2-17.21-22.13-17.21-22.13,16.27-6.52,17.21-15.36,0-27,0-27Z"/><path class="cls-23" d="M1030.57,36.32s-9.83,51.63-2.46,75,22.13,44.87,40,44.87,38.09-20.64,46.69-32.32,3.1-87.53,3.1-87.53Z"/><path class="cls-23" d="M1113,90.34s10.57-19.92,20.28-15,2.73,21.9-3.45,29.18-16.28,6.2-16.28,6.2Z"/><polygon class="cls-29" points="1085.96 409.74 834.83 409.74 832.33 395.24 1085.04 395.24 1085.96 409.74"/><path class="cls-37" d="M972.44,395.8H832.33L811,287.72a17.4,17.4,0,0,1,16.82-20.79l107.9-1.48A17.39,17.39,0,0,1,953.07,280Z"/><path class="cls-18" d="M873.93,340.7c1.14,6.13,6.52,10.27,12,9.25s9.06-6.81,7.92-12.93-6.51-10.27-12-9.25S872.8,334.58,873.93,340.7Z"/><path class="cls-24" d="M1050.61,42.5s21.26,28.21,38.65,36.3,28.45,6.67,28.45,6.67l15.92-33.54-18.32-37.48s-43.48-19-61.17-11.74-30.15,19.87-36.3,36.58,7.53,48.27,7.53,48.27C1029,87.62,1051,60.7,1050.61,42.5Z"/><path class="cls-24" d="M1137.58,33s13.21-25.07,42.79-26,48.54,30.17,44.48,58.55-28,53.9-32.74,74.45,6.77,29.58,6.77,29.58-37.86-5.93-36.66-37,2.79-53.62-1-58.24-19.64-10.49-19.64-10.49Z"/><path class="cls-23" d="M1894.68,1822.77l52.19,39.25s-6.27,24.29-32.67,17.91-26.85-19.73-26.85-19.73l-36.56-31.56Z"/><path class="cls-24" d="M1887.35,1860.2s-10,9-11,21.14.09,18.64,9.3,20.12,27.38-3.13,34.86-1.09,20.65,3.14,40.28,3,49-6.58,47.83-14.58-61.75-26.73-61.75-26.73-19.47,9.37-35.1,7S1887.35,1860.2,1887.35,1860.2Z"/><path class="cls-24" d="M1745.08,1849.84s51.5-13.81,72.1,0,5.15,32.24-10.3,41.46-79.83-2.31-79.83-2.31Z"/><path class="cls-24" d="M1914.68,1831.24l-40.63,23.93-96.25-59.67-84.49,45.73s-100.69-15.26-128.57-28.53,25.8-30.12,72.28-56.66,118.08-43.39,159.91-34.54S1914.68,1831.24,1914.68,1831.24Z"/><path class="cls-38" d="M1589.68,1804.88c18.94,3.8,18.9,8.13,73.4,12.67s99.93,9.08,99.93,40.87-18.41,34.34-54.75,38.88-133,10.81-182.91-2.82-62.11-36.06-62.11-67.85c0-9,.73-31.62,9.16-33.64C1493.78,1787.87,1570.73,1801.07,1589.68,1804.88Z"/><path class="cls-39" d="M1530,1580.7c-31.24,4,25.06,141,45.12,167.22s138.19,38.49,138.19,38.49l-6.8-29.47-88.93-41.54s-36.56-81.53-46.22-108.28S1551.55,1578,1530,1580.7Z"/><path class="cls-23" d="M1649,1766.88l28.45,2.71s27.77-13.21,49.11-10.16,48.77,36.07,48.77,36.07l-96.53-.57h-25.4Z"/><path class="cls-40" d="M1524.05,1556c46,13.41,50.17,38.18,59.2,74s16.17,129.37,10.32,158.55-119.86,24.16-130.33,18.49-19.14-39.41-21.57-85.55-1.24-84.72,7.46-113.85S1487.32,1545.33,1524.05,1556Z"/><path class="cls-41" d="M1476.81,1585.31c-31.24,4,5.66,151.42,25.72,177.58s160.27,32.61,160.27,32.61l-2-31.14-125.42-43.47s-2.85-66.13-12.51-92.88S1498.36,1582.57,1476.81,1585.31Z"/><path class="cls-31" d="M1547,1523.73l-6.31,31.84,12,10.73s6.83,16.57-26.9,14.39-36.6-22.62-36.6-22.62l9.9-6.54,5.29-35.38Z"/><path class="cls-23" d="M1503.5,1471.15c-12.91,40.45,10.78,75.68,35.32,86.85s52.67-24.17,63.86-60.56c4.89-15.91,9.67-32.89,6-44.7-4.73-15.22-16-26.29-32.34-31.32C1547.3,1412.49,1515.07,1434.87,1503.5,1471.15Z"/><path class="cls-23" d="M1511.69,1467.74s-3.63-22.1-14.34-20.52-9.52,19.75-6,28.57,13.36,11,13.36,11Z"/><polygon class="cls-29" points="1605.27 1809.44 1856.4 1809.44 1858.9 1794.93 1606.2 1794.93 1605.27 1809.44"/><path class="cls-37" d="M1718.8,1795.5h140.1l21.37-108.09a17.39,17.39,0,0,0-16.81-20.79l-107.91-1.47a17.39,17.39,0,0,0-17.39,14.52Z"/><path class="cls-18" d="M1817.3,1740.4c-1.13,6.12-6.51,10.26-12,9.25s-9-6.81-7.92-12.94,6.51-10.26,12-9.25S1818.43,1734.27,1817.3,1740.4Z"/><path class="cls-24" d="M1509.93,1480c5.79,3.61,14.17-22.94,20.34-31.82a46.5,46.5,0,0,1,14.31-13.29s31.07,7.94,43.53,10.45,19.92,9.38,26.73,3.69,6.45-37.45-25.54-52.79-73.52-6.27-84.1,16.59-9.73,34.55-9.73,34.55,5.59,1,11.68,9.35S1504.14,1476.44,1509.93,1480Z"/></g></g></svg>