<svg xmlns="http://www.w3.org/2000/svg" viewBox="0 0 838.93 809.87"><defs><style>.cls-1,.cls-10,.cls-17,.cls-5{fill:#05287f;}.cls-1{opacity:0.37;}.cls-2{fill:#9d66ff;}.cls-12,.cls-13,.cls-3,.cls-4,.cls-6{fill:none;stroke:#05287f;}.cls-3,.cls-4{stroke-linecap:round;stroke-linejoin:round;stroke-width:3px;}.cls-4{stroke-dasharray:11.98 11.98;}.cls-12,.cls-13,.cls-6{stroke-miterlimit:10;}.cls-7{fill:#6820ff;}.cls-8{fill:#8b63fc;}.cls-11,.cls-15,.cls-16,.cls-9{fill:#fff;}.cls-10{opacity:0.1;}.cls-11{opacity:0.4;}.cls-12,.cls-13{stroke-width:6px;}.cls-12{opacity:0.41;}.cls-14{font-size:31.13px;font-family:Rockwell;}.cls-15{font-size:20.75px;font-family:OCRAExtended, OCR A Extended;}.cls-16{opacity:0.48;}.cls-17,.cls-18{opacity:0.35;}</style></defs><g id="Layer_2" data-name="Layer 2"><g id="Layer_1-2" data-name="Layer 1"><ellipse class="cls-1" cx="400.04" cy="802.93" rx="367.47" ry="6.95"/><path class="cls-2" d="M78.85,614.45c-1-.57-2.1.49-2.58,1.5a10.31,10.31,0,0,0-.93,5.91c-.88-1.28-1.79-2.55-2.75-3.79-1.14-1.48-2.34-2.89-3.57-4.23l.06-.07a38.8,38.8,0,0,0,2.25-5,6,6,0,0,0,.11-2.76,1.39,1.39,0,0,0-.78-1c-1.06-.45-2,.74-2.38,1.81a10.16,10.16,0,0,0-.13,6.11,59.46,59.46,0,0,0-6.39-5.78.08.08,0,0,0,0,0,36.12,36.12,0,0,0,.85-5.46,6.08,6.08,0,0,0-.61-2.69,1.44,1.44,0,0,0-1-.74c-1.13-.15-1.75,1.25-1.82,2.38a10.66,10.66,0,0,0,1.22,5.54,50.91,50.91,0,0,0-6.51-4.06.3.3,0,0,0,.1-.17,37.66,37.66,0,0,0,.11-5.53,5.88,5.88,0,0,0-1-2.58,1.41,1.41,0,0,0-1.11-.6c-1.14,0-1.57,1.47-1.49,2.59a10.12,10.12,0,0,0,2.33,5.76A45.48,45.48,0,0,0,46,598.77a.36.36,0,0,0,0-.11,37.52,37.52,0,0,0,.11-5.52,5.92,5.92,0,0,0-1-2.59,1.44,1.44,0,0,0-1.11-.6c-1.14,0-1.57,1.48-1.49,2.6.16,1.85,1,4.65,2.57,6A38.85,38.85,0,0,0,35.86,597v0a36.18,36.18,0,0,0,.12-5.52,5.82,5.82,0,0,0-1-2.59,1.39,1.39,0,0,0-1.1-.59c-1.15,0-1.57,1.47-1.49,2.59.16,1.92,1.06,4.87,2.75,6.12H34.11a.37.37,0,0,0-.24-.2c-4.79-1.54-4.74-.84-7.37-1a7.84,7.84,0,0,0-3.61.9,1.9,1.9,0,0,0-1,1.39c-.17,1.53,1.73,2.32,3.25,2.37,2.71.08,7.07-.76,8.86-3.07h1.15c-1.94.67-3.73,3-4.53,4.7-.47,1-.59,2.55.48,3a1.43,1.43,0,0,0,1.25-.17,5.91,5.91,0,0,0,1.81-2.08A38.51,38.51,0,0,0,36,597.62a.25.25,0,0,0,0-.17A39.27,39.27,0,0,1,45.47,599c-2,.62-3.83,3-4.64,4.73-.48,1-.6,2.55.47,3a1.46,1.46,0,0,0,1.25-.17,5.94,5.94,0,0,0,1.81-2.09,37.91,37.91,0,0,0,1.84-5.2,45.14,45.14,0,0,1,7.22,3c-2,.62-3.82,3-4.63,4.73-.48,1-.6,2.55.47,3a1.4,1.4,0,0,0,1.25-.17,5.83,5.83,0,0,0,1.81-2.08,37.75,37.75,0,0,0,1.8-5.06,52.7,52.7,0,0,1,7.26,4.73c-2.11.23-4.36,2.46-5.43,4.1-.61.95-.93,2.45.08,3a1.43,1.43,0,0,0,1.26,0,6,6,0,0,0,2.07-1.83,36.26,36.26,0,0,0,2.5-4.88,59.37,59.37,0,0,1,6.68,6.18c-2.09-.28-4.8,1.25-6.24,2.54-.84.76-1.54,2.12-.71,2.91a1.43,1.43,0,0,0,1.21.33,5.84,5.84,0,0,0,2.48-1.22A37.35,37.35,0,0,0,69,614.41c1.13,1.25,2.23,2.55,3.28,3.91q1.78,2.31,3.37,4.73c-2-.54-4.92.64-6.52,1.74-.92.64-1.79,1.91-1.06,2.79a1.4,1.4,0,0,0,1.16.48,5.93,5.93,0,0,0,2.61-.89A36.87,36.87,0,0,0,76,623.61c7.15,11,11.64,23.57,16,35.77l.39-.13c-4.42-12.36-9-25.08-16.27-36.22,0,0,0,0,.06-.06a36.62,36.62,0,0,0,2.87-4.72,6,6,0,0,0,.46-2.73A1.42,1.42,0,0,0,78.85,614.45Z"/><path class="cls-2" d="M650.34,665.24c1.14-.09,1.68,1.35,1.68,2.47a10.3,10.3,0,0,1-1.71,5.74q2-1.19,4.12-2.24c1.67-.85,3.35-1.6,5.05-2.28,0,0,0,0,0-.08a38,38,0,0,1,.15-5.53,6,6,0,0,1,1.08-2.54,1.42,1.42,0,0,1,1.14-.54c1.14,0,1.5,1.55,1.36,2.66a10.16,10.16,0,0,1-2.52,5.57,58.79,58.79,0,0,1,8.26-2.46s0,0,0,0a36.8,36.8,0,0,1,1.59-5.29,6,6,0,0,1,1.71-2.17,1.41,1.41,0,0,1,1.24-.22c1.09.35,1,1.88.61,2.92a10.64,10.64,0,0,1-3.49,4.48,51.67,51.67,0,0,1,7.63-.86.21.21,0,0,1,0-.19,35.35,35.35,0,0,1,2.28-5,5.9,5.9,0,0,1,2-1.93,1.47,1.47,0,0,1,1.26-.06c1,.5.78,2,.22,3a10.1,10.1,0,0,1-4.58,4.19,45,45,0,0,1,7.39.49.25.25,0,0,1,0-.12,35.86,35.86,0,0,1,2.28-5,5.78,5.78,0,0,1,2-1.92,1.4,1.4,0,0,1,1.26-.06c1,.49.78,2,.22,3-.94,1.6-2.91,3.77-4.9,4.28a38.93,38.93,0,0,1,9,2.67v0a36.56,36.56,0,0,1,2.29-5,5.9,5.9,0,0,1,2-1.93,1.47,1.47,0,0,1,1.26-.06c1,.5.78,2,.22,3-1,1.66-3.06,3.93-5.12,4.33l1,.46a.41.41,0,0,1,.31-.08c5,.68,4.63,1.29,7.07,2.3a8,8,0,0,1,2.87,2.37,1.87,1.87,0,0,1,.26,1.66c-.5,1.46-2.56,1.35-4,.75-2.48-1.1-6-3.75-6.67-6.6l-1-.5c1.46,1.45,2.07,4.33,2.06,6.19,0,1.13-.56,2.56-1.7,2.46a1.42,1.42,0,0,1-1-.69,5.88,5.88,0,0,1-.74-2.66,36.74,36.74,0,0,1,.59-5.49.28.28,0,0,1,.08-.15,39.14,39.14,0,0,0-9.2-2.64c1.52,1.42,2.15,4.38,2.14,6.28,0,1.12-.56,2.55-1.7,2.45a1.39,1.39,0,0,1-1-.69,5.88,5.88,0,0,1-.74-2.66,36.74,36.74,0,0,1,.59-5.49,44.66,44.66,0,0,0-7.8-.41c1.51,1.42,2.14,4.37,2.13,6.26,0,1.13-.56,2.56-1.7,2.46a1.42,1.42,0,0,1-1.05-.69,5.88,5.88,0,0,1-.74-2.66,37.43,37.43,0,0,1,.56-5.35,53.72,53.72,0,0,0-8.59,1.14c1.8,1.12,2.88,4.1,3.13,6,.14,1.11-.22,2.6-1.36,2.66a1.41,1.41,0,0,1-1.13-.55,5.92,5.92,0,0,1-1.09-2.54,37.32,37.32,0,0,1-.15-5.48,58.52,58.52,0,0,0-8.68,2.69c2,.66,3.78,3.2,4.53,5,.42,1,.47,2.57-.62,2.92a1.39,1.39,0,0,1-1.23-.22,5.92,5.92,0,0,1-1.72-2.17,37.86,37.86,0,0,1-1.59-5.27q-2.32,1-4.64,2.11c-1.74.88-3.43,1.82-5.09,2.82,2.08.39,4.17,2.7,5.14,4.38.55,1,.79,2.49-.25,3a1.45,1.45,0,0,1-1.25-.07,5.9,5.9,0,0,1-2-1.94,35.32,35.32,0,0,1-2.23-5c-11.2,6.86-20.67,16.25-29.87,25.38l-.29-.3c9.32-9.24,18.91-18.75,30.31-25.65a.2.2,0,0,1,0-.08,36.87,36.87,0,0,1-.54-5.5,5.93,5.93,0,0,1,.75-2.66A1.44,1.44,0,0,1,650.34,665.24Z"/><path class="cls-3" d="M571.68,534.37q2.91-.75,5.8-1.54"/><path class="cls-4" d="M589,529.52a445,445,0,0,0,155-83.25c19.91-16.53,39.67-37.59,40.42-63.47.73-25.42-18-48.16-40.59-59.87S695.32,308.34,670,305.58c-151.87-16.6-304.21-36.15-450.85-79C194.12,219.24,168.68,210.94,148,195S111.87,154,114.24,128c2.56-28.11,25.24-51.09,51-62.56S219.85,51.69,247.94,49c24.11-2.32,48.79-5.33,70.86-14.87"/><path class="cls-3" d="M324.22,31.6q2.68-1.32,5.31-2.8"/><path class="cls-5" d="M374.21,404.29l1,1.83-2.21.77,2.21.76-1.07,1.9-1.8-1.58.45,2.33h-2.1l.43-2.33-1.78,1.6-1.12-1.94,2.22-.77-2.2-.72,1-1.85,1.87,1.56-.47-2.37h2.14l-.47,2.37Z"/><path class="cls-5" d="M374.21,404.29l1,1.83-2.21.77,2.21.76-1.07,1.9-1.8-1.58.45,2.33h-2.1l.43-2.33-1.78,1.6-1.12-1.94,2.22-.77-2.2-.72,1-1.85,1.87,1.56-.47-2.37h2.14l-.47,2.37Z"/><path class="cls-6" d="M179.57,547.42c6.22-31-7.21-65-32.9-83.37C129.82,452,108.4,446.24,94.33,431c-20.21-21.82-18.92-55.16-18.48-84.89s-4-64.43-29.43-79.79"/><path class="cls-7" d="M159.64,730.12c6.67-18.87-23.58-28.44-9.79-50.38,31.24-49.69-25.75-51.21-49.77-66-11.85-7.29-27.17-16.06-25.5-29.87.68-5.69,4.37-10.54,6.26-16,6.83-19.47-10.58-39-28.47-49.27s-39.24-18.09-48.93-36.3C-1,474-1.84,462.51,5.08,456.08c7.34-6.83,19.4-4.49,27.94.76s15.61,12.93,24.9,16.69c18.82,7.61,41.24-2.83,60.19,4.43,14.21,5.44,22.93,19.36,33,30.78s25.59,21.52,39.69,15.81c7.56-3.06,13.38-10.29,21.47-11.29,10.45-1.29,19.12,8.7,22.05,18.81s2.26,21,5.32,31.09c8.92,29.37,60.56,19.67,35.22,81.33-6.88,16.74,51.84,6.22,35.57,43.9-5.22,12.08-26.89,24.37-36,38.13q-4.62-11.53-9.49-23-8.28-19.26-17.31-38.19-2.81-5.79-5.72-11.52a.11.11,0,0,1,0-.08,29.9,29.9,0,0,1,23.3-24.68,29.71,29.71,0,0,0-17.08,9,31,31,0,0,0-7.46,12.83.13.13,0,0,1-.25,0c-4-7.65-8.15-15.2-12.63-22.59-3.61-6-7.5-11.87-11.56-17.59s-8.4-11.27-13-16.58c-2.26-2.69-4.68-5.24-7.06-7.81l-.84-.85a12.46,12.46,0,0,0,2.2-3.43,16.32,16.32,0,0,0,1.27-5.5A26.66,26.66,0,0,0,197,565.74c-1.27-3.4-2.92-6.6-4.35-9.88a34.05,34.05,0,0,1-3.05-10.25,34.39,34.39,0,0,0,2.58,10.44c1.3,3.36,2.79,6.64,3.87,10a25.44,25.44,0,0,1,1.18,10.36A13.06,13.06,0,0,1,194,584a.15.15,0,0,1-.21,0c-1.71-1.72-3.42-3.44-5.22-5.06-2.53-2.44-5.22-4.69-7.87-7-1.34-1.12-2.73-2.2-4.09-3.3L174.58,567l-2.11-1.56A194.3,194.3,0,0,0,96.76,531a193.23,193.23,0,0,1,74.34,36.26l2.05,1.6,2,1.67c1.32,1.13,2.65,2.23,4,3.37,2.54,2.34,5.14,4.63,7.56,7.1s4.83,5,7.2,7.46,4.59,5.16,6.75,7.87q4,4.88,7.69,10a.14.14,0,0,1-.19.2A77.69,77.69,0,0,0,122,604.31a76.8,76.8,0,0,1,90.37,7.79l.08.09c4,6,7.88,12.11,11.44,18.42,6.86,12,12.93,24.48,18.63,37.13,1.63,3.64,3.22,7.3,4.8,11a.14.14,0,0,1-.2.17c-1.55-1-3.15-2-4.79-2.83a54.69,54.69,0,0,0-10-4.21,22.69,22.69,0,0,0-5.41-1c-.91,0-1.8,0-2.71,0h-1.35l-1.34.06A76.78,76.78,0,0,0,210.77,672a133.66,133.66,0,0,0-20.66,5.73c-6.74,2.36-13.4,4.9-20.18,7.15,6.83-2.09,13.56-4.48,20.34-6.68A135,135,0,0,1,210.93,673a76.68,76.68,0,0,1,10.58-.91l1.33,0,1.32,0c.88,0,1.77,0,2.64.09a21.37,21.37,0,0,1,5.06,1.08,53.12,53.12,0,0,1,9.59,4.31,54.27,54.27,0,0,1,7.47,5l0,.06q5,11.68,9.69,23.5Q264.14,720,269.22,734c-9.61,13.25-20.54,25-31.75,32.1-14.61,9.19-33.85,12.53-49.32,4.87S153.94,746.26,159.64,730.12Z"/><path class="cls-5" d="M198,704a60.07,60.07,0,0,1-4.9-4.4,46.45,46.45,0,0,1-6.73-8.5,35.55,35.55,0,0,1-2.43-4.86,28.6,28.6,0,0,1-1.54-5.21,24.82,24.82,0,0,1-.43-5.44,27,27,0,0,1,.75-5.43,27.53,27.53,0,0,0-1,5.42,25,25,0,0,0,.2,5.53,29.48,29.48,0,0,0,1.33,5.39,36.67,36.67,0,0,0,2.28,5.08,47.12,47.12,0,0,0,6,8.44l-.71-.43A310.67,310.67,0,0,0,147.23,678l0,0a55,55,0,0,1-8.32-6.89,47.23,47.23,0,0,1-6.73-8.5,38,38,0,0,1-2.43-4.86,29.27,29.27,0,0,1-1.54-5.22,25.31,25.31,0,0,1-.43-5.43,27,27,0,0,1,.76-5.43,26.74,26.74,0,0,0-1,5.41,25,25,0,0,0,.2,5.53,29.48,29.48,0,0,0,1.33,5.39,38,38,0,0,0,2.28,5.09,47.65,47.65,0,0,0,6.52,9,52.92,52.92,0,0,0,3.74,3.75A299.23,299.23,0,0,0,85,660.52a299.45,299.45,0,0,1,61.05,19l.11.08v0q12.92,5.58,25.27,12.33c-1.83-.37-3.66-.68-5.5-.95a83.39,83.39,0,0,0-14.81-.86,61.78,61.78,0,0,0-14.63,2.2,48.42,48.42,0,0,0-6.95,2.52,47.65,47.65,0,0,0-6.45,3.57,47.53,47.53,0,0,1,6.55-3.35,48.93,48.93,0,0,1,7-2.28,61.32,61.32,0,0,1,14.53-1.69,81.7,81.7,0,0,1,14.56,1.31,89.34,89.34,0,0,1,11.71,2.88q6,3.43,11.75,7.11,12,7.65,23.28,16.37c-2.16-.46-4.32-.85-6.51-1.17a83.39,83.39,0,0,0-14.81-.85,62.28,62.28,0,0,0-14.63,2.19,49.66,49.66,0,0,0-6.95,2.52,47.71,47.71,0,0,0-6.45,3.58,47.48,47.48,0,0,1,6.54-3.36,49.43,49.43,0,0,1,7-2.27,61.33,61.33,0,0,1,14.53-1.7A82.64,82.64,0,0,1,205.74,719a91.27,91.27,0,0,1,10.09,2.38,302.16,302.16,0,0,1,36.11,34c-43,2.34-104.18-14.69-140.07-37-36.74-22.88-47.19-53.87-94.66-76.21,34.05,8.07,67.95-13.49,102.89-15.35,33.49-1.77,66.1,15.28,88.81,40,21.11,23,34.57,51.88,44,81.68A308.77,308.77,0,0,0,198,704Z"/><path class="cls-8" d="M38.31,747c20.66,8.82,43.24,14.42,65.52.32,7.88,24.26,30.59,28.8,43.24,17.44,1.34,7.72,9.2,12.77,16.91,14.11s20.67-9.86,28.5-9.89c23.23-.06,2,39.86,63.86,15.44,6.29-2.49,12.85-5.45,16.27-11.28,16.49-28.07-58.55-45.89-75.86-49.51a234.28,234.28,0,0,0-104.67,2,222.7,222.7,0,0,0-27.59,8.88C60.7,736,40.94,748.15,38.31,747Z"/><path class="cls-7" d="M716.76,705.08c-20.67,8.82-43.25,14.42-65.53.32-7.87,24.26-30.59,28.8-43.24,17.45-1.34,7.71-9.2,12.76-16.91,14.1s-20.67-9.86-28.5-9.89c-23.23-.06-2,39.86-63.86,15.44-6.29-2.49-12.85-5.45-16.27-11.28C466,703.15,541,685.33,558.31,681.71a234.28,234.28,0,0,1,104.67,2,221.08,221.08,0,0,1,27.59,8.89C694.36,694.07,714.12,706.2,716.76,705.08Z"/><path class="cls-8" d="M644.91,567.57A45.51,45.51,0,0,1,647,545a46,46,0,0,1,12.32-18.58,44.11,44.11,0,0,1,9.11-6.31c3.16-1.71,6.31-3.12,9.33-4.59a56.05,56.05,0,0,0,8.44-4.83,25.41,25.41,0,0,0,6.49-6.63c3.51-5.21,5.12-11.74,5.86-18.35s.68-13.45.87-20.35a71.64,71.64,0,0,1,3.33-20.43,34.19,34.19,0,0,1,4.71-9.22,24.35,24.35,0,0,1,7.64-6.83,24.19,24.19,0,0,0-7.13,7.19,33.59,33.59,0,0,0-4,9.23,69.87,69.87,0,0,0-2,20.08c.22,6.76.74,13.66.37,20.64a60.36,60.36,0,0,1-1.4,10.52,36.65,36.65,0,0,1-4,10.17,30.78,30.78,0,0,1-7.28,8.42,61.52,61.52,0,0,1-9,5.92c-6.08,3.41-12,6.35-16.18,10.8a38,38,0,0,0-9.17,15.85,36.19,36.19,0,0,0-.56,17.91Z"/><path class="cls-5" d="M584.86,635.52a59.29,59.29,0,0,0,3.91-5.3,46.79,46.79,0,0,0,4.87-9.69,37.58,37.58,0,0,0,1.4-5.25,28.06,28.06,0,0,0,.44-5.42,25.35,25.35,0,0,0-.67-5.41,26.44,26.44,0,0,0-1.84-5.16,26.6,26.6,0,0,1,2.07,5.1,25.15,25.15,0,0,1,.92,5.45,28.62,28.62,0,0,1-.21,5.55,37.45,37.45,0,0,1-1.2,5.44,46.92,46.92,0,0,1-4.19,9.48c.21-.18.4-.37.61-.56a311.06,311.06,0,0,1,38.37-30l0,0a54.84,54.84,0,0,0,6.75-8.43,46.79,46.79,0,0,0,4.87-9.69,36.25,36.25,0,0,0,1.4-5.25,28.88,28.88,0,0,0,.45-5.42,24.74,24.74,0,0,0-.68-5.41,26.44,26.44,0,0,0-1.84-5.16,26.6,26.6,0,0,1,2.07,5.1,25.79,25.79,0,0,1,.93,5.45,29.44,29.44,0,0,1-.22,5.55,37.45,37.45,0,0,1-1.2,5.44,47.93,47.93,0,0,1-4.56,10.15c-.9,1.52-1.87,3-2.9,4.43a298.23,298.23,0,0,1,52.32-26.44A298.45,298.45,0,0,0,630.77,601l-.09.11,0,0q-11.52,8.09-22.25,17.19,2.57-1.1,5.19-2a83,83,0,0,1,14.33-3.83,62.07,62.07,0,0,1,14.78-.82,49.93,49.93,0,0,1,7.31,1.07,46.78,46.78,0,0,1,7.05,2.19,48.69,48.69,0,0,0-7.09-2,49.88,49.88,0,0,0-7.3-.82,61.42,61.42,0,0,0-14.57,1.28,82.31,82.31,0,0,0-14,4.23,89.14,89.14,0,0,0-10.89,5.2q-5.13,4.56-10.06,9.34-10.23,9.92-19.49,20.74c2-.89,4.06-1.71,6.14-2.47a84.37,84.37,0,0,1,14.33-3.83,62.48,62.48,0,0,1,14.77-.81,48.73,48.73,0,0,1,7.32,1.06,47.87,47.87,0,0,1,7,2.2,46.29,46.29,0,0,0-7.09-2,48.42,48.42,0,0,0-7.29-.82,61.5,61.5,0,0,0-14.58,1.28,82.31,82.31,0,0,0-14,4.23,92.14,92.14,0,0,0-9.4,4.37,303.14,303.14,0,0,0-28.5,40.56c42.62-6.41,99.06-35.46,129.68-64.61,31.36-29.84,35.32-62.3,77.28-93.79-31.71,14.79-69.27.53-103.86,5.79-33.15,5-61.64,28.34-78.88,57.1-16,26.74-23.37,57.8-26.58,88.9A308.33,308.33,0,0,1,584.86,635.52Z"/><path class="cls-8" d="M557.78,753.17c-2.41-9.23,38.52-1.26,19.91-19.8-35.06-34.93,12.6-20.69,24.6-26.74,5.92-3,11.33-6.84,13.32-13.16,2.56-8.16-12.25-7.07-12.93-9.72-2.46-9.52,17.18-16.2,26.09-20.36s19.37-7,24.7-15.27l.08-.12c5.07-7.73-2.86-17.36-11.44-13.92-.71.29-1.27.53-1.66.73-4.26,2.15-7.93,5.51-12.5,6.92-9.24,2.86-19.46-3-28.76-.31-7,2-13.2,17.92-18.43,22.94s-11.48-.46-18-3.74c-3.47-1.76-5.94-5.43-9.74-6.23-4.91-1-9.43,3.37-11.23,8.05s-1.92,9.89-3.78,14.55c-5.42,13.59-41-2.92-31.41,27.38,2.59,8.23-13.45,10.69-7.24,29.24,2,5.95,11.79,12.66,15.57,19.56q2.65-5.29,5.44-10.52,4.7-8.82,9.75-17.44,1.56-2.64,3.18-5.24v0a14.25,14.25,0,0,0-10.07-12.66,14.2,14.2,0,0,1,7.75,5,14.9,14.9,0,0,1,3,6.39.06.06,0,0,0,.11,0c2.2-3.47,4.48-6.89,6.91-10.22,2-2.71,4-5.33,6.2-7.89s4.44-5,6.83-7.35c1.18-1.19,2.43-2.3,3.67-3.42l.43-.37a6.18,6.18,0,0,1-.91-1.72,7.83,7.83,0,0,1-.38-2.66,12.6,12.6,0,0,1,1.26-5.07c.73-1.57,1.64-3,2.46-4.52a16.54,16.54,0,0,0,1.86-4.74,16.47,16.47,0,0,1-1.65,4.85c-.75,1.54-1.59,3-2.24,4.6a12.16,12.16,0,0,0-1,4.88,6.23,6.23,0,0,0,1.23,3.73.08.08,0,0,0,.1,0c.88-.75,1.76-1.5,2.69-2.2,1.29-1,2.66-2,4-3,.69-.48,1.39-.93,2.08-1.4l1-.7,1.07-.66a92.71,92.71,0,0,1,37.34-13.32,92,92,0,0,0-36.76,14.23l-1,.68-1,.71c-.67.48-1.35.95-2,1.44-1.31,1-2.63,2-3.88,3.07s-2.49,2.15-3.72,3.25-2.39,2.27-3.52,3.46c-1.4,1.44-2.75,2.93-4,4.45-.05,0,0,.13.08.1a37,37,0,0,1,41,2.42,36.59,36.59,0,0,0-43.23.06l0,0c-2.15,2.68-4.23,5.43-6.17,8.28-3.74,5.43-7.13,11.11-10.34,16.89-.92,1.66-1.83,3.34-2.73,5a.07.07,0,0,0,.09.09c.78-.42,1.58-.8,2.39-1.15a26.4,26.4,0,0,1,4.92-1.59,10.81,10.81,0,0,1,2.61-.27c.44,0,.86.07,1.29.1l.64,0,.64.08a35.78,35.78,0,0,1,5,1A64.85,64.85,0,0,1,557,733.4c3.1,1.39,6.16,2.87,9.29,4.21-3.16-1.27-6.26-2.67-9.39-4a63.31,63.31,0,0,0-9.6-3.31,36.92,36.92,0,0,0-5-.86l-.63-.06-.63,0-1.26-.06a10.19,10.19,0,0,0-2.44.3,25.35,25.35,0,0,0-4.73,1.67,26.28,26.28,0,0,0-3.75,2.07l0,0q-2.84,5.35-5.54,10.77-3.16,6.35-6.14,12.79c4,6.68,8.74,12.72,13.78,16.52,6.57,5,15.57,7.31,23.23,4.29S559.84,761.06,557.78,753.17Z"/><rect class="cls-5" x="226.82" y="108.63" width="347.15" height="694.3" rx="21.18"/><path class="cls-9" d="M560.78,136.2V775a15.86,15.86,0,0,1-15.86,15.86H255.86A15.86,15.86,0,0,1,240,775V136.2a15.85,15.85,0,0,1,15.86-15.85H544.92a15.87,15.87,0,0,1,15.15,11.13A16.05,16.05,0,0,1,560.78,136.2Z"/><path class="cls-10" d="M560.07,131.48,240,428.23V308.63L443.07,120.35H544.92A15.87,15.87,0,0,1,560.07,131.48Z"/><polygon class="cls-10" points="560.78 186.05 560.78 415.99 240 713.39 240 483.46 560.78 186.05"/><circle class="cls-5" cx="280.71" cy="160.02" r="11.38"/><circle class="cls-6" cx="309.24" cy="160.02" r="4.91"/><circle class="cls-11" cx="280.71" cy="160.02" r="7.08"/><rect class="cls-5" x="343.08" y="118.52" width="114.62" height="5.13" rx="2.28"/><rect class="cls-6" x="280.95" y="338.23" width="238.88" height="36.25" rx="12"/><rect class="cls-6" x="280.95" y="388.76" width="238.88" height="36.25" rx="12"/><rect class="cls-5" x="280.95" y="455.59" width="238.88" height="36.25" rx="12"/><line class="cls-12" x1="324.22" y1="750.93" x2="444.58" y2="750.93"/><line class="cls-13" x1="448.48" y1="750.93" x2="511.71" y2="750.93"/><text class="cls-14" transform="translate(347.97 299.78)">Sign in</text><text class="cls-15" transform="translate(356.87 480.88)">Sign in</text><circle class="cls-5" cx="306.04" cy="356.36" r="3.07"/><circle class="cls-5" cx="319.52" cy="356.36" r="3.07"/><circle class="cls-5" cx="332.99" cy="356.36" r="3.07"/><circle class="cls-5" cx="346.47" cy="356.36" r="3.07"/><circle class="cls-5" cx="359.94" cy="356.36" r="3.07"/><circle class="cls-5" cx="373.41" cy="356.36" r="3.07"/><circle class="cls-5" cx="386.89" cy="356.36" r="3.07"/><path class="cls-5" d="M309,404.29l1,1.83-2.21.77,2.21.76-1.08,1.9L307.09,408l.45,2.33h-2.11l.44-2.33-1.78,1.6L303,407.63l2.21-.77-2.19-.72,1-1.85,1.86,1.56-.46-2.37h2.13l-.46,2.37Z"/><path class="cls-5" d="M322,404.29l1,1.83-2.21.77,2.21.76-1.08,1.9L320.14,408l.45,2.33h-2.11l.44-2.33-1.78,1.6L316,407.63l2.21-.77-2.19-.72,1-1.85,1.86,1.56-.46-2.37h2.13l-.46,2.37Z"/><path class="cls-5" d="M335.06,404.29l1,1.83-2.21.77,2.21.76-1.08,1.9L333.19,408l.45,2.33h-2.1L332,408l-1.78,1.6-1.12-1.94,2.21-.77-2.19-.72,1-1.85,1.86,1.56-.46-2.37h2.13l-.46,2.37Z"/><path class="cls-5" d="M348.11,404.29l1,1.83-2.21.77,2.21.76-1.07,1.9-1.8-1.58.45,2.33h-2.1L345,408l-1.78,1.6-1.12-1.94,2.21-.77-2.19-.72,1-1.85,1.87,1.56-.47-2.37h2.14l-.47,2.37Z"/><path class="cls-5" d="M361.16,404.29l1,1.83-2.21.77,2.21.76-1.07,1.9-1.8-1.58.45,2.33h-2.1l.43-2.33-1.78,1.6-1.12-1.94,2.21-.77-2.19-.72,1-1.85,1.87,1.56-.47-2.37h2.14l-.47,2.37Z"/><path class="cls-5" d="M374.21,404.29l1,1.83-2.21.77,2.21.76-1.07,1.9-1.8-1.58.45,2.33h-2.1l.43-2.33-1.78,1.6-1.12-1.94,2.22-.77-2.2-.72,1-1.85,1.87,1.56-.47-2.37h2.14l-.47,2.37Z"/><path class="cls-5" d="M387.26,404.29l1,1.83-2.21.77,2.21.76-1.07,1.9-1.8-1.58.45,2.33h-2.1l.43-2.33-1.78,1.6-1.11-1.94,2.21-.77-2.2-.72,1-1.85,1.87,1.56-.47-2.37h2.14l-.47,2.37Z"/><rect class="cls-16" x="564.52" y="228.31" width="3.17" height="182" rx="1.41"/><rect class="cls-8" x="527.34" y="160.02" width="309.44" height="139.76" rx="20.2"/><rect class="cls-9" x="605.4" y="222.98" width="179.65" height="23.29" rx="2.12"/><path class="cls-5" d="M615.28,223v24.13a2.22,2.22,0,0,1-2.22,2.23H581.31a2.23,2.23,0,0,1-2.22-2.23V223a2.23,2.23,0,0,1,2.22-2.22h31.75A2.22,2.22,0,0,1,615.28,223Z"/><path class="cls-5" d="M608.93,214.2v8a.82.82,0,0,1-.82.82h-1.62a.82.82,0,0,1-.82-.82V215a1.34,1.34,0,0,0-1.33-1.33H590A1.34,1.34,0,0,0,588.7,215v7.14a.82.82,0,0,1-.82.82h-1.61a.82.82,0,0,1-.82-.82V215a4.6,4.6,0,0,1,4.59-4.59h15.11A3.79,3.79,0,0,1,608.93,214.2Z"/><path class="cls-5" d="M640.44,232.47l1,1.84-2.21.77,2.21.75-1.07,1.91-1.8-1.58.45,2.33h-2.1l.43-2.33-1.78,1.6-1.11-1.94,2.21-.78-2.2-.72,1-1.85,1.87,1.57-.47-2.37H639l-.47,2.37Z"/><path class="cls-5" d="M658.9,232.47l1,1.84-2.21.77,2.21.75-1.08,1.91L657,236.16l.45,2.33h-2.11l.44-2.33-1.78,1.6-1.12-1.94,2.21-.78-2.19-.72,1-1.85,1.86,1.57-.46-2.37h2.13L657,234Z"/><path class="cls-5" d="M677.37,232.47l1,1.84-2.21.77,2.21.75-1.08,1.91-1.8-1.58.45,2.33h-2.1l.43-2.33-1.78,1.6-1.11-1.94,2.21-.78-2.19-.72,1-1.85L674.3,234l-.47-2.37H676L675.5,234Z"/><path class="cls-5" d="M695.84,232.47l1,1.84-2.21.77,2.21.75-1.08,1.91-1.8-1.58.45,2.33h-2.1l.43-2.33-1.78,1.6-1.11-1.94,2.21-.78-2.19-.72,1-1.85,1.87,1.57-.47-2.37h2.14L694,234Z"/><path class="cls-5" d="M714.31,232.47l1,1.84-2.21.77,2.21.75-1.07,1.91-1.8-1.58.45,2.33h-2.1l.43-2.33-1.78,1.6-1.12-1.94,2.21-.78-2.19-.72,1-1.85,1.86,1.57-.46-2.37h2.13l-.46,2.37Z"/><path class="cls-5" d="M732.77,232.47l1,1.84-2.21.77,2.21.75-1.08,1.91-1.8-1.58.45,2.33h-2.1l.43-2.33-1.78,1.6-1.11-1.94L729,235l-2.19-.72,1-1.85L729.7,234l-.47-2.37h2.14L730.9,234Z"/><path class="cls-9" d="M598.14,237.17V234a1,1,0,0,0-1.91,0v3.21a3.47,3.47,0,1,0,1.91,0Z"/><polygon class="cls-7" points="416.54 0 367.62 39.39 354.3 33.22 339.42 44.43 333.67 25.28 333.03 23.16 332.05 22.64 314.35 13.27 416.54 0"/><polygon class="cls-17" points="343.05 27.61 354.3 33.22 339.42 44.43 344.27 30.43 339.8 39.01 341.43 28.78 333.67 25.28 333.03 23.16 332.05 22.64 389.69 10.03 343.05 27.61"/><path class="cls-5" d="M156.63,377c3.22,0,3.23-5,0-5s-3.22,5,0,5Z"/><path class="cls-5" d="M730.8,513.08c3.22,0,3.22-5,0-5s-3.22,5,0,5Z"/><path class="cls-5" d="M613.27,486.7c12.87,0,12.89-20,0-20s-12.89,20,0,20Z"/><path class="cls-5" d="M829.27,334.23c12.87,0,12.89-20,0-20s-12.89,20,0,20Z"/><path class="cls-5" d="M74.33,196.05c12.87,0,12.89-20,0-20s-12.89,20,0,20Z"/><path class="cls-5" d="M199.27,495.17c12.87,0,12.89-20,0-20s-12.89,20,0,20Z"/><path class="cls-5" d="M54.21,449.64c12.87,0,12.89-20,0-20s-12.89,20,0,20Z"/><g class="cls-18"><path class="cls-5" d="M190.8,291.59c12.87,0,12.89-20,0-20s-12.89,20,0,20Z"/></g><g class="cls-18"><path class="cls-5" d="M713.86,645.52c12.87,0,12.89-20,0-20s-12.89,20,0,20Z"/></g></g></g></svg>