<svg width="146" height="134" viewBox="0 0 146 134" fill="none" xmlns="http://www.w3.org/2000/svg">
<g filter="url(#filter0_d_13845_23702)">
<path d="M72.4808 6C72.6859 6.00001 72.8919 6.01848 73.097 6.03711L73.1712 6.04883C73.3515 6.03269 73.532 6.01857 73.7123 6.01855C75.7451 6.01862 77.6102 7.30471 78.2816 9.28027C78.6173 10.2308 78.9537 11.1999 79.2894 12.1504C80.0354 14.3124 80.8188 16.5303 81.5648 18.7295C82.087 20.2205 82.5906 21.7493 83.0755 23.2217C83.5604 24.6753 84.0828 26.2035 84.5863 27.6758C85.3323 29.8377 86.0962 32.056 86.8421 34.1807L87.2904 35.4482C88.2229 38.1321 89.0992 40.5183 90.3861 42.5498C91.3184 44.0404 92.1765 44.4688 92.8851 44.6738C94.545 45.177 96.3917 45.252 97.9769 45.252C106.015 45.2706 114.203 45.2704 122.129 45.2891H131.79C132.033 45.2891 132.257 45.3076 132.444 45.3076C132.518 45.3076 132.593 45.3076 132.704 45.3262C134.719 45.4195 136.453 46.7434 137.087 48.6631C137.702 50.5826 137.087 52.6702 135.521 53.9375C135.409 54.012 135.334 54.0866 135.241 54.1611C135.017 54.3474 134.793 54.5334 134.513 54.7197C132.685 56.043 131.137 57.162 129.571 58.2803C128.247 59.2307 126.923 60.1629 125.618 61.1133C123.939 62.3247 122.241 63.5171 120.563 64.7285C117.691 66.7973 114.669 68.9598 111.574 71.1963C111.313 71.3825 111.07 71.5686 110.809 71.7549C108.608 73.3391 106.519 74.8495 104.877 76.6201C103.908 77.6824 103.348 78.6519 103.161 79.6582C102.9 81.0373 103.032 82.5658 103.591 84.4854C104.207 86.5914 104.915 88.6787 105.68 90.8779C105.96 91.7166 106.258 92.5558 106.537 93.3945C107.041 94.9228 107.563 96.4513 108.085 97.9795C108.533 99.2841 108.962 100.589 109.41 101.894C109.932 103.459 110.454 105.024 110.976 106.59C111.424 107.95 111.891 109.311 112.338 110.672C112.804 112.07 113.289 113.486 113.755 114.884L114.37 116.692C114.967 118.463 114.501 120.42 113.14 121.725C112.263 122.656 111.051 123.122 109.82 123.122C109.242 123.122 108.682 123.029 108.122 122.806C107.539 122.581 106.997 122.282 106.507 121.909C105.631 121.831 104.773 121.519 104.037 120.96C103.795 120.774 103.552 120.606 103.31 120.42C102.75 120.01 102.191 119.581 101.613 119.152C100.065 117.96 98.5169 116.767 96.9691 115.574C95.645 114.549 94.302 113.524 92.9779 112.499C92.3997 112.052 91.8031 111.604 91.225 111.138C89.6583 109.926 88.0535 108.678 86.4496 107.485C83.2977 105.137 80.4257 103.086 77.2738 101.651C75.8565 101.018 74.5884 100.701 73.3949 100.701H73.3197C72.0329 100.72 70.7649 101.018 69.4222 101.614C66.4755 102.938 63.7152 104.82 61.4212 106.479C58.9222 108.305 56.3853 110.187 54.2406 111.79C53.0656 112.666 51.8901 113.58 50.7337 114.475C49.8014 115.201 48.8693 115.91 47.9183 116.618C46.4823 117.699 45.027 118.798 43.6283 119.842L42.1546 120.941C41.1006 121.727 40.0316 121.972 39.2572 122.027C38.7966 122.362 38.2937 122.635 37.7542 122.843C37.1949 123.029 36.6163 123.122 36.057 123.122C34.8075 123.122 33.5949 122.638 32.681 121.743C31.3383 120.439 30.8715 118.481 31.4681 116.711L32.1029 114.828C32.5691 113.449 33.035 112.07 33.5199 110.69C33.9861 109.311 34.453 107.932 34.9193 106.571C35.4415 105.024 35.9635 103.478 36.4857 101.931C36.9333 100.607 37.3809 99.3027 37.8285 97.9795C38.3507 96.4512 38.8728 94.9414 39.3763 93.4131C39.6561 92.5744 39.955 91.7353 40.2347 90.8779C40.9993 88.6788 41.7081 86.6099 42.3421 84.5039C42.9016 82.6029 43.0506 81.093 42.7709 79.7139C42.5657 78.7075 42.0249 77.7381 41.0365 76.6758C39.3766 74.8865 37.2872 73.3958 35.0492 71.793C34.7881 71.6066 34.5269 71.4197 34.2845 71.252C31.1702 69.0156 28.1116 66.8352 25.221 64.7852C23.5239 63.5737 21.8264 62.3804 20.1292 61.1689C18.7865 60.2185 17.4621 59.2864 16.138 58.3359C14.4036 57.1058 12.6496 55.8574 11.1576 54.7764C10.878 54.5715 10.6547 54.3845 10.431 54.2168C10.3564 54.1423 10.2626 54.0677 10.1507 53.9932C8.56556 52.7444 7.93169 50.6384 8.56577 48.7188C9.18125 46.799 10.9343 45.4574 12.9486 45.3643C13.0416 45.3642 13.1348 45.3448 13.2093 45.3447C13.4144 45.3261 13.6202 45.3262 13.8626 45.3262H23.6166C31.5989 45.3262 39.8611 45.3077 47.974 45.2891C49.5779 45.2891 51.4438 45.2151 53.141 44.7119C53.8682 44.4882 54.7447 44.059 55.6957 42.5684C57.0012 40.5182 57.8773 38.132 58.8285 35.4668L59.2953 34.1621C60.0413 32.0374 60.8247 29.8377 61.5707 27.6758C62.0742 26.2035 62.5965 24.6939 63.0814 23.2402C63.5849 21.7679 64.1071 20.2391 64.6107 18.748C65.3753 16.5489 66.1587 14.3307 66.9046 12.1875C67.2403 11.2184 67.5758 10.2493 67.9115 9.29883C68.5829 7.28606 70.4294 6.00015 72.4808 6ZM42.4164 12.4678C46.594 12.4679 50.4923 14.0895 53.4017 17.0156C56.2923 19.9418 57.8774 23.8185 57.8587 27.9561C57.9147 32.0005 56.3482 35.8403 53.4574 38.7852C50.5293 41.7671 46.5193 43.4628 42.4164 43.4629H42.3792V43.4443C38.2016 43.4257 34.284 41.8042 31.3373 38.8408C28.4279 35.9147 26.843 32.0564 26.8617 27.9561C26.8803 23.7626 28.4654 19.8674 31.3187 16.9785C34.2282 14.071 38.1455 12.4678 42.3978 12.4678H42.4164ZM104.113 12.5234C108.216 12.5235 112.039 14.0705 114.911 16.8662C117.802 19.6992 119.425 23.5945 119.499 27.8252V27.8623C119.537 31.9626 117.97 35.8395 115.079 38.7656C112.226 41.6545 108.29 43.3319 104.299 43.3506H104.206C99.9728 43.3506 96.0182 41.7483 93.1087 38.8223C90.2366 35.952 88.6702 32.0936 88.6888 27.9746C88.7075 23.6692 90.33 19.7365 93.2582 16.8662C96.093 14.0892 99.9168 12.5607 104.02 12.5234H104.113Z" fill="white"/>
</g>
<path d="M73.0224 62.0635C73.6379 64.7287 74.2161 67.599 74.9621 70.4507C76.0065 74.4579 77.6851 78.2414 79.5501 81.9504C82.1426 87.0945 85.3318 91.9032 88.8568 96.4323C91.6171 99.9921 94.5639 103.44 97.5666 106.814C100.551 110.187 103.665 113.412 106.743 116.711C106.836 116.804 106.929 116.916 106.948 117.102C106.165 116.506 105.363 115.928 104.579 115.331C101.707 113.113 98.8349 110.895 95.944 108.678C93.7619 106.981 91.5798 105.285 89.3604 103.627C86.1711 101.26 82.9446 98.9298 79.289 97.271C77.3867 96.395 75.3724 95.8545 73.2836 95.8917C71.2506 95.9104 69.311 96.395 67.4646 97.2337C64.294 98.6502 61.4031 100.57 58.6055 102.601C56.181 104.372 53.775 106.161 51.3691 107.969C49.2429 109.572 47.1541 111.194 45.0279 112.815C43.1069 114.269 41.1859 115.704 39.2649 117.139C39.1716 117.214 39.0597 117.27 38.9105 117.27C40.0296 116.096 41.1486 114.94 42.2303 113.747C44.7855 110.97 47.3965 108.212 49.8771 105.36C52.3016 102.583 54.7076 99.7685 56.9456 96.8237C59.221 93.8043 61.3285 90.6544 63.4174 87.5046C65.6555 84.1311 67.4646 80.5153 68.9566 76.769C69.9264 74.3088 70.7657 71.7926 71.4931 69.2578C72.034 67.4313 72.3137 65.5302 72.724 63.6664C72.8359 63.0327 72.9478 62.4176 73.0224 62.0635Z" fill="#888888"/>
<path d="M114.65 27.9188C114.706 33.9016 109.801 38.4866 104.261 38.5239C98.2 38.5612 93.5 33.9203 93.5373 28.012C93.5746 21.7123 98.2932 17.4255 104.056 17.3882C109.857 17.3323 114.557 21.7309 114.65 27.9188Z" fill="#F57F20"/>
<path d="M72.4807 10.8457C71.3804 13.9956 70.2613 17.1454 69.1796 20.2952C68.1538 23.2774 67.1467 26.2595 66.1209 29.2416C65.2257 31.8509 64.2931 34.4416 63.3793 37.051C62.3908 39.8467 61.365 42.6238 59.7797 45.1399C58.5115 47.1342 56.8702 48.6253 54.5389 49.3335C52.3941 49.9858 50.1933 50.1163 47.9925 50.1163C36.6157 50.1349 25.2388 50.1349 13.8619 50.1536C13.6754 50.1536 13.4889 50.1722 13.1719 50.1909C13.5262 50.4704 13.75 50.6568 13.9925 50.8432C15.6524 52.036 17.2937 53.2102 18.9536 54.3844C21.9936 56.5278 25.015 58.6899 28.055 60.8333C31.0764 62.9953 34.1165 65.1573 37.1379 67.3193C39.749 69.2018 42.4346 71.0097 44.6354 73.3954C46.0715 74.9423 47.1532 76.6943 47.5636 78.8004C48.0298 81.2234 47.7128 83.6091 47.0227 85.9016C46.1088 88.9582 45.0271 91.959 44.0013 94.9784C43.0501 97.8114 42.0616 100.644 41.1105 103.496C40.122 106.422 39.1335 109.348 38.145 112.275C37.4549 114.287 36.7835 116.3 36.0934 118.313C36.3546 118.22 36.5411 118.071 36.6903 117.903C40.2898 113.877 43.9453 109.87 47.4703 105.788C50.1187 102.713 52.6738 99.5447 55.2103 96.3762C58.1384 92.7045 60.8055 88.8464 63.2114 84.8206C66.2514 79.7323 68.6387 74.3646 70.0935 68.6054C70.8954 65.3996 71.5109 62.1566 71.7534 58.8576C71.9958 55.4095 72.3315 51.9615 72.3688 48.4948C72.518 36.4173 72.5553 24.3397 72.6486 12.2436C72.6486 11.7962 72.6486 11.3489 72.6486 10.9016C72.5553 10.8457 72.518 10.8457 72.4807 10.8457Z" fill="#2D5DAB"/>
<path d="M73.6187 10.8645C73.6187 11.3118 73.6187 11.7591 73.6187 12.2065C73.6933 24.284 73.7492 36.3615 73.8984 48.4577C73.9357 51.9057 74.2714 55.3724 74.5139 58.8205C74.7377 62.1194 75.3532 65.3625 76.1551 68.5683C77.5912 74.3274 79.9412 79.6952 82.9626 84.7835C85.3499 88.8093 87.9983 92.6674 90.8891 96.3391C93.3883 99.5262 95.9248 102.676 98.5545 105.751C102.061 109.833 105.679 113.84 109.241 117.866C109.39 118.034 109.577 118.183 109.838 118.276C109.167 116.263 108.477 114.25 107.805 112.237C106.817 109.311 105.847 106.385 104.877 103.459C103.926 100.626 102.956 97.7929 102.005 94.9413C100.998 91.9219 99.916 88.9211 99.0208 85.8645C98.3493 83.5533 98.0136 81.1676 98.4799 78.7633C98.8902 76.6572 99.9533 74.9239 101.371 73.3583C103.553 70.9726 106.201 69.1647 108.794 67.2822C111.796 65.1202 114.78 62.9582 117.783 60.7961C120.786 58.6341 123.789 56.4907 126.791 54.3473C128.433 53.1731 130.074 51.9803 131.715 50.8061C131.958 50.6383 132.181 50.4333 132.517 50.1538C132.181 50.1351 132.014 50.1165 131.827 50.1165C120.562 50.0978 109.279 50.0978 98.0136 50.0792C95.8315 50.0792 93.6494 49.9301 91.5232 49.2964C89.2105 48.5881 87.5693 47.0971 86.3197 45.1028C84.7344 42.5867 83.7273 39.8096 82.7388 37.0138C81.8249 34.4045 80.911 31.8138 80.0158 29.2045C78.99 26.2224 78.0015 23.2402 76.9944 20.2581C75.9127 17.1083 74.8123 13.9584 73.7119 10.8086C73.6746 10.8459 73.6373 10.8459 73.6187 10.8645Z" fill="#F57F20"/>
<path d="M53.0101 27.9559C53.1221 33.771 48.1796 38.5983 42.398 38.5983C36.523 38.5797 31.6925 33.8456 31.7298 27.9932C31.7485 22.0103 36.2992 17.3322 42.4166 17.3135C48.4594 17.2949 53.0661 22.1408 53.0101 27.9559Z" fill="#2D5DAB"/>
<defs>
<filter id="filter0_d_13845_23702" x="0.322754" y="0" width="145" height="133.122" filterUnits="userSpaceOnUse" color-interpolation-filters="sRGB">
<feFlood flood-opacity="0" result="BackgroundImageFix"/>
<feColorMatrix in="SourceAlpha" type="matrix" values="0 0 0 0 0 0 0 0 0 0 0 0 0 0 0 0 0 0 127 0" result="hardAlpha"/>
<feOffset dy="2"/>
<feGaussianBlur stdDeviation="4"/>
<feComposite in2="hardAlpha" operator="out"/>
<feColorMatrix type="matrix" values="0 0 0 0 0 0 0 0 0 0.168539 0 0 0 0 0.4 0 0 0 0.16 0"/>
<feBlend mode="normal" in2="BackgroundImageFix" result="effect1_dropShadow_13845_23702"/>
<feBlend mode="normal" in="SourceGraphic" in2="effect1_dropShadow_13845_23702" result="shape"/>
</filter>
</defs>
</svg>
